<?xml version="1.0" encoding="iso-8859-1"?>
<!-- Generator: Adobe Illustrator 19.0.0, SVG Export Plug-In . SVG Version: 6.00 Build 0)  -->
<svg version="1.1" id="Layer_1" xmlns="http://www.w3.org/2000/svg" xmlns:xlink="http://www.w3.org/1999/xlink" x="0px" y="0px"
	 viewBox="0 0 490 490" style="enable-background:new 0 0 490 490;" xml:space="preserve">
<g>
	<g>
		<g>
			<g>
				<path d="M392.7,490H97.3c-11.4,0-20.8-9.4-20.8-20.8V321.5C76.5,228.9,152.4,153,245,153s168.5,75.9,168.5,168.5v147.7
					C413.5,480.6,404.2,490,392.7,490z M117,449.4h256v-128c0-70.7-57.2-128-128-128s-128,57.2-128,128V449.4z"/>
			</g>
			<g>
				<path d="M110.8,140.4l-51-51c-8.3-8.3-8.3-20.8,0-29.1s20.8-8.3,29.1,0l51,51c8.3,8.3,8.3,20.8,0,29.1
					C135.8,144.6,125,152.2,110.8,140.4z"/>
			</g>
			<g>
				<path d="M245,114.4c-11.4,0-20.8-9.4-20.8-20.8V20.8C224.2,9.4,233.6,0,245,0c11.4,0,20.8,9.4,20.8,20.8v72.8
					C265.8,105.1,256.4,114.4,245,114.4z"/>
			</g>
			<g>
				<path d="M350.1,140.4c-8.3-8.3-8.3-20.8,0-29.1l51-51c8.3-8.3,20.8-8.3,29.1,0s8.3,20.8,0,29.1l-51,51
					C366.7,152.1,354.2,144.6,350.1,140.4z"/>
			</g>
		</g>
	</g>
</g>
<g>
</g>
<g>
</g>
<g>
</g>
<g>
</g>
<g>
</g>
<g>
</g>
<g>
</g>
<g>
</g>
<g>
</g>
<g>
</g>
<g>
</g>
<g>
</g>
<g>
</g>
<g>
</g>
<g>
</g>
</svg>
