<?xml version="1.0" encoding="iso-8859-1"?>
<!-- Generator: Adobe Illustrator 19.0.0, SVG Export Plug-In . SVG Version: 6.00 Build 0)  -->
<svg version="1.1" id="Layer_1" xmlns="http://www.w3.org/2000/svg" xmlns:xlink="http://www.w3.org/1999/xlink" x="0px" y="0px"
	 viewBox="0 0 490 490" style="enable-background:new 0 0 490 490;" xml:space="preserve">
<g>
	<g>
		<path d="M469.2,59.35H218.5c-11.4,0-20.8,9.4-20.8,20.8v56.2h-71.8c-6.2,0-11.4,3.1-15.6,7.3L5.2,261.15
			c-3.1,4.2-5.2,8.3-5.2,13.5v80.1c0,11.4,9.4,20.8,20.8,20.8h25.9c9.2,31.7,38.6,55.1,73,55.1c34.5,0,64-22.9,73.1-55.1l96.6,1
			c9.5,31.1,38.6,54.1,72.7,54.1c34.5,0,63.3-22.9,72.7-55.1h33.4c11.4,0,20.8-8.3,21.8-19.8V80.15
			C490,68.75,480.6,59.35,469.2,59.35z M119.6,391.25c-19.8,0-35.4-16.6-35.4-35.4c0-19.8,16.6-35.4,35.4-35.4
			c18.7,0,34.3,15.6,35.4,35.4C155,375.65,138.4,391.25,119.6,391.25z M196.6,333.95h-4c-9.2-31.7-38.6-55.1-73-55.1
			s-63.8,23.5-73,55.1h-6.1v-51l93.6-105.1h62.4v156.1H196.6z M362,391.25c-18,0-35.4-15.1-35.4-35.4c0-21.9,18.3-35.4,35.4-35.4
			c18.7,0,34.3,15.6,35.4,35.4C397.4,375.65,380.8,391.25,362,391.25z M448.4,333.95H435c-9.2-31.7-38.6-55.1-73-55.1
			c-34.8,0-64.5,24-73.3,56.2h-49.5l-1-234.1h210.1v233H448.4z"/>
		<path d="M305.5,202.15H332v26.5c0,9.7,7.8,17.5,17.5,17.5s17.5-7.8,17.5-17.5v-26.5h26.5c9.7,0,17.5-7.8,17.5-17.5
			s-7.8-17.5-17.5-17.5H367v-26.5c0-9.7-7.8-17.5-17.5-17.5s-17.5,7.8-17.5,17.5v26.5h-26.5c-9.7,0-17.5,7.8-17.5,17.5
			S295.8,202.15,305.5,202.15z"/>
	</g>
</g>
<g>
</g>
<g>
</g>
<g>
</g>
<g>
</g>
<g>
</g>
<g>
</g>
<g>
</g>
<g>
</g>
<g>
</g>
<g>
</g>
<g>
</g>
<g>
</g>
<g>
</g>
<g>
</g>
<g>
</g>
</svg>
