<?xml version="1.0" encoding="iso-8859-1"?>
<!-- Generator: Adobe Illustrator 19.0.0, SVG Export Plug-In . SVG Version: 6.00 Build 0)  -->
<svg version="1.1" id="Layer_1" xmlns="http://www.w3.org/2000/svg" xmlns:xlink="http://www.w3.org/1999/xlink" x="0px" y="0px"
	 viewBox="0 0 489.903 489.903" style="enable-background:new 0 0 489.903 489.903;" xml:space="preserve">
<g>
	<g>
		<path d="M484.8,162.052l-119.9-136.6c-4.2-5.2-9.4-7.3-15.6-7.3H20.9c-11.5,0-20.9,9.4-20.9,20.9v327.4c0,11.5,9.4,20.9,20.9,20.9
			h26.8c-0.5,3.4-0.8,6.9-0.8,10.4c0,40.7,33.4,74,74,74s74-33.4,74-74c0-3.9-0.3-7.7-0.9-11.5h115.4c-0.6,3.7-0.9,7.6-0.9,11.5
			c0,40.7,33.4,74,74,74c40.7,0,74-33.4,74-74c0-3.9-0.3-7.7-0.9-11.5H469c11.5,0,20.9-9.4,20.9-19.8v-190.8
			C490,170.452,487.9,166.252,484.8,162.052z M382.6,323.652c-19.9,0-38,8-51.3,20.9h-17.5v-121h134.5v120.9c0,0-12.9,0.1-14,0.3
			C420.9,331.752,402.6,323.652,382.6,323.652z M447.4,181.852H313.8v-122h26.1L447.4,181.852z M40.7,345.552v-285.7h231.4v284.6
			h-99.9c-13.3-12.9-31.4-20.9-51.3-20.9c-20.6,0-39.4,8.6-52.9,22.4C66.6,345.752,40.7,345.552,40.7,345.552z M120.9,431.052
			c-18.8,0-33.4-14.6-33.4-33.4s14.6-33.4,33.4-33.4c17.7,0,33.4,14.6,33.4,33.4S139.7,431.052,120.9,431.052z M382.6,431.052
			c-18.8,0-33.4-14.6-33.4-33.4s14.6-33.4,33.4-33.4s33.4,14.6,33.4,33.4S401.4,431.052,382.6,431.052z"/>
		<polygon points="141.8,213.152 169.9,213.152 169.9,176.652 205.4,176.652 205.4,151.652 169.9,151.652 169.9,115.152 
			141.8,115.152 141.8,151.652 106.3,151.652 106.3,176.652 141.8,176.652 		"/>
	</g>
</g>
<g>
</g>
<g>
</g>
<g>
</g>
<g>
</g>
<g>
</g>
<g>
</g>
<g>
</g>
<g>
</g>
<g>
</g>
<g>
</g>
<g>
</g>
<g>
</g>
<g>
</g>
<g>
</g>
<g>
</g>
</svg>
