<?xml version="1.0" encoding="iso-8859-1"?>
<!-- Generator: Adobe Illustrator 19.0.0, SVG Export Plug-In . SVG Version: 6.00 Build 0)  -->
<svg version="1.1" id="Layer_1" xmlns="http://www.w3.org/2000/svg" xmlns:xlink="http://www.w3.org/1999/xlink" x="0px" y="0px"
	 viewBox="0 0 491 491" style="enable-background:new 0 0 491 491;" xml:space="preserve">
<g>
	<g>
		<path d="M429.6,114.95c0-41.6-31.2-75.9-69.7-75.9h-93.6v-17.7c0-11.4-9.4-20.8-20.8-20.8s-20.8,9.4-20.8,20.8v17.7H129
			c-38.5,0-69.7,34.3-69.7,75.9v315.2c0,11.4,9.4,20.8,20.8,20.8h32.3v18.7c0,11.4,9.4,20.8,20.8,20.8s20.8-9.4,20.8-20.8v-18.7
			h183.1v18.7c0,11.4,9.4,20.8,20.8,20.8s19.8-9.4,20.8-20.8v-18.7h30.9c11.4,0,20.8-9.4,20.8-19.8L429.6,114.95z M130,79.65h232
			c15.6,0,29.1,15.6,29.1,35.4v142.5H100.9v-142.5C100.9,95.25,113.4,79.65,130,79.65z M391.1,410.45H100.9v-112.4h290.3v112.4
			H391.1z"/>
		<path d="M20.8,91.05c-11.4,0-20.8,9.4-20.8,20.8v34.3c0,11.4,9.4,20.8,20.8,20.8s20.8-8.3,20.8-20.8v-34.3
			C41.6,100.45,32.2,91.05,20.8,91.05z"/>
		<path d="M470.2,91.05c-11.4,0-20.8,9.4-20.8,20.8v34.3c0,11.4,9.4,20.8,20.8,20.8c10.4,0,19.8-8.3,20.8-20.8v-34.3
			C491,100.45,481.7,91.05,470.2,91.05z"/>
		<path d="M157.1,375.05h9.4c11.4,0,20.8-9.4,20.8-20.8s-9.4-20.8-20.8-20.8h-9.4c-11.4,0-20.8,9.4-20.8,20.8
			C136.3,365.75,145.6,375.05,157.1,375.05z"/>
		<path d="M325.6,375.05h9.4c10.4,0,20.8-9.4,20.8-20.8s-9.4-20.8-20.8-20.8h-9.4c-11.4,0-20.8,9.4-20.8,20.8
			C304.8,365.75,314.2,375.05,325.6,375.05z"/>
	</g>
</g>
<g>
</g>
<g>
</g>
<g>
</g>
<g>
</g>
<g>
</g>
<g>
</g>
<g>
</g>
<g>
</g>
<g>
</g>
<g>
</g>
<g>
</g>
<g>
</g>
<g>
</g>
<g>
</g>
<g>
</g>
</svg>
