<?xml version="1.0" encoding="iso-8859-1"?>
<!-- Generator: Adobe Illustrator 19.0.0, SVG Export Plug-In . SVG Version: 6.00 Build 0)  -->
<svg version="1.1" id="Layer_1" xmlns="http://www.w3.org/2000/svg" xmlns:xlink="http://www.w3.org/1999/xlink" x="0px" y="0px"
	 viewBox="0 0 491.001 491.001" style="enable-background:new 0 0 491.001 491.001;" xml:space="preserve">
<g>
	<g>
		<path d="M470.3,51.95H145.7c-7.3,0-12.5,3.1-16.6,8.3L4.2,224.65c-3.1,4.2-4.2,8.3-4.2,12.5v122.8c0,11.4,9.4,20.8,20.8,20.8H61
			c9.1,33.6,39.8,58.3,76.3,58.3c36.9,0,67.8-25.2,76.6-59.3h63.2c8.8,34.1,39.7,59.3,76.6,59.3s67.8-25.2,76.6-59.3h38.9
			c11.4,0,20.8-9.4,21.8-19.8V72.75C491.1,61.35,481.8,51.95,470.3,51.95z M155.1,91.55h25v120.7H65L155.1,91.55z M137.4,397.35
			c-20.8,0-38.5-16.6-38.5-38.5c0-20.8,16.6-38.5,38.5-38.5c20.8,0,38.5,17.7,38.5,38.5S159.3,397.35,137.4,397.35z M353.8,397.35
			c-20.8,0-38.5-16.6-38.5-38.5c0-20.8,16.6-38.5,38.5-38.5c20.8,0,38.5,17.7,38.5,38.5S375.6,397.35,353.8,397.35z M449.5,338.05
			h-19.7c-9.5-33.1-39.9-57.2-76-57.2s-66.5,24.2-76,57.2h-64.4c-9.5-33.1-39.9-57.2-76-57.2c-36.5,0-67.2,24.7-76.3,58.3H41.7
			v-85.3h158.1c11.4,0,20.8-8.3,21.8-21.8V91.55h227.8v246.5H449.5z"/>
		<polygon points="322.6,198.65 322.6,251.75 345.5,251.75 345.5,198.65 398.5,198.65 398.5,176.85 345.5,176.85 345.5,123.75 
			322.6,123.75 322.6,176.85 269.5,176.85 269.5,198.65 		"/>
	</g>
</g>
<g>
</g>
<g>
</g>
<g>
</g>
<g>
</g>
<g>
</g>
<g>
</g>
<g>
</g>
<g>
</g>
<g>
</g>
<g>
</g>
<g>
</g>
<g>
</g>
<g>
</g>
<g>
</g>
<g>
</g>
</svg>
