<?xml version="1.0" encoding="iso-8859-1"?>
<!-- Generator: Adobe Illustrator 19.0.0, SVG Export Plug-In . SVG Version: 6.00 Build 0)  -->
<svg version="1.1" id="Layer_1" xmlns="http://www.w3.org/2000/svg" xmlns:xlink="http://www.w3.org/1999/xlink" x="0px" y="0px"
	 viewBox="0 0 490.875 490.875" style="enable-background:new 0 0 490.875 490.875;" xml:space="preserve">
<g>
	<g>
		<path d="M463.141,133.133c-17.7-28.1-43.7-45.8-72.8-52c-34.3-6.2-70.7,4.2-104,30.2c-11.4,8.3-26,13.5-40.6,13.5
			c-15.6,0-29.1-5.2-40.6-13.5c-33.3-26-69.7-36.4-104-30.2c-30.2,5.2-55.1,23.9-72.8,52c-29.2,44.7-36.5,112.3-18.8,180
			c26,103,98.8,176.9,172.7,176.9c6.2,0,22.5-2.1,27-4.2c22.9-6.2,46.8-6.2,69.7,0c3.6,2.1,20.8,4.2,27,4.2
			c73.9,0,146.7-73.9,175.8-176.9C498.441,245.433,492.241,178.933,463.141,133.133z M439.141,302.733
			c-20.8,82.2-79,146.7-133.1,146.7c-4.2,0-11-0.7-16.6-2.1c-15.6-4.2-48.2-11.5-91.5,0c-5.8,2.1-12.5,2.1-16.6,2.1
			c-53.1,0-112.4-64.5-133.2-146.7c-14.7-57.3-9.5-112.4,13.4-148.8c8.3-13.5,22.9-30.2,45.8-34.3c21.8-5.2,46.8,3.1,70.7,21.8
			c18.7,13.5,41.6,21.8,65.5,21.8s47.9-7.3,65.5-21.8c22.9-18.7,48.9-26,70.7-21.8c22.9,5.2,37.5,21.8,45.8,34.3
			C448.541,190.333,453.741,245.433,439.141,302.733z"/>
		<path d="M243.541,100.833c9.4,0,17.7-6.2,19.8-15.6c0,0,11.4-35.4,73.9-43.7c10.4-1,18.7-11.4,17.7-22.9
			c-1-11.4-11.4-18.7-22.9-17.7c-91.6,11.5-107.2,71.9-108.2,73.9C219.441,96.633,241.541,100.833,243.541,100.833z"/>
	</g>
</g>
<g>
</g>
<g>
</g>
<g>
</g>
<g>
</g>
<g>
</g>
<g>
</g>
<g>
</g>
<g>
</g>
<g>
</g>
<g>
</g>
<g>
</g>
<g>
</g>
<g>
</g>
<g>
</g>
<g>
</g>
</svg>
