<?xml version="1.0" encoding="iso-8859-1"?>
<!-- Generator: Adobe Illustrator 19.0.0, SVG Export Plug-In . SVG Version: 6.00 Build 0)  -->
<svg version="1.1" id="Layer_1" xmlns="http://www.w3.org/2000/svg" xmlns:xlink="http://www.w3.org/1999/xlink" x="0px" y="0px"
	 viewBox="0 0 490.308 490.308" style="enable-background:new 0 0 490.308 490.308;" xml:space="preserve">
<g>
	<g>
		<circle cx="234.298" cy="207.6" r="21.4"/>
		<circle cx="257.198" cy="281.6" r="21.4"/>
		<path d="M474.598,114.8l-99-99c-10.4-11.8-45.6-28.7-75.1,0l-284.7,284.6c-20.9,20.9-20.9,54.2,0,75.1l99,99
			c27.1,27.3,64,13.8,75.1,0l284.6-284.6C495.398,169,495.398,135.6,474.598,114.8z M161.798,445.3c-5.2,4.2-13.6,4.2-17.7,0l-99-99
			c-5.2-5.2-5.2-12.5,0-17.7l68.9-68.9l117.2,116.3L161.798,445.3z M259.798,347.3l-116.8-116.8l87.6-87.6l116.8,116.8
			L259.798,347.3z M445.398,161.7l-68.8,68.8l-116.8-116.8l69.9-69.9c7.5-6,14.8-2.3,16.7,1l99,99
			C450.598,149.2,450.598,156.5,445.398,161.7z"/>
	</g>
</g>
<g>
</g>
<g>
</g>
<g>
</g>
<g>
</g>
<g>
</g>
<g>
</g>
<g>
</g>
<g>
</g>
<g>
</g>
<g>
</g>
<g>
</g>
<g>
</g>
<g>
</g>
<g>
</g>
<g>
</g>
</svg>
