<?xml version="1.0" encoding="iso-8859-1"?>
<!-- Generator: Adobe Illustrator 19.0.0, SVG Export Plug-In . SVG Version: 6.00 Build 0)  -->
<svg version="1.1" id="Layer_1" xmlns="http://www.w3.org/2000/svg" xmlns:xlink="http://www.w3.org/1999/xlink" x="0px" y="0px"
	 viewBox="0 0 489.21 489.21" style="enable-background:new 0 0 489.21 489.21;" xml:space="preserve">
<g>
	<g>
		<circle cx="107.805" cy="328.951" r="21.8"/>
		<circle cx="157.705" cy="278.951" r="21.8"/>
		<circle cx="160.905" cy="381.951" r="21.8"/>
		<circle cx="210.805" cy="332.051" r="21.8"/>
		<circle cx="279.505" cy="157.251" r="21.8"/>
		<circle cx="329.405" cy="107.351" r="21.8"/>
		<circle cx="332.505" cy="210.351" r="21.8"/>
		<circle cx="382.405" cy="160.351" r="21.8"/>
		<path d="M469.805,126.051l-107.1-107.2c-11.5-12.5-53.7-35.3-91.5,0l-251.8,251.8c-25,26-25,67.6,0,92.6l108.2,107.2
			c41.9,35.8,79.1,11.4,91.5,0l250.7-251.8C494.805,192.651,494.805,151.051,469.805,126.051z M441.705,189.551l-251.7,251.7
			c-9.4,9.4-25,9.4-34.3,0l-107.2-107.1c-9.4-9.4-9.4-25,0-34.3l250.7-251.8c16.7-14.6,32.5-3.9,35.4,0l107.2,106.1
			C455.805,168.851,446.405,185.951,441.705,189.551z"/>
	</g>
</g>
<g>
</g>
<g>
</g>
<g>
</g>
<g>
</g>
<g>
</g>
<g>
</g>
<g>
</g>
<g>
</g>
<g>
</g>
<g>
</g>
<g>
</g>
<g>
</g>
<g>
</g>
<g>
</g>
<g>
</g>
</svg>
