<?xml version="1.0" encoding="iso-8859-1"?>
<!-- Generator: Adobe Illustrator 19.0.0, SVG Export Plug-In . SVG Version: 6.00 Build 0)  -->
<svg version="1.1" id="Layer_1" xmlns="http://www.w3.org/2000/svg" xmlns:xlink="http://www.w3.org/1999/xlink" x="0px" y="0px"
	 viewBox="0 0 489.25 489.25" style="enable-background:new 0 0 489.25 489.25;" xml:space="preserve">
<g>
	<g>
		<g>
			<g>
				<polygon points="263.325,276.85 263.325,202.85 226.925,202.85 226.925,276.85 154.025,276.85 153.025,311.15 226.925,311.15 
					226.925,385.15 263.325,385.15 263.325,311.15 335.225,311.15 336.225,276.85 				"/>
			</g>
			<g>
				<path d="M244.625,489.25c-97.9,0-177-85.4-177-190.6c0-100,144.7-272.8,161.4-291.6c7.3-9.4,22.9-9.4,31.2,0
					c16.7,18.8,161.4,191.6,161.4,290.6C421.625,403.85,342.525,489.25,244.625,489.25z M244.625,51.85
					c-48.9,60.4-136.4,182.3-136.4,245.8c0,83.3,61.4,150,136.4,150s136.4-67.7,136.4-150
					C381.025,234.15,293.525,112.25,244.625,51.85z"/>
			</g>
		</g>
	</g>
</g>
<g>
</g>
<g>
</g>
<g>
</g>
<g>
</g>
<g>
</g>
<g>
</g>
<g>
</g>
<g>
</g>
<g>
</g>
<g>
</g>
<g>
</g>
<g>
</g>
<g>
</g>
<g>
</g>
<g>
</g>
</svg>
