<?xml version="1.0" encoding="iso-8859-1"?>
<!-- Generator: Adobe Illustrator 19.0.0, SVG Export Plug-In . SVG Version: 6.00 Build 0)  -->
<svg version="1.1" id="Layer_1" xmlns="http://www.w3.org/2000/svg" xmlns:xlink="http://www.w3.org/1999/xlink" x="0px" y="0px"
	 viewBox="0 0 487.858 487.858" style="enable-background:new 0 0 487.858 487.858;" xml:space="preserve">
<g>
	<g>
		<g>
			<g>
				<path d="M243.979,487.858c-94.7,0-171.7-77-171.7-171.7c0-87.4,139.4-286.1,155-307.9c12.7-14.7,28.8-6.6,33.3,0
					c15.6,21.8,155,219.5,155,307.9C415.679,410.858,338.679,487.858,243.979,487.858z M243.979,55.058
					c-47.9,69.7-131.1,204.9-131.1,261.1c0,72.8,59.3,131.1,131.1,131.1s131.1-59.3,131.1-131.1
					C375.079,259.958,291.879,124.758,243.979,55.058z"/>
			</g>
			<path d="M296.479,303.658h-41.1v-41.1c0-6-4.9-10.9-10.9-10.9h-1c-6,0-10.9,4.9-10.9,10.9v41.1h-41.1c-6,0-10.9,4.9-10.9,10.9
				l0,0c0,6,4.9,10.9,10.9,10.9h41.1v42.1c0,6,4.9,10.9,10.9,10.9h1c6,0,10.9-4.9,10.9-10.9v-42.1h41.1c6,0,10.9-4.9,10.9-10.9l0,0
				C307.479,308.558,302.579,303.658,296.479,303.658z"/>
		</g>
	</g>
</g>
<g>
</g>
<g>
</g>
<g>
</g>
<g>
</g>
<g>
</g>
<g>
</g>
<g>
</g>
<g>
</g>
<g>
</g>
<g>
</g>
<g>
</g>
<g>
</g>
<g>
</g>
<g>
</g>
<g>
</g>
</svg>
