<?xml version="1.0" encoding="iso-8859-1"?>
<!-- Generator: Adobe Illustrator 19.0.0, SVG Export Plug-In . SVG Version: 6.00 Build 0)  -->
<svg version="1.1" id="Layer_1" xmlns="http://www.w3.org/2000/svg" xmlns:xlink="http://www.w3.org/1999/xlink" x="0px" y="0px"
	 viewBox="0 0 489.901 489.901" style="enable-background:new 0 0 489.901 489.901;" xml:space="preserve">
<g>
	<g>
		<path d="M469.2,79.95H347.5v-21.8c0-30.2-25-55.1-55.1-55.1h-96.8c-30.2,0-55.1,25-55.1,55.1v21.8H20.8
			c-11.4,0-20.8,9.4-20.8,20.8v344.4c0,11.4,9.4,20.8,20.8,20.8h29.1c0,11.4,9.4,20.9,20.8,20.9s20.8-9.5,20.8-20.9h305.9
			c0,11.4,9.4,20.9,20.8,20.9c10.4,0,19.8-9.5,20.8-20.9h29.1c11.4,0,20.8-9.4,21.8-19.8v-345.4C490,89.35,480.6,79.95,469.2,79.95z
			 M102,425.35H40.6v-304.8H102V425.35z M182.1,58.15c0-8.3,6.2-14.6,14.6-13.5h96.8c7.3,0,13.5,6.2,13.5,13.5v21.8H182.1V58.15z
			 M345.4,425.35H143.6v-304.8h201.8L345.4,425.35L345.4,425.35z M448.4,425.35H387v-304.8h61.4V425.35z"/>
		<path d="M186.7,284.95H232v45.3c0,6.6,5.4,12,12,12l0,0c6.6,0,12-5.4,12-12v-45.3h45.3c6.6,0,12-5.4,12-12s-5.4-12-12-12H256
			v-45.3c0-6.6-5.4-12-12-12l0,0c-6.6,0-12,5.4-12,12v45.3h-45.3c-6.6,0-12,5.4-12,12S180.1,284.95,186.7,284.95z"/>
	</g>
</g>
<g>
</g>
<g>
</g>
<g>
</g>
<g>
</g>
<g>
</g>
<g>
</g>
<g>
</g>
<g>
</g>
<g>
</g>
<g>
</g>
<g>
</g>
<g>
</g>
<g>
</g>
<g>
</g>
<g>
</g>
</svg>
