<?xml version="1.0" encoding="iso-8859-1"?>
<!-- Generator: Adobe Illustrator 19.0.0, SVG Export Plug-In . SVG Version: 6.00 Build 0)  -->
<svg version="1.1" id="Layer_1" xmlns="http://www.w3.org/2000/svg" xmlns:xlink="http://www.w3.org/1999/xlink" x="0px" y="0px"
	 viewBox="0 0 491 491" style="enable-background:new 0 0 491 491;" xml:space="preserve">
<g>
	<g>
		<g>
			<g>
				<path d="M182.5,387.344v-221l-56.3,77.1c-4.2,5.2-10.4,8.3-16.7,8.3H20.9c-11.5,0-20.9-9.4-20.9-20.9s9.4-20.9,20.9-20.9h78.2
					l86.5-118.9c5.2-7.3,14.6-10.4,22.9-7.3c8.3,3.1,14.6,10.4,14.6,19.8v204.3l64.6-117.8c11.1-16.8,26.6-10.5,32.3-4.2l39.6,38.6
					h110.5c11.5,0,20.9,9.4,20.9,20.9s-9.4,20.9-20.9,20.9H351.4c-5.2,0-10.4-2.1-14.6-6.3l-25-26.1l-89.7,163.7
					C215.3,410.544,185.1,416.944,182.5,387.344z"/>
			</g>
		</g>
	</g>
</g>
<g>
</g>
<g>
</g>
<g>
</g>
<g>
</g>
<g>
</g>
<g>
</g>
<g>
</g>
<g>
</g>
<g>
</g>
<g>
</g>
<g>
</g>
<g>
</g>
<g>
</g>
<g>
</g>
<g>
</g>
</svg>
