<?xml version="1.0" encoding="iso-8859-1"?>
<!-- Generator: Adobe Illustrator 19.0.0, SVG Export Plug-In . SVG Version: 6.00 Build 0)  -->
<svg version="1.1" id="Layer_1" xmlns="http://www.w3.org/2000/svg" xmlns:xlink="http://www.w3.org/1999/xlink" x="0px" y="0px"
	 viewBox="0 0 489.925 489.925" style="enable-background:new 0 0 489.925 489.925;" xml:space="preserve">
<g>
	<path d="M450.85,46.906c-26.1-30.2-61.5-46.9-99-46.9s-73,16.7-99,46.9l-8.3,9.4l-7.3-9.4c-26.1-30.2-61.5-46.9-99-46.9
		s-73,16.7-99,46.9c-52.3,60.5-52.3,157.4-0.2,217.9l188.7,216.8c7,9,14.6,8.3,16.7,8.3c6.3,0,11.5-2.1,15.6-7.3l190.8-217.9
		C502.95,204.306,502.95,107.406,450.85,46.906z M418.55,237.706l-174.1,200.2l-144.2-165.8h57.6c7.3,0,13.6-3.1,17.7-9.4l20.9-33.4
		l10.4,63.6c2.8,18.5,22.2,21.6,35.4,10.4l48-48h33.4c11.5,0,20.9-9.4,20.9-20.9s-9.4-20.9-20.9-20.9h-42.7
		c-5.2,0-10.4,2.1-14.6,6.3l-26.1,26.2l-13.6-79.2c-3.2-19.2-26.1-24.2-37.5-7.3l-42.7,70.9h-81.9c-33.7-46.1-31.8-114.9,5.8-157.4
		c17.7-20.9,42.7-32.3,67.8-32.3s49,11.5,66.7,32.3l21.9,25c8.8,10.5,23.9,10.5,32.3,2.1l24-27.1c17.7-20.9,42.7-32.3,67.8-32.3
		c25,0,49,11.5,67.8,32.3C458.15,118.906,458.15,192.906,418.55,237.706z"/>
</g>
<g>
</g>
<g>
</g>
<g>
</g>
<g>
</g>
<g>
</g>
<g>
</g>
<g>
</g>
<g>
</g>
<g>
</g>
<g>
</g>
<g>
</g>
<g>
</g>
<g>
</g>
<g>
</g>
<g>
</g>
</svg>
