<?xml version="1.0" encoding="iso-8859-1"?>
<!-- Generator: Adobe Illustrator 19.0.0, SVG Export Plug-In . SVG Version: 6.00 Build 0)  -->
<svg version="1.1" id="Layer_1" xmlns="http://www.w3.org/2000/svg" xmlns:xlink="http://www.w3.org/1999/xlink" x="0px" y="0px"
	 viewBox="0 0 490.22 490.22" style="enable-background:new 0 0 490.22 490.22;" xml:space="preserve">
<g>
	<g>
		<g>
			<path d="M228.01,481.6L39.31,264.8c-52.1-60.5-52.1-157.4,0-217.9c26.1-30.2,61.5-46.9,99-46.9s73,16.7,99,46.9l7.3,9.4l8.3-9.4
				c26.1-30.2,61.5-46.9,99-46.9s73,16.7,99,46.9c52.1,60.5,52.1,157.4,0,217.9l-190.6,217.9
				C256.71,488.7,237.61,496.6,228.01,481.6z M138.31,40.6c-25,0-50,11.5-67.8,32.3c-39.6,44.8-39.6,118.9,0,164.7l174.1,200.2
				l174.1-200.2c39.6-44.8,39.6-118.9,0-164.7c-18.8-20.9-42.7-32.3-67.8-32.3s-50,11.5-67.8,32.3l-24,27.1
				c-3.5,4.2-18.6,13.7-32.3-2.1l-21.9-25C187.31,52.1,163.41,40.6,138.31,40.6z"/>
		</g>
	</g>
</g>
<g>
</g>
<g>
</g>
<g>
</g>
<g>
</g>
<g>
</g>
<g>
</g>
<g>
</g>
<g>
</g>
<g>
</g>
<g>
</g>
<g>
</g>
<g>
</g>
<g>
</g>
<g>
</g>
<g>
</g>
</svg>
