<?xml version="1.0" encoding="iso-8859-1"?>
<!-- Generator: Adobe Illustrator 19.0.0, SVG Export Plug-In . SVG Version: 6.00 Build 0)  -->
<svg version="1.1" id="Layer_1" xmlns="http://www.w3.org/2000/svg" xmlns:xlink="http://www.w3.org/1999/xlink" x="0px" y="0px"
	 viewBox="0 0 489.083 489.083" style="enable-background:new 0 0 489.083 489.083;" xml:space="preserve">
<g>
	<path d="M482.754,401.6l-48.9-48.9c15.1-20.7,23.9-46.3,23.9-73.9c0-15.8-2.9-30.9-8.3-44.9c29-60.3,21.7-137.2-19.8-187.1
		c-25-30.2-58.3-46.8-94.7-46.8c-65.8,0-102,55.1-102,55.1S197.654,0,132.054,0c-36.4,0-69.7,16.6-94.7,46.8
		c-49.8,59.3-49.8,157.1,0.2,216.4l177.9,216.4c14.1,17.5,30.2,6.2,34.3,2.1l64.8-78.2c5.7,0.8,11.5,1.2,17.4,1.2
		c27.1,0,52.1-8.5,72.6-23.1l49.1,49.1c12.6,11.7,25,4.2,29.1,0C491.154,422.4,491.154,409.9,482.754,401.6z M233.154,437
		l-164.4-198.7c-37.5-44.7-37.5-118.6,0-164.4c17.7-20.8,39.5-32.3,63.5-32.3c48.8,0,84.3,57.2,84.3,57.2
		c13.1,16.2,28.1,8.3,33.3,2.1c0,0,35-59.3,85.3-59.3c23.9,0,45.8,11.4,63.5,32.3c25.8,30.9,34.5,76.7,23.9,117.4
		c-22.9-23.7-55-38.4-90.5-38.4c-69.5,0-125.9,56.4-125.9,125.9c0,47.9,26.8,89.6,66.2,110.9L233.154,437z M246.654,278.8
		c0-47.1,38.2-85.3,85.3-85.3s85.3,38.2,85.3,85.3s-38.2,85.3-85.3,85.3S246.654,325.9,246.654,278.8z"/>
</g>
<g>
</g>
<g>
</g>
<g>
</g>
<g>
</g>
<g>
</g>
<g>
</g>
<g>
</g>
<g>
</g>
<g>
</g>
<g>
</g>
<g>
</g>
<g>
</g>
<g>
</g>
<g>
</g>
<g>
</g>
</svg>
