<?xml version="1.0" encoding="iso-8859-1"?>
<!-- Generator: Adobe Illustrator 19.0.0, SVG Export Plug-In . SVG Version: 6.00 Build 0)  -->
<svg version="1.1" id="Layer_1" xmlns="http://www.w3.org/2000/svg" xmlns:xlink="http://www.w3.org/1999/xlink" x="0px" y="0px"
	 viewBox="0 0 490 490" style="enable-background:new 0 0 490 490;" xml:space="preserve">
<g>
	<path d="M469.2,0.55H20.8C9.4,0.55,0,9.95,0,21.35v369.3c0,11.4,9.4,20.8,20.8,20.8h202.9v36.4H181c-11.4,0-20.8,9.4-20.8,20.8
		s9.4,20.8,20.8,20.8h126.9c10.4,0,19.8-9.4,19.8-20.8s-9.4-20.8-20.8-20.8h-41.6v-36.4h202.9c11.4,0,20.8-9.4,21.8-20.8V21.35
		C490,9.95,480.6,0.55,469.2,0.55z M448.4,41.15v129h-69.7c-5.2,0-10.4,2.1-14.6,6.2l-26,28.1l-11.4-26
		c-3.1-7.3-10.4-12.5-18.7-12.5h-56.2c-6.2,0-12.5,3.1-16.6,8.3l-11.4,16.6l-22.9-59.3c-1.8-8.8-21.7-23.6-36.4-4.2l-36.5,57.4H40.6
		V41.15H448.4z M40.6,370.95v-144.6h98.8c6.2,0,12.5-3.1,16.6-9.4l20.8-32.3l21.8,58.3c3.1,6.2,9.4,11.4,16.6,12.5
		c7.3,1,14.6-2.1,18.7-8.3l28.1-38.5h32.3l18.7,42.7c10.1,20.3,28.1,11.3,33.3,5.2l40.6-44.7h61.4v159.2H40.6V370.95z"/>
</g>
<g>
</g>
<g>
</g>
<g>
</g>
<g>
</g>
<g>
</g>
<g>
</g>
<g>
</g>
<g>
</g>
<g>
</g>
<g>
</g>
<g>
</g>
<g>
</g>
<g>
</g>
<g>
</g>
<g>
</g>
</svg>
