<?xml version="1.0" encoding="iso-8859-1"?>
<!-- Generator: Adobe Illustrator 19.0.0, SVG Export Plug-In . SVG Version: 6.00 Build 0)  -->
<svg version="1.1" id="Layer_1" xmlns="http://www.w3.org/2000/svg" xmlns:xlink="http://www.w3.org/1999/xlink" x="0px" y="0px"
	 viewBox="0 0 489 489" style="enable-background:new 0 0 489 489;" xml:space="preserve">
<g>
	<path d="M478.6,66.157l-112.4-63.4c-6.2-3.1-13.5-3.1-19.8,0l-101.9,57.5l-102-57.5c-6.2-3.1-13.5-3.1-19.8,0l-112.3,63.4
		c-6.2,3.1-10.4,10.4-10.4,17.7v128c0,7.3,4.2,14.6,10.4,17.7l100.9,57.5v117.2c0,7.3,4.2,14.6,10.4,17.7l112.4,63.5
		c9.4,5.8,17.7,2.1,20.8,0l111.3-63.5c6.2-3.1,10.4-10.4,10.4-17.7v-117.2l102-57.6c6.2-3.1,10.4-10.4,10.4-17.7v-128
		C489,76.557,484.8,69.257,478.6,66.157z M40.6,95.257l91.5-52l91.5,52v104l-91.5,52l-91.5-52C40.6,199.257,40.6,95.257,40.6,95.257
		z M336,392.857l-91.5,52l-91.5-52v-104l91.5-52l91.5,52V392.857z M448.4,199.357l-91.5,52l-91.5-52v-104l91.5-52l91.5,52V199.357z"
		/>
</g>
<g>
</g>
<g>
</g>
<g>
</g>
<g>
</g>
<g>
</g>
<g>
</g>
<g>
</g>
<g>
</g>
<g>
</g>
<g>
</g>
<g>
</g>
<g>
</g>
<g>
</g>
<g>
</g>
<g>
</g>
</svg>
