<?xml version="1.0" encoding="iso-8859-1"?>
<!-- Generator: Adobe Illustrator 19.0.0, SVG Export Plug-In . SVG Version: 6.00 Build 0)  -->
<svg version="1.1" id="Layer_1" xmlns="http://www.w3.org/2000/svg" xmlns:xlink="http://www.w3.org/1999/xlink" x="0px" y="0px"
	 viewBox="0 0 489 489" style="enable-background:new 0 0 489 489;" xml:space="preserve">
<g>
	<g>
		<path d="M489,244.5C489,109.3,379.8,0,244.5,0S0,109.3,0,244.5S109.3,489,244.5,489c28.6,0,56.1-5,81.7-14
			c15.8,8.9,34.1,14,53.6,14c60.3,0,109.2-49.9,109.2-110.3c0-19-4.9-36.9-13.4-52.5C483.8,299.3,489,272.4,489,244.5z M351.7,320.4
			c8.5-4,18-6.2,28.1-6.2c35.4,0,64.5,29.1,65.5,65.5c0,10.1-2.2,19.6-6.2,28.1L351.7,320.4z M44.8,244.5
			c0-110.3,89.5-199.7,200.8-198.7c110.3,0,199.7,89.5,199.7,199.7c0,14.5-1.7,28.5-4.7,42.4c-17.4-11.7-38.3-18.5-60.8-18.5
			c-61.4,0.1-109.3,50-109.3,110.3c0,22.1,6.6,42.6,17.8,59.8c-14.2,3-28.8,4.7-43.8,4.7C134.2,444.2,44.8,354.8,44.8,244.5z
			 M314.2,379.7c0-10.1,2.2-19.6,6.2-28.1l87.4,87.4c-8.5,4-18,6.2-28.1,6.2C343.3,445.3,314.2,416.2,314.2,379.7z"/>
		<path d="M265.3,136.3c0-11.4-9.4-21.8-21.8-21.8c-11.4,0-21.8,9.4-21.8,21.8v86.3H105.1c-11.4,0-21.8,10.4-21.8,21.8
			s9.4,21.8,21.8,21.8h139.4c12.5,0,21.8-9.4,20.8-21.8V136.3z"/>
	</g>
</g>
<g>
</g>
<g>
</g>
<g>
</g>
<g>
</g>
<g>
</g>
<g>
</g>
<g>
</g>
<g>
</g>
<g>
</g>
<g>
</g>
<g>
</g>
<g>
</g>
<g>
</g>
<g>
</g>
<g>
</g>
</svg>
