<?xml version="1.0" encoding="iso-8859-1"?>
<!-- Generator: Adobe Illustrator 19.0.0, SVG Export Plug-In . SVG Version: 6.00 Build 0)  -->
<svg version="1.1" id="Layer_1" xmlns="http://www.w3.org/2000/svg" xmlns:xlink="http://www.w3.org/1999/xlink" x="0px" y="0px"
	 viewBox="0 0 490.006 490.006" style="enable-background:new 0 0 490.006 490.006;" xml:space="preserve">
<g>
	<path d="M480.903,453.46l-207.6-146l82.6-117.5c6.2-9.4,4.2-21.9-5.2-28.1c-9.4-6.2-21.9-4.2-28.1,5.2l-82.4,117.2l-42.1-29.6
		l82.8-117.8c6.2-9.4,4.2-21.9-5.2-28.1c-9.4-6.2-21.9-4.2-28.1,5.2l-82.6,117.5l-41.6-29.2l82.5-117.4c6.2-9.4,4.2-21.9-5.2-28.1
		s-21.9-4.2-28.1,5.2l-82.3,117l-41.4-29.1l83.1-118.2c6.2-9.4,4.2-21.9-5.2-28.1s-21.9-4.2-28.1,5.2c0,0-94.1,133.3-94.8,134.3
		c-6.2,9.4-4.2,21.9,5.2,28.1l448.9,314.6c11.9,9.4,25,1,28.1-4.2C492.303,472.26,490.303,459.76,480.903,453.46z"/>
</g>
<g>
</g>
<g>
</g>
<g>
</g>
<g>
</g>
<g>
</g>
<g>
</g>
<g>
</g>
<g>
</g>
<g>
</g>
<g>
</g>
<g>
</g>
<g>
</g>
<g>
</g>
<g>
</g>
<g>
</g>
</svg>
