<?xml version="1.0" encoding="iso-8859-1"?>
<!-- Generator: Adobe Illustrator 19.0.0, SVG Export Plug-In . SVG Version: 6.00 Build 0)  -->
<svg version="1.1" id="Layer_1" xmlns="http://www.w3.org/2000/svg" xmlns:xlink="http://www.w3.org/1999/xlink" x="0px" y="0px"
	 viewBox="0 0 489 489" style="enable-background:new 0 0 489 489;" xml:space="preserve">
<g>
	<path d="M483.172,125.9l-77-85.3c-4-4.7-17-11.4-29.1,0l-30.2,30.3V20.8c0-11.4-9.4-20.8-20.8-20.8h-188.3
		c-6.2,0-10.4,2.1-14.6,5.2L6.672,117.6c-4.2,4.2-6.2,9.4-6.2,14.6v336c0,11.4,9.4,20.8,20.8,20.8h304.8c11.4,0,19.8-9.4,20.8-20.8
		c0,0-0.1-176.2-0.3-177.4l135.6-136.8C490.472,146.7,490.472,134.2,483.172,125.9z M116.972,67.6v57.3h-59.7L116.972,67.6z
		 M305.272,448.4h-264.3V166.5h95.7c11.4,0,20.8-9.4,21.8-19.8V40.6h146.7v72.1l-161.3,162c-3.1,3.1-5.2,7.3-6.2,11.4l-14.6,95.7
		c-2.5,17.4,14.5,23.4,19.8,22.9c1-0.1,93.6-9.4,93.6-9.4c5.2-1,9.4-3.1,12.5-6.2l56.2-56.7v116L305.272,448.4L305.272,448.4z
		 M225.172,354.8l-58.3,6.2l9.4-62.4l215.3-214.3l49.9,55.1L225.172,354.8z"/>
</g>
<g>
</g>
<g>
</g>
<g>
</g>
<g>
</g>
<g>
</g>
<g>
</g>
<g>
</g>
<g>
</g>
<g>
</g>
<g>
</g>
<g>
</g>
<g>
</g>
<g>
</g>
<g>
</g>
<g>
</g>
</svg>
