<?xml version="1.0" encoding="iso-8859-1"?>
<!-- Generator: Adobe Illustrator 19.0.0, SVG Export Plug-In . SVG Version: 6.00 Build 0)  -->
<svg version="1.1" id="Layer_1" xmlns="http://www.w3.org/2000/svg" xmlns:xlink="http://www.w3.org/1999/xlink" x="0px" y="0px"
	 viewBox="0 0 488.139 488.139" style="enable-background:new 0 0 488.139 488.139;" xml:space="preserve">
<g>
	<path d="M479.552,156.891l-148-148c-11.5-11.5-31.3-10.4-41.7,2.1l-220,267.1c-0.8,0.5-58.4,58.1-58.4,58.1
		c-20.7,21.3-8.7,46.3,0,54.2l86.5,85.5c22.1,21,47.6,7.9,53.2,0l52-52c1.2-0.6,274.4-226.4,274.4-226.4
		C484.352,193.491,496.452,177.091,479.552,156.891z M125.052,445.691l-82.4-82.4l39.6-39.6l82.4,82.4L125.052,445.691z
		 M194.952,377.891l-84.4-84.4l201.2-245l128.2,127.1L194.952,377.891z"/>
</g>
<g>
</g>
<g>
</g>
<g>
</g>
<g>
</g>
<g>
</g>
<g>
</g>
<g>
</g>
<g>
</g>
<g>
</g>
<g>
</g>
<g>
</g>
<g>
</g>
<g>
</g>
<g>
</g>
<g>
</g>
</svg>
