<?xml version="1.0" encoding="iso-8859-1"?>
<!-- Generator: Adobe Illustrator 19.0.0, SVG Export Plug-In . SVG Version: 6.00 Build 0)  -->
<svg version="1.1" id="Layer_1" xmlns="http://www.w3.org/2000/svg" xmlns:xlink="http://www.w3.org/1999/xlink" x="0px" y="0px"
	 viewBox="0 0 490 490" style="enable-background:new 0 0 490 490;" xml:space="preserve">
<g>
	<g>
		<path d="M224.756,314.2c0-35.4-17.7-68.7-47.9-88.4c-2.1-2.1-4.2-5.2-4.2-8.3l-10.3-197.7c-1.1-11.5-10.4-19.8-20.8-19.8h-57.3
			c-11.4,0-19.7,9.4-20.8,19.8l-10.4,198.7c0,3.1-2.1,6.2-4.2,8.3c-30.2,19.8-47.9,53.1-47.9,88.4v154c0,11.4,9.4,20.8,20.8,20.8
			h183.1c11.4,0,20.8-9.4,19.8-21.8v-154H224.756z M72.856,260.1c12.5-8.3,20.8-22.9,21.8-39.5l9.4-178.9h18.7l8.3,178.9
			c1,15.6,9.4,31.2,22.9,39.5c18.7,13.5,30.2,33.3,30.2,55.1v15.6h-141.5v-15.6C42.656,293.4,54.156,272.6,72.856,260.1z
			 M42.656,449.4v-77h141.5v77H42.656z"/>
		<path d="M488.956,469.2v-154c0-35.4-17.7-68.7-47.9-88.4c-2.1-2.1-4.2-5.2-4.2-8.3l-10.3-197.7c-1-11.4-10.4-19.8-20.8-19.8h-57.2
			c-11.4,0-19.8,9.4-20.8,19.8l-10.4,197.7c0,3.1-2.1,6.2-4.2,8.3c-30.2,19.8-47.9,53.1-47.9,88.4v154c0,11.4,9.4,20.8,20.8,20.8
			h183.1C480.656,490,490.056,480.6,488.956,469.2z M337.056,260.1c12.5-8.3,20.8-22.9,21.8-39.5l9.4-178.9h18.7l9.4,178.9
			c1,15.6,9.4,31.2,22.9,39.5c18.7,13.5,30.2,33.3,30.2,55.1v15.6h-142.5v-15.6C306.956,293.4,318.356,272.6,337.056,260.1z
			 M306.956,449.4v-77h142.5v77H306.956z"/>
	</g>
</g>
<g>
</g>
<g>
</g>
<g>
</g>
<g>
</g>
<g>
</g>
<g>
</g>
<g>
</g>
<g>
</g>
<g>
</g>
<g>
</g>
<g>
</g>
<g>
</g>
<g>
</g>
<g>
</g>
<g>
</g>
</svg>
