<?xml version="1.0" encoding="iso-8859-1"?>
<!-- Generator: Adobe Illustrator 19.0.0, SVG Export Plug-In . SVG Version: 6.00 Build 0)  -->
<svg version="1.1" id="Layer_1" xmlns="http://www.w3.org/2000/svg" xmlns:xlink="http://www.w3.org/1999/xlink" x="0px" y="0px"
	 viewBox="0 0 490.147 490.147" style="enable-background:new 0 0 490.147 490.147;" xml:space="preserve">
<g>
	<path d="M453.551,423.925l-55.7-55.7c0,0-48.4-93.7-51.2-99.1c37.4-27.5,73.1-57.5,106.8-89.9c0,0,11.4,14.4,29.8,1.7
		c8.3-8.3,8.3-20.8,0-29.1l-143.6-145.6c-8.3-8.3-20.8-8.3-29.1,0c-14.7,14.7,1.1,30.2,1.1,30.2c-23.6,24.2-45.8,49.6-66.7,76
		c-20.7-25.9-42.9-51-65.7-74.8c0,0,16.4-14.8,1.2-30.3c-8.2-8.4-20.8-8.3-29.1,0l-144.6,143.5c-7.3,7.3-9.2,21.8,0,29.1
		c18.5,14.7,29.6-1.5,29.6-1.5c33.1,32.6,69,62.8,106.4,90.2c-2.7,5.1-51.7,100.6-51.7,100.6l-54.7,54.7c0,0-12.8-14.8-29.6-0.5
		c-9,7.6-7,22.1,0,29.1l31.2,31.3c13.1,11.7,25.3,4.4,29.1,0c15-17.1-1.6-30.7-1.6-30.7l51.5-51.5c0,0,115.5-59.4,128.3-66.7
		c0.6,0.4,127.7,66.7,127.7,66.7l51.5,51.5c0,0-16.9,15.3-1.6,30.7c11.4,11.4,25,4.2,29.1,0l31.2-31.2c8.3-8.3,8.9-21.4,0-29.1
		C466.851,409.225,453.551,423.925,453.551,423.925z M66.051,149.825l84.6-84c24.3,25.3,47.7,51.5,69.3,79.5
		c-20.3,27.9-39.1,56.8-56.6,86.7C129.351,206.925,96.351,179.225,66.051,149.825z M154.451,336.025c0,0,118.5-199.7,186.1-270.4
		l83.9,84.6C353.851,217.725,154.451,336.025,154.451,336.025z M285.951,310.525c8.9-5.6,17.6-11.3,26.3-17.2
		c1.7,3.5,23.1,43.7,23.1,43.7S291.351,313.525,285.951,310.525z"/>
</g>
<g>
</g>
<g>
</g>
<g>
</g>
<g>
</g>
<g>
</g>
<g>
</g>
<g>
</g>
<g>
</g>
<g>
</g>
<g>
</g>
<g>
</g>
<g>
</g>
<g>
</g>
<g>
</g>
<g>
</g>
</svg>
