<?xml version="1.0" encoding="iso-8859-1"?>
<!-- Generator: Adobe Illustrator 19.0.0, SVG Export Plug-In . SVG Version: 6.00 Build 0)  -->
<svg version="1.1" id="Layer_1" xmlns="http://www.w3.org/2000/svg" xmlns:xlink="http://www.w3.org/1999/xlink" x="0px" y="0px"
	 viewBox="0 0 489.951 489.951" style="enable-background:new 0 0 489.951 489.951;" xml:space="preserve">
<g>
	<g>
		<path d="M278.369,239.803l204.1-204.2c7.8-7.8,8.4-20.6,0.9-28.7c-8.3-9-21.2-9.2-29.8-0.6l-204.4,204.3l-52.5-52.5
			c-14.6-14.6-38.5-14.6-53.1,0l-19.7,19.8c-17.7,16.6-17.7,44.7,0,62.4c1.1,0.8,1,3.1,0,4.2l-97.8,97.8
			c-47,54.6-16.6,106.1,0,122.8c56.3,47.1,106.1,15.6,122.8,0l97.8-97.8c1.4-1.4,3.8-1.5,5.2,0c10.2,10.9,40.3,22.2,62.4,0
			l19.8-19.8c15.6-15.6,12.2-39.9,0-52L278.369,239.803z M284.069,337.003c-1.4,1.4-3.8,1.5-5.2,0c-8.3-8.3-19.8-12.5-31.2-12.5
			c-11.4,0-22.9,4.2-31.2,12.5l-97.8,97.8c-28.1,25.7-56.2,8.3-64.5,0s-25.5-35,0-64.5l97.8-96.8c8.3-8.3,12.5-19.8,12.5-31.2
			s-4.2-22.9-12.5-31.2c-1-2.1-1-4.2,0-5.2l17.7-17.7l132.1,131.1L284.069,337.003z"/>
		<path d="M464.969,135.503c-10.2,1.5-17.6,10.7-17.6,21v60.6c0,11,9,20.8,19.9,21.2c11.8,0.4,21.7-8,21.7-20.8v-61.4
			C488.969,143.503,477.869,133.503,464.969,135.503z"/>
		<path d="M464.969,339.403c-10.2,1.5-17.6,10.7-17.6,21v60.5c0,11,9,20.8,19.9,21.2c11.8,0.4,21.7-8,21.7-19.8v-62.4
			C488.969,347.403,477.869,337.403,464.969,339.403z"/>
	</g>
</g>
<g>
</g>
<g>
</g>
<g>
</g>
<g>
</g>
<g>
</g>
<g>
</g>
<g>
</g>
<g>
</g>
<g>
</g>
<g>
</g>
<g>
</g>
<g>
</g>
<g>
</g>
<g>
</g>
<g>
</g>
</svg>
