<?xml version="1.0" encoding="iso-8859-1"?>
<!-- Generator: Adobe Illustrator 19.0.0, SVG Export Plug-In . SVG Version: 6.00 Build 0)  -->
<svg version="1.1" id="Layer_1" xmlns="http://www.w3.org/2000/svg" xmlns:xlink="http://www.w3.org/1999/xlink" x="0px" y="0px"
	 viewBox="0 0 486.813 486.813" style="enable-background:new 0 0 486.813 486.813;" xml:space="preserve">
<g>
	<path d="M223.138,48.803l-20.1,20.1l-39.9-39.9c-37.3-37.3-98-37.3-135.2,0s-37.3,98,0,135.2l39.9,39.9l-19.5,19.5
		c-8.3,8.3-8.3,20.8,0,29.1l64.5,64.5c12,11.7,25,4.2,29.1,1l18.6-18.7l129.1,130c21.8,21.8,49.9,36.4,81.1,41.6l90.5,14.6
		c10.3,1,29.1-7,25-27l-14.6-87.4c-5.2-31.2-19.8-59.3-41.6-81.1l-130.4-130.6l17.1-17.2c8.3-8.3,8.3-20.8,0-29.1l-64.5-64.5
		C243.938,41.503,230.438,41.503,223.138,48.803z M56.938,135.203c-21.3-21.3-21.3-56,0-77.3s56-21.3,77.3,0l39.9,39.9l-77.3,77.3
		L56.938,135.203z M429.138,379.603l10.4,62.4l-62.4-10.4c-21.8-4.2-42.7-14.6-58.3-30.2l-130-130l81.3-82l128.9,132
		C415.638,337.003,426.038,356.703,429.138,379.603z M275.138,127.903l-146.7,146.7l-36.4-36.4l146.7-146.7L275.138,127.903z"/>
</g>
<g>
</g>
<g>
</g>
<g>
</g>
<g>
</g>
<g>
</g>
<g>
</g>
<g>
</g>
<g>
</g>
<g>
</g>
<g>
</g>
<g>
</g>
<g>
</g>
<g>
</g>
<g>
</g>
<g>
</g>
</svg>
