<?xml version="1.0" encoding="iso-8859-1"?>
<!-- Generator: Adobe Illustrator 19.0.0, SVG Export Plug-In . SVG Version: 6.00 Build 0)  -->
<svg version="1.1" id="Layer_1" xmlns="http://www.w3.org/2000/svg" xmlns:xlink="http://www.w3.org/1999/xlink" x="0px" y="0px"
	 viewBox="0 0 490.938 490.938" style="enable-background:new 0 0 490.938 490.938;" xml:space="preserve">
<g>
	<path d="M484.725,378.006c-8.3-8.3-20.8-8.3-29.1,0l-20.8,20.8l-29.6-29.6l40.1-40.1c8.3-8.3,8.3-20.8,0-29.1
		c-8.3-8.3-20.8-8.3-29.1,0l-40.1,40.1l-94.6-94.6l94.4-93.9l40.3,40.3c13,11.6,25,4.2,29.1,0c8.3-8.3,8.3-20.8,0-29.1l-40.2-40.2
		l29.7-29.6l19.8,19.8c12.7,11.8,25,4.2,29.1,0c8.3-8.3,8.3-20.8,0-29.1l-77-77c-8.3-8.3-20.8-8.3-29.1,0c-8.3,8.3-8.3,20.8,0,29.1
		l28,28l-29.8,29.6l-47.2-47.2c-8.3-8.3-20.8-8.3-29.1,0c-8.3,8.3-8.3,20.8,0,29.1l47.1,47.1l-94.4,93.9l-101-101l40.1-40.1
		c8.3-8.3,8.3-20.8,0-29.1s-20.8-8.3-29.1,0l-40.1,40.1l-29.6-29.6l20.8-20.8c8.3-8.3,8.3-20.8,0-29.1s-20.8-8.3-29.1,0l-77,77
		c-8.3,8.3-8.3,20.8,0,29.1c4.2,4.2,15.4,12,29.1,0l27-27l29.6,29.6l-47.3,47.3c-8.3,8.3-8.3,20.8,0,29.1c11.5,11.5,25.1,4.9,29.1,0
		l47.3-47.3l101,100.9l-101.7,101.1l-46.5-46.5c-8.3-8.3-20.8-8.3-29.1,0s-8.3,20.8,0,29.1l46.4,46.4l-29.7,29.6l-27.1-27.1
		c-8.3-8.3-20.8-8.3-29.1,0s-8.3,20.8,0,29.1l41.6,41.6l0,0l0,0l35.4,35.4c13.5,11.9,25,4.2,29.1,0c8.3-8.3,8.3-20.8,0-29.1
		l-20.8-20.8l29.7-29.6l41,41c12.8,11.5,25,4.2,29.1,0c8.3-8.3,8.3-20.8,0-29.1l-40.9-40.9l101.7-101.1l94.7,94.7l-47.3,47.3
		c-8.3,8.3-8.5,20.9,0,29.1c12,11.7,25,4.2,29.1,0l47.3-47.3l29.6,29.6l-27,27c-8.3,8.3-8.3,20.8,0,29.1c11.5,11.5,25.3,4.6,29.1,0
		l77-77C493.025,398.906,493.025,386.406,484.725,378.006z"/>
</g>
<g>
</g>
<g>
</g>
<g>
</g>
<g>
</g>
<g>
</g>
<g>
</g>
<g>
</g>
<g>
</g>
<g>
</g>
<g>
</g>
<g>
</g>
<g>
</g>
<g>
</g>
<g>
</g>
<g>
</g>
</svg>
