<?xml version="1.0" encoding="iso-8859-1"?>
<!-- Generator: Adobe Illustrator 19.0.0, SVG Export Plug-In . SVG Version: 6.00 Build 0)  -->
<svg version="1.1" id="Layer_1" xmlns="http://www.w3.org/2000/svg" xmlns:xlink="http://www.w3.org/1999/xlink" x="0px" y="0px"
	 viewBox="0 0 490.5 490.5" style="enable-background:new 0 0 490.5 490.5;" xml:space="preserve">
<g>
	<g>
		<path d="M21,183.25c10.4,0,19.8-8.3,20.9-19.8v-46.9h29.2v45.9c0,11.5,9.4,20.9,20.9,20.9s19.8-8.3,20.9-19.8v-46.9h264.8v45.9
			c0,11.5,9.4,20.9,20.9,20.9s20.9-8.3,20.9-19.8v-46.9h29.2v45.9c0,11.5,9.4,20.9,20.9,20.9s20.9-8.3,20.9-19.8V21.65
			c0-11.5-9.4-20.9-20.9-20.9s-20.9,9.4-20.9,20.9v53.2h-29.5v-53.2c0-11.5-9.4-20.9-20.9-20.9s-20.9,9.4-20.9,20.9v53.2H112.7
			v-53.2c0-11.5-9.4-20.9-20.9-20.9s-20.9,9.4-20.9,20.9v53.2H41.8v-53.2c0-11.5-9.4-20.9-20.9-20.9S0,10.15,0,21.65v140.7
			C0.1,173.85,9.5,183.25,21,183.25z"/>
		<path d="M490.1,328.15c0-11.5-9.4-20.9-20.9-20.9s-20.9,9.4-20.9,20.9v53.2h-29.1v-53.2c0-11.5-9.4-20.9-20.9-20.9
			s-20.9,9.4-20.9,20.9v53.2H112.7v-53.2c0-11.5-9.4-20.9-20.9-20.9s-20.9,9.4-20.9,20.9v53.2H41.8v-53.2c0-11.5-9.4-20.9-20.9-20.9
			S0,316.65,0,328.15v140.7c0,11.5,9.4,20.9,20.9,20.9c10.4,0,19.8-9.4,20.9-20.9v-45.9H71v45.9c0,11.5,9.4,20.9,20.9,20.9
			s19.8-9.4,20.9-20.9v-45.9h264.8v45.9c0,11.5,9.4,20.9,20.9,20.9s20.9-9.4,20.9-20.9v-45.9h29.2v45.9c0,11.5,9.4,20.9,20.9,20.9
			s20.9-9.4,20.9-20.9v-140.7L490.1,328.15L490.1,328.15z"/>
	</g>
</g>
<g>
</g>
<g>
</g>
<g>
</g>
<g>
</g>
<g>
</g>
<g>
</g>
<g>
</g>
<g>
</g>
<g>
</g>
<g>
</g>
<g>
</g>
<g>
</g>
<g>
</g>
<g>
</g>
<g>
</g>
</svg>
