<?xml version="1.0" encoding="iso-8859-1"?>
<!-- Generator: Adobe Illustrator 19.0.0, SVG Export Plug-In . SVG Version: 6.00 Build 0)  -->
<svg version="1.1" id="Layer_1" xmlns="http://www.w3.org/2000/svg" xmlns:xlink="http://www.w3.org/1999/xlink" x="0px" y="0px"
	 viewBox="0 0 490 490" style="enable-background:new 0 0 490 490;" xml:space="preserve">
<g>
	<g>
		<path d="M469.1,103.2c-5.2-9.4-16.7-13.6-27.1-8.3c-9.4,5.2-13.6,16.7-8.3,27.1c11.5,21.9,16.7,43.8,16.7,67.8
			s-6.3,46.9-16.7,67.8c-5.2,9.4-2.1,21.9,8.3,27.1c15.3,5.8,24-2.1,27.1-10.4c13.6-26.1,20.9-55.3,20.9-85.5
			C490,159.5,482.7,130.3,469.1,103.2z"/>
		<path d="M284.6,188.7c0-42.7-35.4-78.2-78.2-78.2s-78.2,35.4-78.2,78.2s35.4,78.2,78.2,78.2C250.2,266.9,284.6,232.5,284.6,188.7z
			 M168.9,189.7c0-20.9,16.7-37.5,37.5-37.5s37.5,16.7,37.5,37.5c0,20.9-16.7,37.5-37.5,37.5S168.9,210.6,168.9,189.7z"/>
		<path d="M209.6,0C104.3,0,19.8,85.5,19.8,189.7c0,30.2,7.3,59.4,20.9,86.5c5.2,9.4,16.7,13.6,27.1,8.3c9.4-5.2,13.6-16.7,8.3-27.1
			c-11.5-21.9-16.7-43.8-16.7-67.8c0-81.3,65.7-148,148-148c81.3,0,148,65.7,148,148c0,75.1-56.3,137.6-130.3,147
			c-6,1.5-23,8.6-14.6,30.2c-1,45.9-38.6,82.4-84.4,82.4c-46.9,0-84.4-38.6-84.4-84.4c0-11.5-9.4-20.9-20.9-20.9S0,353.4,0,364.9
			C0,433.7,56.3,490,125.1,490c65.7,0,119.9-51.1,127.2-115.7c85.5-19.8,147-95.9,147-184.5C399.3,84.4,313.8,0,209.6,0z"/>
	</g>
</g>
<g>
</g>
<g>
</g>
<g>
</g>
<g>
</g>
<g>
</g>
<g>
</g>
<g>
</g>
<g>
</g>
<g>
</g>
<g>
</g>
<g>
</g>
<g>
</g>
<g>
</g>
<g>
</g>
<g>
</g>
</svg>
