<?xml version="1.0" encoding="iso-8859-1"?>
<!-- Generator: Adobe Illustrator 19.0.0, SVG Export Plug-In . SVG Version: 6.00 Build 0)  -->
<svg version="1.1" id="Layer_1" xmlns="http://www.w3.org/2000/svg" xmlns:xlink="http://www.w3.org/1999/xlink" x="0px" y="0px"
	 viewBox="0 0 488.901 488.901" style="enable-background:new 0 0 488.901 488.901;" xml:space="preserve">
<g>
	<path d="M441.01,468.2V191.4c0-46.7-32.6-86.4-77-96.4V66.6h33.3c11.4,0,20.8-9.4,20.8-20.8s-9.4-20.8-20.8-20.8h-33.3v-4.2
		c0-11.4-9.4-20.8-20.8-20.8s-20.8,9.4-20.8,20.8v3.1c0,0-66.6,0-70.7,0c-49.9-1-144.6-2.1-154,112.4v1v209
		c-29.1,8.7-49.9,35.4-49.9,67.7c0,39.5,32.3,70.7,70.7,70.7c39.5,0,70.7-31.2,70.7-70.7c0-32.6-21.3-59.6-51-68V139.4
		c5.2-69.7,50-74.9,112.4-73.8c4.2,0,71.8,0,71.8,0v29c-44.8,9.1-79.1,48.6-79.1,96.8v276.7c0,11.4,9.4,20.8,20.8,20.8h158.1
		C433.71,489,442.01,479.6,441.01,468.2z M148.61,414.1c0,16.6-13.5,30.2-30.2,30.2c-16.6,0-30.2-13.5-30.2-30.2
		s13.5-30.2,30.2-30.2S148.61,397.4,148.61,414.1z M401.41,448.4h-116.5v-257c0-32.3,26-58.3,58.3-58.3s58.3,26,58.3,58.3v257
		H401.41z"/>
</g>
<g>
</g>
<g>
</g>
<g>
</g>
<g>
</g>
<g>
</g>
<g>
</g>
<g>
</g>
<g>
</g>
<g>
</g>
<g>
</g>
<g>
</g>
<g>
</g>
<g>
</g>
<g>
</g>
<g>
</g>
</svg>
