<?xml version="1.0" encoding="iso-8859-1"?>
<!-- Generator: Adobe Illustrator 19.0.0, SVG Export Plug-In . SVG Version: 6.00 Build 0)  -->
<svg version="1.1" id="Layer_1" xmlns="http://www.w3.org/2000/svg" xmlns:xlink="http://www.w3.org/1999/xlink" x="0px" y="0px"
	 viewBox="0 0 488.9 488.9" style="enable-background:new 0 0 488.9 488.9;" xml:space="preserve">
<g>
	<g>
		<path d="M488.328,444.2v-286c0-25-19.8-44.7-44.7-44.7h-39.5V20.8c0-11.4-9.4-20.8-20.8-20.8h-276.8c-11.4,0-20.8,9.4-20.8,20.8
			v92.6h-40.5c-25,0-44.7,19.8-44.7,44.7v286.1c0,25,19.8,44.7,44.7,44.7h399.5C469.628,489,489.428,469.2,488.328,444.2z
			 M127.328,40.6h235.1v72.8h-235.1V40.6z M447.828,444.2c0,2.1-2.1,4.2-4.2,4.2h-398.4c-2.1,0-4.2-2.1-4.2-4.2v-286
			c0-2.1,2.1-4.2,4.2-4.2h398.5c2.1,0,4.2,2.1,4.2,4.2v286H447.828z"/>
		<path d="M315.628,284h-37.5c-9.4,0-16.6-7.3-16.6-16.6V231c0-9.4-7.3-16.6-16.6-16.6s-16.6,7.3-16.6,16.6v36.4
			c0,9.4-7.3,16.6-16.6,16.6h-37.5c-9.4,0-16.6,7.3-16.6,16.6c0,0-0.6,16.7,16.6,17.7h37.5c9.4,0,16.6,7.3,16.6,16.6v37.6
			c0,9.4,7.3,16.6,16.6,16.6s16.6-7.3,16.6-16.6V335c0-9.4,7.3-16.6,16.6-16.6h37.5c17.7-1.2,16.6-17.7,16.6-17.7
			C332.328,291.3,325.028,284,315.628,284z"/>
	</g>
</g>
<g>
</g>
<g>
</g>
<g>
</g>
<g>
</g>
<g>
</g>
<g>
</g>
<g>
</g>
<g>
</g>
<g>
</g>
<g>
</g>
<g>
</g>
<g>
</g>
<g>
</g>
<g>
</g>
<g>
</g>
</svg>
