<?xml version="1.0" encoding="iso-8859-1"?>
<!-- Generator: Adobe Illustrator 19.0.0, SVG Export Plug-In . SVG Version: 6.00 Build 0)  -->
<svg version="1.1" id="Layer_1" xmlns="http://www.w3.org/2000/svg" xmlns:xlink="http://www.w3.org/1999/xlink" x="0px" y="0px"
	 viewBox="0 0 490 490" style="enable-background:new 0 0 490 490;" xml:space="preserve">
<g>
	<g>
		<path d="M440.148,124.1h-29.2V53.2c0-29.2-24-53.2-53.2-53.2h-226.2c-29.2,0-53.2,24-53.2,53.2v70.9h-28.2
			c-11.5,0-20.9,9.4-20.9,20.9v273.1c0,39.6,32.3,71.9,71.9,71.9h287.7c39.6,0,70.9-32.3,71.9-71.9V144.9
			C460.948,133.4,451.548,124.1,440.148,124.1z M119.048,53.2c0-7.3,6.3-12.5,12.5-12.5h226.2c7.3,0,12.5,6.3,12.5,12.5v70.9h-251.2
			C119.048,124.1,119.048,53.2,119.048,53.2z M420.248,418.1c0,17.7-14.6,31.3-31.3,31.3h-286.6c-17.7,0-31.3-14.6-31.3-31.3V165.8
			h349.3v252.3H420.248z"/>
		<polygon points="232.648,372.2 257.648,372.2 257.648,320.1 309.748,320.1 309.748,294 257.648,294 257.648,241.9 232.648,241.9 
			232.648,294 180.548,294 180.548,320.1 232.648,320.1 		"/>
	</g>
</g>
<g>
</g>
<g>
</g>
<g>
</g>
<g>
</g>
<g>
</g>
<g>
</g>
<g>
</g>
<g>
</g>
<g>
</g>
<g>
</g>
<g>
</g>
<g>
</g>
<g>
</g>
<g>
</g>
<g>
</g>
</svg>
