<?xml version="1.0" encoding="iso-8859-1"?>
<!-- Generator: Adobe Illustrator 19.0.0, SVG Export Plug-In . SVG Version: 6.00 Build 0)  -->
<svg version="1.1" id="Layer_1" xmlns="http://www.w3.org/2000/svg" xmlns:xlink="http://www.w3.org/1999/xlink" x="0px" y="0px"
	 viewBox="0 0 490.1 490.1" style="enable-background:new 0 0 490.1 490.1;" xml:space="preserve">
<g>
	<g>
		<path d="M462.934,437.9v-270c0-28.1-22.9-51.1-51.1-51.1h-30.2V61.5c0-33.4-27.1-61.5-61.5-61.5h-152.3
			c-33.4,0-61.5,27.1-61.5,61.5v55.3h-28.1c-28.1,0-51.1,22.9-51.1,51.1V439c0,28.1,22.9,51.1,51.1,51.1h333.6
			C441.034,490,463.934,467.1,462.934,437.9z M148.034,61.5c0-11.5,9.4-20.9,20.9-20.9h152.2c11.5,0,20.9,9.4,20.9,20.9v55.3h-194
			L148.034,61.5L148.034,61.5z M422.234,437.9c0,5.2-4.2,10.4-10.4,10.4h-333.6c-5.2,0-10.4-4.2-10.4-10.4v-270
			c0-5.2,4.2-10.4,10.4-10.4h333.6c5.2,0,10.4,4.2,10.4,10.4V437.9L422.234,437.9z"/>
		<path d="M320.034,283.6h-39.6c-9.4,0-17.7-8.3-17.7-17.7v-38.6c0-9.4-8.3-17.7-17.7-17.7s-17.7,8.3-17.7,17.7v38.6
			c0,9.4-8.3,17.7-17.7,17.7h-39.6c-9.4,0-17.7,7.6-17.7,17.7c0,12.1,7.6,19.8,17.7,19.8h39.6c9.4,0,17.7,8.3,17.7,17.7v39.6
			c0,9.4,8.3,17.7,17.7,17.7s17.7-8.3,17.7-17.7v-39.6c0-9.4,8.3-17.7,17.7-17.7h39.6c9.4,0,17.7-7.5,17.7-19.8
			C337.834,293.5,330.734,283.6,320.034,283.6z"/>
	</g>
</g>
<g>
</g>
<g>
</g>
<g>
</g>
<g>
</g>
<g>
</g>
<g>
</g>
<g>
</g>
<g>
</g>
<g>
</g>
<g>
</g>
<g>
</g>
<g>
</g>
<g>
</g>
<g>
</g>
<g>
</g>
</svg>
