<?xml version="1.0" encoding="iso-8859-1"?>
<!-- Generator: Adobe Illustrator 19.0.0, SVG Export Plug-In . SVG Version: 6.00 Build 0)  -->
<svg version="1.1" id="Layer_1" xmlns="http://www.w3.org/2000/svg" xmlns:xlink="http://www.w3.org/1999/xlink" x="0px" y="0px"
	 viewBox="0 0 489 489" style="enable-background:new 0 0 489 489;" xml:space="preserve">
<g>
	<g>
		<path d="M445.3,94.7h-52V20.8c0-11.4-9.4-20.8-20.8-20.8H117.6c-11.4,0-20.8,9.4-20.8,20.8v73.9H43.7C19.8,94.7,0,114.5,0,138.4
			v306.9C0,469.2,19.8,489,43.7,489h401.6c23.9,0,43.7-19.8,43.7-43.7V138.4C489,114.5,469.2,94.7,445.3,94.7z M137.3,40.6h214.3
			v54.1H137.3V40.6z M43.7,135.3h401.6c2.1,0,3.1,1,3.1,3.1v72.8H388v-2.1c0-11.4-9.4-20.8-20.8-20.8s-20.8,9.4-20.8,20.8v2.1H142.5
			v-2.1c0-11.4-9.4-20.8-20.8-20.8s-20.8,9.4-20.8,20.8v2.1H40.6v-72.8C40.6,136.3,41.6,135.3,43.7,135.3z M445.3,448.4H43.7
			c-2.1,0-3.1-1-3.1-3.1V252.8h60.3v2.1c0,11.4,9.4,20.8,20.8,20.8s20.8-9.4,20.8-20.8v-2.1h203.9v2.1c0,11.4,9.4,20.8,20.8,20.8
			c10.4,0,19.8-9.4,20.8-20.8v-2.1h60.3v192.5C448.4,447.4,447.3,448.4,445.3,448.4z"/>
		<polygon points="260.1,297.6 227.8,297.6 227.8,340.2 187.3,340.2 187.3,369.3 227.8,369.3 227.8,412 260.1,412 260.1,369.3 
			300.7,369.3 300.7,340.2 260.1,340.2 		"/>
	</g>
</g>
<g>
</g>
<g>
</g>
<g>
</g>
<g>
</g>
<g>
</g>
<g>
</g>
<g>
</g>
<g>
</g>
<g>
</g>
<g>
</g>
<g>
</g>
<g>
</g>
<g>
</g>
<g>
</g>
<g>
</g>
</svg>
