<?xml version="1.0" encoding="iso-8859-1"?>
<!-- Generator: Adobe Illustrator 19.0.0, SVG Export Plug-In . SVG Version: 6.00 Build 0)  -->
<svg version="1.1" id="Layer_1" xmlns="http://www.w3.org/2000/svg" xmlns:xlink="http://www.w3.org/1999/xlink" x="0px" y="0px"
	 viewBox="0 0 489.901 489.901" style="enable-background:new 0 0 489.901 489.901;" xml:space="preserve">
<g>
	<g>
		<path d="M469.2,88.9h-99.9V21.3c0-11.4-9.4-20.8-20.8-20.8H140.4c-11.4,0-20.8,9.4-20.8,20.8v67.6H20.8C9.4,88.9,0,98.3,0,109.7
			v358.9c0,11.4,9.4,20.8,20.8,20.8h447.3c11.4,0,20.8-9.4,21.8-20.8V109.8C490,98.3,480.6,88.9,469.2,88.9z M160.2,41.1h168.5V89
			H160.2V41.1z M448.4,448.9H40.6V130.6h407.8V448.9z"/>
		<path d="M164.4,309.5h59.3v60.3c0,11.4,9.4,20.8,20.8,20.8c11.4,0,20.8-9.4,20.8-20.8v-60.3h59.3c11.4,0,21.8-9.4,21.8-20.8
			s-9.4-20.8-20.8-20.8h-60.3v-59.3c0-11.4-9.4-20.8-20.8-20.8c-11.4,0-20.8,9.4-20.8,20.8v59.3h-59.3c-11.4,0-20.8,9.4-20.8,20.8
			S152.9,309.5,164.4,309.5z"/>
	</g>
</g>
<g>
</g>
<g>
</g>
<g>
</g>
<g>
</g>
<g>
</g>
<g>
</g>
<g>
</g>
<g>
</g>
<g>
</g>
<g>
</g>
<g>
</g>
<g>
</g>
<g>
</g>
<g>
</g>
<g>
</g>
</svg>
