<?xml version="1.0" encoding="iso-8859-1"?>
<!-- Generator: Adobe Illustrator 19.0.0, SVG Export Plug-In . SVG Version: 6.00 Build 0)  -->
<svg version="1.1" id="Layer_1" xmlns="http://www.w3.org/2000/svg" xmlns:xlink="http://www.w3.org/1999/xlink" x="0px" y="0px"
	 viewBox="0 0 489.272 489.272" style="enable-background:new 0 0 489.272 489.272;" xml:space="preserve">
<g>
	<g>
		<path d="M468.316,340.414h-448.4c-8.3,0-15.6,5.2-18.7,13.5s0,17.7,6.2,22.9l132.1,108.2c3.1,2.1,7.3,4.2,12.5,4.2h185.2
			c5.2,0,9.4-2.1,12.5-4.2l131.1-108.2c6.2-6.2,9.4-14.6,6.2-22.9C484.916,345.614,476.616,340.414,468.316,340.414z
			 M329.916,448.614h-170.6l-82.2-66.6h335L329.916,448.614z"/>
		<path d="M482.916,205.114l-64.5-59.3l64.5-59.3c8.3-8.3,8.3-20.8,1-29.1c-8.3-8.3-20.8-8.3-29.1-1l-67.7,63.3
			c-39.9-32-87.6-52.7-139.2-60.2l25.9-24c8.3-8.3,8.3-20.8,1-29.1c-8.3-8.3-20.8-8.3-29.1-1l-55.1,51c-0.1,0.1-0.2,0.2-0.3,0.3
			c-69.7,3.1-134.1,29.7-183.9,75.6c-4.2,3.1-6.2,9.4-6.2,14.6s2.1,10.4,6.2,14.6c49.5,45.6,113.5,72.2,182.7,75.6
			c0.4,0.5,0.9,1,1.4,1.4l55.1,51c12.4,10,25,3.1,29.1-1c7.3-8.3,7.3-21.8-1-29.1l-26.9-24.8c52.6-7.4,101.6-28.5,141.5-61.2
			l66.4,62.1c12.5,10.2,25,3.1,29.1-1C491.216,225.914,491.216,212.414,482.916,205.114z M204.116,195.814
			c-56.2,0-109.2-17.7-151.9-49.9c42.7-32.3,95.7-49.9,151.9-49.9s109.2,17.7,151.9,49.9
			C313.316,178.114,260.216,195.814,204.116,195.814z"/>
	</g>
</g>
<g>
</g>
<g>
</g>
<g>
</g>
<g>
</g>
<g>
</g>
<g>
</g>
<g>
</g>
<g>
</g>
<g>
</g>
<g>
</g>
<g>
</g>
<g>
</g>
<g>
</g>
<g>
</g>
<g>
</g>
</svg>
