<?xml version="1.0" encoding="iso-8859-1"?>
<!-- Generator: Adobe Illustrator 19.0.0, SVG Export Plug-In . SVG Version: 6.00 Build 0)  -->
<svg version="1.1" id="Layer_1" xmlns="http://www.w3.org/2000/svg" xmlns:xlink="http://www.w3.org/1999/xlink" x="0px" y="0px"
	 viewBox="0 0 491.341 491.341" style="enable-background:new 0 0 491.341 491.341;" xml:space="preserve">
<g>
	<g>
		<path d="M489,461.558l-107.2-211.2c-3.1-5.2-5.2-12.5-5.2-19.8v-188.3h7.3c11.4,0,19.8-9.4,20.8-20.8c0-11.4-9.4-20.8-20.8-20.8
			H236.2c-11.4,0-20.8,9.4-20.8,20.8s9.4,20.8,20.8,20.8h8.3v188.3c0,6.2-2.1,13.5-5.2,19.8l-107.2,211.2
			c-8.4,19.3,10.4,29.7,18.7,29.1h318.3C476.5,490.658,498.5,481.958,489,461.558z M184.1,450.058l91.6-181
			c6.2-12.5,9.4-26,9.4-39.5v-187.3H335v187.3c0,13.5,3.1,27,9.4,38.5l91.5,182.1H184.1V450.058z"/>
		<path d="M173.7,296.158v-213c8.9-2.3,15.6-10.5,15.6-20.1c0-11.4-9.4-20.8-20.8-20.8H20.8c-11.4,0-20.8,9.4-20.8,20.8
			c0,10.4,7.7,19,17.7,20.5v212.5c0,42.7,34.3,77,77,77C137.3,373.058,172.7,338.758,173.7,296.158z M94.7,331.458
			c-19.8,0-36.4-16.6-36.4-36.4v-211.2h72.8v211.2C131.1,314.858,114.4,331.458,94.7,331.458z"/>
	</g>
</g>
<g>
</g>
<g>
</g>
<g>
</g>
<g>
</g>
<g>
</g>
<g>
</g>
<g>
</g>
<g>
</g>
<g>
</g>
<g>
</g>
<g>
</g>
<g>
</g>
<g>
</g>
<g>
</g>
<g>
</g>
</svg>
