<?xml version="1.0" encoding="iso-8859-1"?>
<!-- Generator: Adobe Illustrator 19.0.0, SVG Export Plug-In . SVG Version: 6.00 Build 0)  -->
<svg version="1.1" id="Layer_1" xmlns="http://www.w3.org/2000/svg" xmlns:xlink="http://www.w3.org/1999/xlink" x="0px" y="0px"
	 viewBox="0 0 490 490" style="enable-background:new 0 0 490 490;" xml:space="preserve">
<g>
	<path d="M334.5,120.7V41.6h4.2c11.4,0,20.8-9.4,20.8-20.8S350.1,0,338.7,0H151.4c-11.4,0-20.8,9.4-20.8,20.8s9.4,20.8,20.8,20.8
		h4.2v79.1C91,154,49.4,220.6,49.4,294.4C49.4,402.6,136.8,490,245,490s195.6-87.4,195.6-195.6C440.6,220.6,399,154,334.5,120.7z
		 M183.6,151.9c7.3-3.1,12.5-10.4,12.5-18.7V41.6h97.8v91.5c0,8.3,5.2,15.6,12.5,18.7c50.8,22.2,85.1,68.1,92.2,121.7H91.4
		C98.5,219.8,132.8,173.1,183.6,151.9z M245,449.4c-78.3,0-143.4-58.7-153.6-134.2h307.2C388.4,390.8,323.3,449.4,245,449.4z"/>
</g>
<g>
</g>
<g>
</g>
<g>
</g>
<g>
</g>
<g>
</g>
<g>
</g>
<g>
</g>
<g>
</g>
<g>
</g>
<g>
</g>
<g>
</g>
<g>
</g>
<g>
</g>
<g>
</g>
<g>
</g>
</svg>
