<?xml version="1.0" encoding="iso-8859-1"?>
<!-- Generator: Adobe Illustrator 19.0.0, SVG Export Plug-In . SVG Version: 6.00 Build 0)  -->
<svg version="1.1" id="Layer_1" xmlns="http://www.w3.org/2000/svg" xmlns:xlink="http://www.w3.org/1999/xlink" x="0px" y="0px"
	 viewBox="0 0 490.1 490.1" style="enable-background:new 0 0 490.1 490.1;" xml:space="preserve">
<g>
	<path d="M467.667,460.9l-130.3-269v-171c0-11.5-9.4-20.9-20.9-20.9h-142.8c-11.5,0-20.9,9.4-20.9,20.9v171l-130.3,269
		c-4.4,6.9-3.7,28,18.8,29.2h408.7C471.967,489.5,471.667,467.6,467.667,460.9z M192.467,205.5c1-3.1,2.1-6.3,2.1-9.4V40.8h102.2
		v155.3c0,3.1,1,6.3,2.1,9.4l43.6,90.2c-49.7-12.1-86.2,0.8-119.7,12c-27.2,9.4-53.1,18-87.1,14.7L192.467,205.5z M73.567,449.4
		l43.1-88.5c58.7,9.6,94.5-6.4,119.5-14.7c40-14,74.3-25.1,131.3,1.6l49.1,101.6H73.567z"/>
</g>
<g>
</g>
<g>
</g>
<g>
</g>
<g>
</g>
<g>
</g>
<g>
</g>
<g>
</g>
<g>
</g>
<g>
</g>
<g>
</g>
<g>
</g>
<g>
</g>
<g>
</g>
<g>
</g>
<g>
</g>
</svg>
