<?xml version="1.0" encoding="iso-8859-1"?>
<!-- Generator: Adobe Illustrator 19.0.0, SVG Export Plug-In . SVG Version: 6.00 Build 0)  -->
<svg version="1.1" id="Layer_1" xmlns="http://www.w3.org/2000/svg" xmlns:xlink="http://www.w3.org/1999/xlink" x="0px" y="0px"
	 viewBox="0 0 490.1 490.1" style="enable-background:new 0 0 490.1 490.1;" xml:space="preserve">
<g>
	<path d="M312.65,175.8V41.6c11.4,0,21.8-9.4,21.8-20.8S325.05,0,313.65,0h-136.2c-11.4,0-20.8,9.4-20.8,20.8s9.4,20.8,20.8,20.8
		v134.2c-67.6,27.1-112.4,92.6-112.4,166.5c0,57.2,27,109.2,72.8,143.6c4.2,3.1,8.3,4.2,12.5,4.2h189.3c4.2,0,9.4-1,12.5-4.2
		c46.9-34.4,72.9-86.4,72.9-143.6C425.05,268.4,380.25,202.9,312.65,175.8z M333.45,449.4h-175.8c-33.3-27-51-65.5-51-107.2
		c0-61.4,39.5-115.5,97.8-133.2c8.3-3.1,14.6-10.4,14.6-19.8V41.6h53v147.7c0,9.4,6.2,16.6,14.6,19.8
		c58.3,18.7,97.8,71.8,97.8,133.2C384.45,383.9,365.75,422.4,333.45,449.4z"/>
</g>
<g>
</g>
<g>
</g>
<g>
</g>
<g>
</g>
<g>
</g>
<g>
</g>
<g>
</g>
<g>
</g>
<g>
</g>
<g>
</g>
<g>
</g>
<g>
</g>
<g>
</g>
<g>
</g>
<g>
</g>
</svg>
