<?xml version="1.0" encoding="iso-8859-1"?>
<!-- Generator: Adobe Illustrator 19.0.0, SVG Export Plug-In . SVG Version: 6.00 Build 0)  -->
<svg version="1.1" id="Layer_1" xmlns="http://www.w3.org/2000/svg" xmlns:xlink="http://www.w3.org/1999/xlink" x="0px" y="0px"
	 viewBox="0 0 490.079 490.079" style="enable-background:new 0 0 490.079 490.079;" xml:space="preserve">
<g>
	<path d="M480.783,430.6l-118.9-155.4c0-1-26-27.4-24-60.5V52.1c0-29.2-22.9-52.1-52.1-52.1h-81.3c-29.2,0-52.1,22.9-52.1,52.1
		v162.6c1.3,36-24,59.4-24,60.5L9.483,430.6c-24.8,35.2,7.7,61.1,27.1,59.4h417C498.083,486.9,493.583,442.5,480.783,430.6z
		 M159.683,300.3c21.9-22.9,33.4-53.2,33.4-85.5V52.1c0-6.3,5.2-11.5,11.5-11.5h81.3c6.3,0,11.5,5.2,11.5,11.5v162.6
		c0,32.3,11.5,62.6,33.4,85.5l7.9,10.4h-187L159.683,300.3z M45.983,449.3l73.9-97h250.1l73.2,97H45.983z"/>
</g>
<g>
</g>
<g>
</g>
<g>
</g>
<g>
</g>
<g>
</g>
<g>
</g>
<g>
</g>
<g>
</g>
<g>
</g>
<g>
</g>
<g>
</g>
<g>
</g>
<g>
</g>
<g>
</g>
<g>
</g>
</svg>
