<?xml version="1.0" encoding="iso-8859-1"?>
<!-- Generator: Adobe Illustrator 19.0.0, SVG Export Plug-In . SVG Version: 6.00 Build 0)  -->
<svg version="1.1" id="Layer_1" xmlns="http://www.w3.org/2000/svg" xmlns:xlink="http://www.w3.org/1999/xlink" x="0px" y="0px"
	 viewBox="0 0 486.739 486.739" style="enable-background:new 0 0 486.739 486.739;" xml:space="preserve">
<g>
	<path d="M396.356,159.61c-20.9,0-41,8-56.8,23.2c0.7-67-26.9-117.6-70.4-128.7c-28.7-7.2-59.8,3.6-87.1,29.6
		c-1.2-19.5,1-39.1,10.6-48.2c8.3-8.3,8.3-20.7,1-28.9c-8.3-8.3-20.7-8.3-28.9-1c-17.2,16.3-22.9,40.9-23.6,64.5
		c-22.9-15.9-47.1-20.1-70.5-15.9c-24.5,4.4-96.5,46.9-61,192.3c20.5,84,76.5,141.6,129.2,141.6c18.5,0,26.9-4.1,31-6.2
		c5.2,2.1,9.3,4.1,13.4,5.2c17.8,4.5,36.5,2,54.5-6.8l77.8,96.7c11.8,16.7,29,7.3,33.1,2.1l112.7-138.5
		C514.656,278.51,479.756,159.81,396.356,159.61z M182.356,341.61c-7.2-5.2-16.5-5.2-23.8,0c-4.1,2.1-7.2,4.1-11.4,5.2
		c-31,7.2-81.9-35.6-99.2-110.6c-25.8-111.9,22.7-140.7,32-142.7c21.7-5.2,50.7,13.4,72.4,48.6c13,17.5,32,7.3,35.1,0
		c21.7-35.1,50.7-53.8,72.4-48.6c20.9,5.2,35.9,33.1,38.9,70.7c-9.1-3.7-18.7-5.6-28.6-5.6c-82.4-0.1-117,118.2-65.1,180.9l5.6,6.9
		C196.456,349.81,186.456,344.71,182.356,341.61z M429.356,314.71l-95.1,118.9l-97.2-119.9c-33.9-46.9-8.1-112.6,33.1-113.7
		c12.4-0.3,24.8,5.5,34.1,18.6c24.2,33.9,39.9,26,58.9,0c8.7-11.9,20.7-16.7,33.1-17.6
		C418.456,199.31,471.356,245.21,429.356,314.71z"/>
</g>
<g>
</g>
<g>
</g>
<g>
</g>
<g>
</g>
<g>
</g>
<g>
</g>
<g>
</g>
<g>
</g>
<g>
</g>
<g>
</g>
<g>
</g>
<g>
</g>
<g>
</g>
<g>
</g>
<g>
</g>
</svg>
