<?xml version="1.0" encoding="iso-8859-1"?>
<!-- Generator: Adobe Illustrator 19.0.0, SVG Export Plug-In . SVG Version: 6.00 Build 0)  -->
<svg version="1.1" id="Layer_1" xmlns="http://www.w3.org/2000/svg" xmlns:xlink="http://www.w3.org/1999/xlink" x="0px" y="0px"
	 viewBox="0 0 489.221 489.221" style="enable-background:new 0 0 489.221 489.221;" xml:space="preserve">
<g>
	<g>
		<path d="M178.368,277.651c-8-8-21-8-29,0l-16.2,16.2l-16.2-16.2c-8-8-21-8-29,0s-8,21,0,29l16.2,16.2l-16.2,16.2c-8,8-8,21,0,29
			c4,4,9.2,6,14.5,6c5.2,0,10.5-2,14.5-6l16.2-16.2l16.2,16.2c4,4,9.3,6,14.5,6s10.5-2,14.5-6c8-8,8-21,0-29l-16.2-16.2l16.2-16.2
			C186.368,298.651,186.368,285.651,178.368,277.651z"/>
		<path d="M443.268,41.151c-25-25-56.2-39.5-88.4-39.5c-70.2,0-109.9,63.5-110.2,63c-0.3,0.5-39.3-63-110.2-63
			c-32.3,0-63.5,14.6-88.4,39.5c-30.3,31.2-48,77-45.9,125.9c0.6,26.4,9.4,54.2,23.4,82c-14.7,21.4-23.3,47.3-23.3,75.1
			c0,73.3,59.7,133,133,133c19.7,0,38.4-4.3,55.3-12c25.7,22.8,44.2,37.3,46.8,39.3c8,6.2,17.1,1.5,18.6,0
			c9.4-7.3,232-181,235.1-317.3C491.068,118.151,473.368,72.351,443.268,41.151z M41.168,324.151c0-50.7,41.3-92,92-92
			s92,41.3,92,92s-41.3,92-92,92S41.168,374.851,41.168,324.151z M448.468,166.051c-3.1,89.6-136.6,217.8-203.9,273.9
			c-6.5-5.4-13.6-11.5-21.2-18.2c26.3-24.3,42.8-59.1,42.8-97.6c0-73.3-59.7-133-133-133c-29.7,0-57.1,9.8-79.3,26.3
			c-7.8-18-12.6-35.3-13.2-51.4c-1-37.5,11.4-71.8,34.3-95.7c16.6-17.7,37.5-27,59.3-27c0,0,63.3-3.6,90.5,80.1
			c2.1,8.3,10.4,14.5,19.7,14.6c9.3,0,17.6-6.3,19.7-14.6c27.2-83.7,90.5-80.1,90.5-80.1c21.8,0,42.7,9.4,59.3,27
			C436.968,94.251,449.468,128.551,448.468,166.051z"/>
	</g>
</g>
<g>
</g>
<g>
</g>
<g>
</g>
<g>
</g>
<g>
</g>
<g>
</g>
<g>
</g>
<g>
</g>
<g>
</g>
<g>
</g>
<g>
</g>
<g>
</g>
<g>
</g>
<g>
</g>
<g>
</g>
</svg>
