<?xml version="1.0" encoding="iso-8859-1"?>
<!-- Generator: Adobe Illustrator 19.0.0, SVG Export Plug-In . SVG Version: 6.00 Build 0)  -->
<svg version="1.1" id="Layer_1" xmlns="http://www.w3.org/2000/svg" xmlns:xlink="http://www.w3.org/1999/xlink" x="0px" y="0px"
	 viewBox="0 0 489 489" style="enable-background:new 0 0 489 489;" xml:space="preserve">
<g>
	<path d="M446.925,248.7c44.1-58.3,41.5-147.3-6.8-202.9c-26-30.2-60.3-45.8-96.8-45.8c-37.5,0-70.7,16.6-96.8,45.8l-7.3,8.3
		l-7.3-8.3c-26-30.2-60.3-45.8-96.8-45.8c-36.4,0-70.7,15.6-96.8,44.7c-51,58.3-51,154,0,212.2l184.3,211.4c11,15.1,28.6,6,31.2,1
		l41.7-47.5c17.4,39.9,51.2,67.2,90.4,67.2c56.2,0,103-58.3,103-129C488.925,326.3,468.225,283.7,446.925,248.7z M283.025,360.1
		c0,4.4,0.2,8.7,0.5,13c-0.2,0.2-45.3,51.5-45.3,51.5l-169.5-193.5c-38.5-43.7-38.5-114.4,0-158.1c17.7-19.8,40.6-31.2,65.5-31.2
		c25,0,47.9,11.4,65.5,31.2l21.8,23.9c11.2,14,27,8.3,32.3,2.1l23.9-28.1c17.7-19.8,40.6-31.2,65.5-31.2c25,0,47.9,11.4,65.5,31.2
		c32.9,38.5,37.8,96.5,13.1,140.4c-10-14-17.8-23.8-20.4-27c-3.5-5.1-19.4-13.8-31.2,0C360.725,195.5,283.025,294.5,283.025,360.1z
		 M386.025,447.5c-33.3,0-62.4-40.6-62.4-88.4c0-34.3,36.4-93.6,62.4-129c25,36.4,62.4,94.7,62.4,129
		C448.425,406.9,420.325,447.5,386.025,447.5z"/>
</g>
<g>
</g>
<g>
</g>
<g>
</g>
<g>
</g>
<g>
</g>
<g>
</g>
<g>
</g>
<g>
</g>
<g>
</g>
<g>
</g>
<g>
</g>
<g>
</g>
<g>
</g>
<g>
</g>
<g>
</g>
</svg>
