<?xml version="1.0" encoding="iso-8859-1"?>
<!-- Generator: Adobe Illustrator 19.0.0, SVG Export Plug-In . SVG Version: 6.00 Build 0)  -->
<svg version="1.1" id="Layer_1" xmlns="http://www.w3.org/2000/svg" xmlns:xlink="http://www.w3.org/1999/xlink" x="0px" y="0px"
	 viewBox="0 0 490 490" style="enable-background:new 0 0 490 490;" xml:space="preserve">
<g>
	<g>
		<g>
			<g>
				<path d="M383.7,490H106.3C48,490,0,442,0,383.7V106.3C0,48,48,0,106.3,0h277.3C442,0,490,48,490,106.3v277.3
					C490,442,442,490,383.7,490z M106.3,40.7c-36.5,0-65.7,29.2-65.7,65.7v277.3c0,36.5,29.2,65.7,65.7,65.7h277.3
					c36.5,0,65.7-29.2,65.7-65.7V106.3c0-36.5-29.2-65.7-65.7-65.7L106.3,40.7z"/>
			</g>
			<g>
				<g>
					<path d="M216.9,363.9v-62.6c0-15.6-12.5-28.1-28.1-28.1h-62.6C96.4,270.9,98.1,243,98.1,243c0-15.6,12.5-28.1,28.1-28.1h62.6
						c15.6,0,28.1-12.5,28.1-28.1v-60.5c0-15.6,12.5-28.1,28.1-28.1l0,0c15.6,0,28.1,12.5,28.1,28.1v60.5
						c0,15.6,12.5,28.1,28.1,28.1h62.6C393.2,216.3,392,245,392,245c0,15.6-12.5,28.1-28.1,28.1h-62.6c-15.6,0-28.1,12.5-28.1,28.1
						v62.6c0,15.6-12.5,28.1-28.1,28.1l0,0C229.4,392,216.9,379.5,216.9,363.9z"/>
				</g>
			</g>
		</g>
	</g>
</g>
<g>
</g>
<g>
</g>
<g>
</g>
<g>
</g>
<g>
</g>
<g>
</g>
<g>
</g>
<g>
</g>
<g>
</g>
<g>
</g>
<g>
</g>
<g>
</g>
<g>
</g>
<g>
</g>
<g>
</g>
</svg>
