<?xml version="1.0" encoding="iso-8859-1"?>
<!-- Generator: Adobe Illustrator 19.0.0, SVG Export Plug-In . SVG Version: 6.00 Build 0)  -->
<svg version="1.1" id="Layer_1" xmlns="http://www.w3.org/2000/svg" xmlns:xlink="http://www.w3.org/1999/xlink" x="0px" y="0px"
	 viewBox="0 0 490.163 490.163" style="enable-background:new 0 0 490.163 490.163;" xml:space="preserve">
<g>
	<g>
		<g>
			<g>
				<path d="M457.798,486.9c-62.4-38.5-132.1-58.3-204.9-58.3c-125.9,0-220.6,57.2-221.6,58.3c-6.2,5-28.8,6.3-31.2-17.7V103
					c0-56.2,41.6-103,93.6-103h302.7c52,0,93.6,45.8,93.6,103v366.2C491.198,481.2,476.198,497.1,457.798,486.9z M92.698,41.6
					c-29.1,0-53.1,28.1-53.1,61.4v332.9c40.6-18.7,118.6-47.9,212.3-47.9c68.7,0,134.2,15.6,195.6,46.8V103
					c0-34.3-23.9-61.4-53.1-61.4H92.698z"/>
			</g>
			<g>
				<g>
					<path d="M226.898,312.1v-69.7h-69.7v-34.3h69.7v-68.7h33.3v68.7h69.7v34.3h-69.7v69.7H226.898z"/>
				</g>
			</g>
		</g>
	</g>
</g>
<g>
</g>
<g>
</g>
<g>
</g>
<g>
</g>
<g>
</g>
<g>
</g>
<g>
</g>
<g>
</g>
<g>
</g>
<g>
</g>
<g>
</g>
<g>
</g>
<g>
</g>
<g>
</g>
<g>
</g>
</svg>
