<?xml version="1.0" encoding="iso-8859-1"?>
<!-- Generator: Adobe Illustrator 19.0.0, SVG Export Plug-In . SVG Version: 6.00 Build 0)  -->
<svg version="1.1" id="Layer_1" xmlns="http://www.w3.org/2000/svg" xmlns:xlink="http://www.w3.org/1999/xlink" x="0px" y="0px"
	 viewBox="0 0 489.901 489.901" style="enable-background:new 0 0 489.901 489.901;" xml:space="preserve">
<g>
	<g>
		<path d="M469.2,51.45h-71.8v-30.2c0-11.4-9.4-20.8-20.8-20.8s-20.8,9.4-20.8,20.8v30.2H133.1v-30.2c0-11.4-9.4-20.8-20.8-20.8
			s-20.8,9.4-20.8,20.8v30.2H20.8C9.4,51.45,0,60.85,0,72.25v396.4c0,11.4,9.4,20.8,20.8,20.8h447.3c11.4,0,20.8-9.4,21.8-19.8
			V72.25C490,60.85,480.6,51.45,469.2,51.45z M448.4,448.85H40.6V92.05h51v31.2c0,11.4,9.4,20.8,20.8,20.8s19.8-9.4,20.8-20.8v-31.2
			h222.6v31.2c0,11.4,9.4,20.8,20.8,20.8s20.8-9.4,20.8-20.8v-31.2h51L448.4,448.85L448.4,448.85z"/>
		<path d="M315.2,258.45h-49.9v-48.9c0-11.4-9.4-20.8-20.8-20.8s-20.8,9.4-20.8,20.8v48.9h-49.9c-11.4,0-20.8,9.4-20.8,20.8
			s9.4,20.8,20.8,20.8h49.9v49.9c0,11.4,9.4,20.8,20.8,20.8s20.8-9.4,20.8-19.8v-51h49.9c11.4,0,20.8-9.4,20.8-20.8
			C336,267.85,326.6,258.45,315.2,258.45z"/>
	</g>
</g>
<g>
</g>
<g>
</g>
<g>
</g>
<g>
</g>
<g>
</g>
<g>
</g>
<g>
</g>
<g>
</g>
<g>
</g>
<g>
</g>
<g>
</g>
<g>
</g>
<g>
</g>
<g>
</g>
<g>
</g>
</svg>
