<?xml version="1.0" encoding="iso-8859-1"?>
<!-- Generator: Adobe Illustrator 19.0.0, SVG Export Plug-In . SVG Version: 6.00 Build 0)  -->
<svg version="1.1" id="Layer_1" xmlns="http://www.w3.org/2000/svg" xmlns:xlink="http://www.w3.org/1999/xlink" x="0px" y="0px"
	 viewBox="0 0 490 490" style="enable-background:new 0 0 490 490;" xml:space="preserve">
<g>
	<g>
		<path d="M469.2,62.4c-11.4,0-20.8,9.4-20.8,20.8v135.2H41.6V20.8C41.6,9.4,32.2,0,20.8,0S0,9.4,0,20.8v448.4
			C0,480.6,9.4,490,20.8,490s19.8-9.4,20.8-20.8v-92.6h406.8v92.6c0,11.4,9.4,20.8,20.8,20.8c10.4,0,19.8-9.4,20.8-20.8v-386
			C490,71.8,480.6,62.4,469.2,62.4z M41.6,336v-75.9h406.8V336H41.6z"/>
		<path d="M131.1,193.5c20.5,0,38.2-14,44.4-33.4c3.8,4.5,9.5,7.4,15.9,7.4h199.7c11.4,0,19.8-9.4,20.8-20.8
			c0-11.4-9.4-20.8-20.8-20.8H191.4c-6.2,0-11.7,2.7-15.6,7.1c-5.8-19.2-23.6-33.1-44.8-33.1c-26,0-46.8,20.8-46.8,46.8
			C84.3,172.7,105.1,193.5,131.1,193.5z M131.1,141.5c3.1,0,5.2,3.1,6.2,6.2c0,4.2-3.1,6.2-6.2,6.2c-4.2,0-6.2-3.1-6.2-6.2
			C124.8,143.6,128,141.5,131.1,141.5z"/>
	</g>
</g>
<g>
</g>
<g>
</g>
<g>
</g>
<g>
</g>
<g>
</g>
<g>
</g>
<g>
</g>
<g>
</g>
<g>
</g>
<g>
</g>
<g>
</g>
<g>
</g>
<g>
</g>
<g>
</g>
<g>
</g>
</svg>
