<?xml version="1.0" encoding="iso-8859-1"?>
<!-- Generator: Adobe Illustrator 19.0.0, SVG Export Plug-In . SVG Version: 6.00 Build 0)  -->
<svg version="1.1" id="Layer_1" xmlns="http://www.w3.org/2000/svg" xmlns:xlink="http://www.w3.org/1999/xlink" x="0px" y="0px"
	 viewBox="0 0 490 490" style="enable-background:new 0 0 490 490;" xml:space="preserve">
<g>
	<g>
		<polygon points="324.6,228.45 253.8,228.45 253.8,168.05 229.9,168.05 229.9,306.45 229.9,307.45 253.8,307.45 253.8,250.25 
			324.6,250.25 324.6,307.45 348.5,307.45 348.5,168.05 324.6,168.05 		"/>
		<path d="M469.2,0.55H20.8C9.4,0.55,0,9.95,0,21.35v447.3c0,11.4,9.4,20.8,20.8,20.8c10.4,0,19.8-9.4,19.8-19.8V42.15h161.3v50.1
			c-37,10.4-63.5,44.4-63.5,84.1v120.7c0,48.9,39.5,87.4,87.4,87.4h126.9c47.9,0,86.3-38.5,87.4-86.3v-121.8
			c0-40.4-27-73.8-63.5-84.1v-50.1h92.6c11.4,0,20.8-9.4,20.8-20.8C490,9.95,480.6,0.55,469.2,0.55z M398.5,176.35v120.7
			c0,25-20.8,45.8-45.8,45.8H225.8c-25,0-45.8-20.8-45.8-45.8v-121.7c0-25,20.8-45.8,45.8-45.8h126.9
			C377.6,129.55,398.5,151.45,398.5,176.35z M335,88.95h-91.5v-46.8H335V88.95z"/>
	</g>
</g>
<g>
</g>
<g>
</g>
<g>
</g>
<g>
</g>
<g>
</g>
<g>
</g>
<g>
</g>
<g>
</g>
<g>
</g>
<g>
</g>
<g>
</g>
<g>
</g>
<g>
</g>
<g>
</g>
<g>
</g>
</svg>
