<?xml version="1.0" encoding="iso-8859-1"?>
<!-- Generator: Adobe Illustrator 19.0.0, SVG Export Plug-In . SVG Version: 6.00 Build 0)  -->
<svg version="1.1" id="Layer_1" xmlns="http://www.w3.org/2000/svg" xmlns:xlink="http://www.w3.org/1999/xlink" x="0px" y="0px"
	 viewBox="0 0 490.224 490.224" style="enable-background:new 0 0 490.224 490.224;" xml:space="preserve">
<g>
	<g>
		<path d="M482.174,185.037l-223.7-180c-8.3-6.2-18.7-6.2-26,0l-224.7,180c-8.3,7.3-10.9,21.3-3.1,29.1c17.6,17.7,35.4-1.9,35.4-1.9
			v256.8c0,11.4,9.4,20.8,20.8,20.8h368.3c10.4,0,19.8-9.4,20.8-19.8v-257.7c0,0,18,19.2,35.4,1.9
			C493.674,205.837,490.474,192.337,482.174,185.037z M408.274,449.337h-326.6v-270.5l163.3-131.1l163.3,131.1V449.337z"/>
		<path d="M228.374,213.137v61.4h-61.4c-9.2,0-16.6,7.5-16.6,16.6l0,0c0,9.2,7.5,16.6,16.6,16.6h61.4v62.4c0,9.2,7.5,16.6,16.6,16.6
			s16.6-7.5,16.6-16.6v-62.4h61.4c9.2,0,16.6-7.5,16.6-16.6l0,0c0-9.2-7.5-16.6-16.6-16.6h-61.4v-61.4c0-9.2-7.5-16.6-16.6-16.6
			S228.374,203.937,228.374,213.137z"/>
	</g>
</g>
<g>
</g>
<g>
</g>
<g>
</g>
<g>
</g>
<g>
</g>
<g>
</g>
<g>
</g>
<g>
</g>
<g>
</g>
<g>
</g>
<g>
</g>
<g>
</g>
<g>
</g>
<g>
</g>
<g>
</g>
</svg>
