<?xml version="1.0" encoding="iso-8859-1"?>
<!-- Generator: Adobe Illustrator 19.0.0, SVG Export Plug-In . SVG Version: 6.00 Build 0)  -->
<svg version="1.1" id="Layer_1" xmlns="http://www.w3.org/2000/svg" xmlns:xlink="http://www.w3.org/1999/xlink" x="0px" y="0px"
	 viewBox="0 0 489.961 489.961" style="enable-background:new 0 0 489.961 489.961;" xml:space="preserve">
<g>
	<path d="M316.161,178.756c-8,0-14.5,6.5-14.5,14.5v77.9h-113.3v-77.9c0-8-6.5-14.5-14.5-14.5s-14.5,6.5-14.5,14.5v197.4
		c0,8,6.5,14.5,14.5,14.5s14.5-6.5,14.5-14.5v-92.5h113.3v92.5c0,8,6.5,14.5,14.5,14.5s14.5-6.5,14.5-14.5v-197.4
		C330.661,185.256,324.161,178.756,316.161,178.756z"/>
	<path d="M482.361,184.956l-224.4-179.8c-8.3-6.2-18.7-6.2-26,0l-224.4,179.8c-8.3,7.3-10.4,20.8-3.1,29.1s19.7,10.4,28.1,3.1
		l32.2-25.9v277.4c0,11.4,9.4,20.8,20.8,20.8h318c11.4,0,20.8-8.3,21.8-19.7v-277.7l31.2,25.1c3.1,3.8,17.2,8.8,29.1-3.1
		C492.761,204.656,490.661,192.256,482.361,184.956z M383.661,448.856h-277.4v-285.7c0-1.7,138.2-116.4,138.2-116.4
		s139.2,115,139.2,116.4V448.856z"/>
</g>
<g>
</g>
<g>
</g>
<g>
</g>
<g>
</g>
<g>
</g>
<g>
</g>
<g>
</g>
<g>
</g>
<g>
</g>
<g>
</g>
<g>
</g>
<g>
</g>
<g>
</g>
<g>
</g>
<g>
</g>
</svg>
