<?xml version="1.0" encoding="iso-8859-1"?>
<!-- Generator: Adobe Illustrator 19.0.0, SVG Export Plug-In . SVG Version: 6.00 Build 0)  -->
<svg version="1.1" id="Layer_1" xmlns="http://www.w3.org/2000/svg" xmlns:xlink="http://www.w3.org/1999/xlink" x="0px" y="0px"
	 viewBox="0 0 490.1 490.1" style="enable-background:new 0 0 490.1 490.1;" xml:space="preserve">
<g>
	<g>
		<path d="M469.2,0.55H20.8C9.3,0.55,0,9.95,0,21.35v447.4c0,11.4,9.3,20.8,20.8,20.8h448.5c11.4,0,19.7-8.3,20.8-19.7V21.35
			C490,9.95,480.7,0.55,469.2,0.55z M448.5,449.05h-407v-407h406.9v407H448.5z"/>
		<path d="M135,266.35h89.3v89.3c0,11.4,9.3,20.8,20.8,20.8s20.8-9.3,20.8-19.7v-90.3H355c11.4,0,20.8-9.3,21.8-20.8
			c0-11.4-9.3-20.8-20.8-20.8h-90.3v-89.3c0-11.4-9.3-20.8-20.8-20.8s-20.8,9.3-20.8,20.8v89.3H135c-11.4,0-20.8,9.3-20.8,20.8
			C114.2,257.15,123.5,266.35,135,266.35z"/>
	</g>
</g>
<g>
</g>
<g>
</g>
<g>
</g>
<g>
</g>
<g>
</g>
<g>
</g>
<g>
</g>
<g>
</g>
<g>
</g>
<g>
</g>
<g>
</g>
<g>
</g>
<g>
</g>
<g>
</g>
<g>
</g>
</svg>
