<?xml version="1.0" encoding="iso-8859-1"?>
<!-- Generator: Adobe Illustrator 19.0.0, SVG Export Plug-In . SVG Version: 6.00 Build 0)  -->
<svg version="1.1" id="Layer_1" xmlns="http://www.w3.org/2000/svg" xmlns:xlink="http://www.w3.org/1999/xlink" x="0px" y="0px"
	 viewBox="0 0 489 489" style="enable-background:new 0 0 489 489;" xml:space="preserve">
<g>
	<g>
		<path d="M352.7,0H136.3C61.4,0,0,61.4,0,136.3v216.4C0,427.6,61.4,489,136.3,489h216.4c74.9,0,136.3-61.4,136.3-136.3V136.3
			C489,61.4,427.6,0,352.7,0z M448.4,352.7c0,53.1-42.7,95.7-95.7,95.7H136.3c-53.1,0-95.7-42.7-95.7-95.7V136.3
			c0-53.1,42.7-95.7,95.7-95.7h216.4c53.1,0,95.7,42.7,95.7,95.7L448.4,352.7L448.4,352.7z"/>
		<path d="M356.9,223.7h-91.5v-91.5c0-11.4-9.4-20.8-20.8-20.8s-20.8,9.4-20.8,20.8v91.5h-91.5c-11.4,0-20.8,9.4-20.8,20.8
			c0,11.4,9.4,20.8,20.8,20.8h91.5v91.5c0,11.4,9.4,20.8,20.8,20.8c11.4,0,20.8-9.4,20.8-20.8v-91.5h91.5c11.4,0,20.8-9.4,20.8-20.8
			S368.3,223.7,356.9,223.7z"/>
	</g>
</g>
<g>
</g>
<g>
</g>
<g>
</g>
<g>
</g>
<g>
</g>
<g>
</g>
<g>
</g>
<g>
</g>
<g>
</g>
<g>
</g>
<g>
</g>
<g>
</g>
<g>
</g>
<g>
</g>
<g>
</g>
</svg>
