<?xml version="1.0" encoding="iso-8859-1"?>
<!-- Generator: Adobe Illustrator 19.0.0, SVG Export Plug-In . SVG Version: 6.00 Build 0)  -->
<svg version="1.1" id="Layer_1" xmlns="http://www.w3.org/2000/svg" xmlns:xlink="http://www.w3.org/1999/xlink" x="0px" y="0px"
	 viewBox="0 0 488.575 488.575" style="enable-background:new 0 0 488.575 488.575;" xml:space="preserve">
<g>
	<path d="M480.7,73.475c-8.3-7.3-20.8-6.2-28.1,3.1l-36.4,44.7c-6.2,6.2-14.6,9.4-22.9,9.4H20.8c-11.4,0-20.8,9.4-20.8,20.8
		c0,11.4,9.4,20.8,20.8,20.8H77v126.4c-24.2,8.6-41.6,31.8-41.6,58.8c0,34.3,28.1,62.4,62.4,62.4s62.4-28.1,62.4-62.4
		c0-27-17.4-50.2-41.6-58.8v-126.4h222.7v126.4c-24.2,8.6-41.6,31.8-41.6,58.8c0,34.3,28.1,62.4,62.4,62.4
		c35.4,0,63.5-28.1,62.4-62.4c0-27-17.4-50.2-41.6-58.8v-126.4h10.4c19.8,0,38.5-7.3,51-20.8c1-1,39.5-49.9,39.5-49.9
		C491.1,93.175,490,80.775,480.7,73.475z M97.8,378.275c-11.4,0-21.8-9.4-21.8-21.8c0-11.4,9.4-21.8,21.8-21.8
		c12.5,0,21.8,10.4,21.8,21.8C119.7,367.875,110.3,378.275,97.8,378.275z M383.9,356.375c0,11.4-9.4,21.8-21.8,21.8
		c-11.4,0-21.8-9.4-21.8-21.8c0-11.4,9.4-21.8,21.8-21.8C374.6,334.575,385,344.975,383.9,356.375z"/>
</g>
<g>
</g>
<g>
</g>
<g>
</g>
<g>
</g>
<g>
</g>
<g>
</g>
<g>
</g>
<g>
</g>
<g>
</g>
<g>
</g>
<g>
</g>
<g>
</g>
<g>
</g>
<g>
</g>
<g>
</g>
</svg>
