<?xml version="1.0" encoding="iso-8859-1"?>
<!-- Generator: Adobe Illustrator 19.0.0, SVG Export Plug-In . SVG Version: 6.00 Build 0)  -->
<svg version="1.1" id="Layer_1" xmlns="http://www.w3.org/2000/svg" xmlns:xlink="http://www.w3.org/1999/xlink" x="0px" y="0px"
	 viewBox="0 0 490 490" style="enable-background:new 0 0 490 490;" xml:space="preserve">
<g>
	<g>
		<g>
			<g>
				<path d="M468.2,489.5H20.8C9.4,489.5,0,480.1,0,468.7V21.3C0,9.9,9.4,0.5,20.8,0.5h448.4c11.4,0,20.8,9.4,20.8,20.8v448.4
					C489,480.1,479.6,489.5,468.2,489.5z M40.6,448.9h407.8V41.1H40.6V448.9z"/>
			</g>
			<path d="M343.8,92.1L343.8,92.1c-11.2,0-20.3,9.1-20.3,20.3V218H164.4V112.4c0-11.2-9.1-20.3-20.3-20.3l0,0
				c-11.2,0-20.3,9.1-20.3,20.3v265.3c0,11.2,9.1,20.3,20.3,20.3l0,0c11.2,0,20.3-9.1,20.3-20.3V253.3h159.2v125.4
				c0,11.2,9.1,20.3,20.3,20.3c11.2,0,20.3-9.1,20.3-20.3V112.4C364.1,101.2,355,92.1,343.8,92.1z"/>
		</g>
	</g>
</g>
<g>
</g>
<g>
</g>
<g>
</g>
<g>
</g>
<g>
</g>
<g>
</g>
<g>
</g>
<g>
</g>
<g>
</g>
<g>
</g>
<g>
</g>
<g>
</g>
<g>
</g>
<g>
</g>
<g>
</g>
</svg>
