<?xml version="1.0" encoding="iso-8859-1"?>
<!-- Generator: Adobe Illustrator 19.0.0, SVG Export Plug-In . SVG Version: 6.00 Build 0)  -->
<svg version="1.1" id="Layer_1" xmlns="http://www.w3.org/2000/svg" xmlns:xlink="http://www.w3.org/1999/xlink" x="0px" y="0px"
	 viewBox="0 0 489.761 489.761" style="enable-background:new 0 0 489.761 489.761;" xml:space="preserve">
<g>
	<path d="M484.994,313.577l-77-93.6c-4.2-4.2-9.4-7.3-15.6-7.3h-42.7v-83.2c0-11.4-9.4-20.8-20.8-20.8h-107.1
		c-11.4,0-20.8,9.4-20.8,20.8c0,11.4,9.4,20.8,20.8,20.8h86.3v62.4h-176.8l-93.7-152.9c-5.2-9.4-17.7-12.5-28.1-6.2
		c-9.4,5.2-12.5,17.7-6.2,27l98.8,163.3c4.2,5.2,10.4,9.4,17.7,9.4h131.1v144.6h-64.5c-11.4,0-20.8,9.4-20.8,20.8
		s9.4,20.8,20.8,20.8h170.6c11.4,0,20.8-8.3,20.8-20.8c0-11.4-9.4-20.8-20.8-20.8h-64.5v-144.6h89.5l70.7,86.3
		c4.2,5.2,14,11.4,29.1,3.1C491.194,335.477,492.294,321.877,484.994,313.577z"/>
</g>
<g>
</g>
<g>
</g>
<g>
</g>
<g>
</g>
<g>
</g>
<g>
</g>
<g>
</g>
<g>
</g>
<g>
</g>
<g>
</g>
<g>
</g>
<g>
</g>
<g>
</g>
<g>
</g>
<g>
</g>
</svg>
