<?xml version="1.0" encoding="iso-8859-1"?>
<!-- Generator: Adobe Illustrator 19.0.0, SVG Export Plug-In . SVG Version: 6.00 Build 0)  -->
<svg version="1.1" id="Layer_1" xmlns="http://www.w3.org/2000/svg" xmlns:xlink="http://www.w3.org/1999/xlink" x="0px" y="0px"
	 viewBox="0 0 490 490" style="enable-background:new 0 0 490 490;" xml:space="preserve">
<g>
	<g>
		<g>
			<g>
				<path d="M353.4,490H136.6C61.5,490,0,428.5,0,353.4V136.6C0,61.5,61.5,0,136.6,0h216.9C428.5,0,490,61.5,490,136.6v216.9
					C490,428.5,428.5,490,353.4,490z M136.6,40.7c-53.2,0-95.9,42.7-95.9,95.9v216.9c0,53.2,42.7,95.9,95.9,95.9h216.9
					c53.2,0,95.9-42.7,95.9-95.9V136.6c0-53.2-42.7-95.9-95.9-95.9L136.6,40.7z"/>
			</g>
			<g>
				<g>
					<path d="M142.8,367V123h41.7v106.3h122V123h41.7v245h-41.7V267.9h-122V368h-41.7V367z"/>
				</g>
			</g>
		</g>
	</g>
</g>
<g>
</g>
<g>
</g>
<g>
</g>
<g>
</g>
<g>
</g>
<g>
</g>
<g>
</g>
<g>
</g>
<g>
</g>
<g>
</g>
<g>
</g>
<g>
</g>
<g>
</g>
<g>
</g>
<g>
</g>
</svg>
