<?xml version="1.0" encoding="iso-8859-1"?>
<!-- Generator: Adobe Illustrator 19.0.0, SVG Export Plug-In . SVG Version: 6.00 Build 0)  -->
<svg version="1.1" id="Layer_1" xmlns="http://www.w3.org/2000/svg" xmlns:xlink="http://www.w3.org/1999/xlink" x="0px" y="0px"
	 viewBox="0 0 489 489" style="enable-background:new 0 0 489 489;" xml:space="preserve">
<g>
	<g>
		<path d="M440.1,72.8h-91.6v-52c0-11.4-9.4-20.8-20.8-20.8H161.3c-11.4,0-20.8,9.4-20.8,20.8v53.1H48.9C21.9,73.9,0,95.7,0,122.8
			v345.4C0,479.6,9.4,489,20.8,489h157.1c11.4,0,20.8-9.4,20.8-20.8V352.7c0-2.1,2.1-4.2,4.2-4.2h82.2c2.1,0,4.2,2.1,4.2,4.2v115.5
			c0,11.4,9.4,20.8,20.8,20.8h158.1c11.4,0,20.8-9.4,20.8-20.8V121.7C489,94.7,467.1,72.8,440.1,72.8z M182.1,40.6h124.8v97.8H182.1
			V40.6z M448.4,449.4H330.8v-95.7c0-25-19.8-44.7-44.7-44.7h-83.2c-25,0-44.7,19.8-44.7,44.7v95.7H40.6V123.8
			c0-4.2,4.2-8.3,8.3-8.3h91.6v42.7c0,11.4,9.4,20.8,20.8,20.8h166.5c11.4,0,19.8-8.3,20.8-19.8v-44.7h91.5c4.2,0,8.3,4.2,8.3,8.3
			L448.4,449.4L448.4,449.4z"/>
		<polygon points="257,84.3 232,84.3 232,57.2 217.5,57.2 217.5,121.7 232,121.7 232,96.8 257,96.8 257,121.7 271.5,121.7 
			271.5,57.2 257,57.2 		"/>
	</g>
</g>
<g>
</g>
<g>
</g>
<g>
</g>
<g>
</g>
<g>
</g>
<g>
</g>
<g>
</g>
<g>
</g>
<g>
</g>
<g>
</g>
<g>
</g>
<g>
</g>
<g>
</g>
<g>
</g>
<g>
</g>
</svg>
