<?xml version="1.0" encoding="iso-8859-1"?>
<!-- Generator: Adobe Illustrator 19.0.0, SVG Export Plug-In . SVG Version: 6.00 Build 0)  -->
<svg version="1.1" id="Layer_1" xmlns="http://www.w3.org/2000/svg" xmlns:xlink="http://www.w3.org/1999/xlink" x="0px" y="0px"
	 viewBox="0 0 490.038 490.038" style="enable-background:new 0 0 490.038 490.038;" xml:space="preserve">
<g>
	<path d="M483.825,49.281c-8.3-8.3-20.8-8.3-29.1,0l-26,26h-364.3l-29.1-29.1c-8.3-8.3-20.8-8.3-29.1,0s-8.3,20.8,0,29.1l35.3,35.3
		c4.2,4.2,9.3,6.2,14.5,6.2h53l108.7,108.7l-104.6,104.2c-32.4,1-58.4,27.6-58.4,60.2c0,33.2,27,60.2,60.2,60.2s60.2-27,60.2-60.2
		c0-17.6-7.6-33.4-19.6-44.4l91.2-90.8l90.8,90.8c-12,11-19.6,26.9-19.6,44.4c0,33.2,27,60.2,60.2,60.2c32.2,0,60.2-27,60.2-60.2
		c0-32.6-26-59.2-58.4-60.2l-104-104.1l109.2-108.8h51.9c5.2,0,10.4-2.1,14.5-6.2l32.2-32.2
		C492.125,70.081,492.125,57.581,483.825,49.281z M115.025,410.581c-11.4,0-19.7-9.3-19.7-19.7c0-11.4,9.3-19.7,19.7-19.7
		s18.7,8.3,19.7,19.7C134.725,402.281,125.325,410.581,115.025,410.581z M378.225,410.581c-11.4,0-19.7-9.3-19.7-19.7
		c0-11.4,9.3-19.7,19.7-19.7s18.7,8.3,19.7,19.7C397.925,402.281,388.625,410.581,378.225,410.581z M246.825,196.481l-79.7-79.7
		h159.7L246.825,196.481z"/>
</g>
<g>
</g>
<g>
</g>
<g>
</g>
<g>
</g>
<g>
</g>
<g>
</g>
<g>
</g>
<g>
</g>
<g>
</g>
<g>
</g>
<g>
</g>
<g>
</g>
<g>
</g>
<g>
</g>
<g>
</g>
</svg>
