<?xml version="1.0" encoding="iso-8859-1"?>
<!-- Generator: Adobe Illustrator 19.0.0, SVG Export Plug-In . SVG Version: 6.00 Build 0)  -->
<svg version="1.1" id="Layer_1" xmlns="http://www.w3.org/2000/svg" xmlns:xlink="http://www.w3.org/1999/xlink" x="0px" y="0px"
	 viewBox="0 0 490.1 490.1" style="enable-background:new 0 0 490.1 490.1;" xml:space="preserve">
<g>
	<g>
		<g>
			<path d="M469.2,114.75h-99.7v-72.7h8.3c11.4,0,20.8-9.3,20.8-20.8s-9.3-20.8-20.8-20.8H110c-11.4,0-20.8,9.3-20.8,20.8
				s9.4,20.8,20.8,20.8h9.3v72.7H20.8c-11.4,0-20.8,9.3-20.8,20.8c0,11.4,9.3,20.8,20.8,20.8H27v312.5c0,11.4,9.3,20.8,20.8,20.8
				h394.5c11.4,0,20.8-8.3,20.8-19.7v-313.7h6.2c11.4,0,20.8-9.3,20.8-20.8C490,124.15,480.7,114.75,469.2,114.75z M159.9,42.05
				h168.2v72.7H159.9V42.05z M421.5,449.05h-354v-292.8h354V449.05z"/>
		</g>
		<path d="M316.2,191.85c-8,0-14.5,6.5-14.5,14.5v77.9H188.4v-77.9c0-8-6.5-14.5-14.5-14.5s-14.5,6.5-14.5,14.5v197.4
			c0,8,6.5,14.5,14.5,14.5s14.5-6.5,14.5-14.5v-92.5h113.3v92.5c0,8,6.5,14.5,14.5,14.5s14.5-6.5,14.5-14.5v-197.4
			C330.7,198.35,324.2,191.85,316.2,191.85z"/>
	</g>
</g>
<g>
</g>
<g>
</g>
<g>
</g>
<g>
</g>
<g>
</g>
<g>
</g>
<g>
</g>
<g>
</g>
<g>
</g>
<g>
</g>
<g>
</g>
<g>
</g>
<g>
</g>
<g>
</g>
<g>
</g>
</svg>
