<?xml version="1.0" encoding="iso-8859-1"?>
<!-- Generator: Adobe Illustrator 19.0.0, SVG Export Plug-In . SVG Version: 6.00 Build 0)  -->
<svg version="1.1" id="Layer_1" xmlns="http://www.w3.org/2000/svg" xmlns:xlink="http://www.w3.org/1999/xlink" x="0px" y="0px"
	 viewBox="0 0 490.2 490.2" style="enable-background:new 0 0 490.2 490.2;" xml:space="preserve">
<g>
	<g>
		<path d="M321.2,146.05c7.3,0,13.6,6.3,13.6,13.6v29.2c1.4,14.3,14.6,13.6,14.6,13.6c7.3,0,13.6-6.3,13.6-13.6v-29.2
			c0-7.3,6.3-13.6,13.6-13.6h28c7.3,0,13.6-6.3,13.6-13.6s-6.3-13.6-13.6-13.6h-28.1c-7.3,0-13.6-6.3-13.6-13.6v-29.1
			c0-7.3-6.3-13.6-13.6-13.6c0,0-13.2-0.9-14.6,13.6v29.2c0,7.3-6.3,13.6-13.6,13.6h-29.2c-7.3,0-13.6,6.3-13.6,13.6
			c0,7.3,6.3,13.6,13.6,13.6h29.3L321.2,146.05L321.2,146.05z"/>
		<path d="M348.3,266.95c74,0,133.4-59.4,133.4-133.4S422.3,0.15,348.3,0.15s-133.5,59.3-133.5,133.3
			C214.8,207.55,274.3,266.95,348.3,266.95z M348.3,40.75c51.1,0,92.8,41.7,92.8,92.8s-41.7,92.8-92.8,92.8s-92.8-41.7-92.8-92.8
			S297.2,40.75,348.3,40.75z"/>
		<path d="M490.1,275.25c0-11.5-9.4-20.9-20.9-20.9s-20.9,9.4-20.9,20.9v60.5h-293c-10.5-46.6-57.1-81.9-113.5-82.4v-94.9
			c0-11.5-9.4-20.9-20.9-20.9S0,146.95,0,158.45v310.7c0,11.5,9.4,20.9,20.9,20.9c10.4,0,19.8-9.4,20.9-19.8v-92.8h406.6v91.7
			c0,11.5,9.4,20.9,20.9,20.9s20.9-9.4,20.9-20.9v-193.9L490.1,275.25L490.1,275.25z M41.8,295.15c31.7,0.7,58.9,17.7,69.4,40.6
			H41.8V295.15z"/>
	</g>
</g>
<g>
</g>
<g>
</g>
<g>
</g>
<g>
</g>
<g>
</g>
<g>
</g>
<g>
</g>
<g>
</g>
<g>
</g>
<g>
</g>
<g>
</g>
<g>
</g>
<g>
</g>
<g>
</g>
<g>
</g>
</svg>
