<?xml version="1.0" encoding="iso-8859-1"?>
<!-- Generator: Adobe Illustrator 19.0.0, SVG Export Plug-In . SVG Version: 6.00 Build 0)  -->
<svg version="1.1" id="Layer_1" xmlns="http://www.w3.org/2000/svg" xmlns:xlink="http://www.w3.org/1999/xlink" x="0px" y="0px"
	 viewBox="0 0 490 490" style="enable-background:new 0 0 490 490;" xml:space="preserve">
<g>
	<g>
		<path d="M469.2,98.8h-64.5V41.6h63.5c11.4,0,21.8-9.4,21.8-20.8S480.6,0,469.2,0H20.8C9.4,0,0,9.4,0,20.8s9.4,20.8,20.8,20.8h63.5
			v57.2H20.8C9.4,98.8,0,108.2,0,119.6v349.6C0,480.6,9.4,490,20.8,490h447.3c11.4,0,20.8-9.4,21.8-20.8V119.6
			C490,108.2,480.6,98.8,469.2,98.8z M125.9,41.6h237.2v57.2H125.9V41.6z M448.4,449.4H40.6v-309h407.8V449.4z"/>
		<polygon points="224.7,404.7 263.2,404.7 263.2,313.1 353.7,313.1 353.7,274.6 263.2,274.6 263.2,184.1 224.7,184.1 224.7,274.6 
			134.2,274.6 134.2,313.1 224.7,313.1 		"/>
	</g>
</g>
<g>
</g>
<g>
</g>
<g>
</g>
<g>
</g>
<g>
</g>
<g>
</g>
<g>
</g>
<g>
</g>
<g>
</g>
<g>
</g>
<g>
</g>
<g>
</g>
<g>
</g>
<g>
</g>
<g>
</g>
</svg>
