<?xml version="1.0" encoding="iso-8859-1"?>
<!-- Generator: Adobe Illustrator 19.0.0, SVG Export Plug-In . SVG Version: 6.00 Build 0)  -->
<svg version="1.1" id="Layer_1" xmlns="http://www.w3.org/2000/svg" xmlns:xlink="http://www.w3.org/1999/xlink" x="0px" y="0px"
	 viewBox="0 0 490 490" style="enable-background:new 0 0 490 490;" xml:space="preserve">
<g>
	<g>
		<path d="M324.9,245.3C397.6,208,448.6,121.4,449.3,20.9c0-11.5-9.4-20.9-20.9-20.9s-20.9,9.4-20.9,20.9
			c0,112.6-73,203.3-162.6,203.3S82.4,132.4,83.4,20.9C83.4,9.4,74,0,62.6,0S41.7,9.4,41.7,20.9c0,100.2,50.3,186.5,122.6,224
			C91.9,282.2,40.7,368.7,40.7,469.1c0,11.5,9.4,20.9,20.9,20.9s20.9-9.4,20.9-20.9c0-112.6,73-203.3,162.6-203.3
			s162.6,90.7,162.6,203.3c0,11.5,9.4,20.9,20.9,20.9s19.8-9.4,18.8-20.9C447.3,369.1,397,282.8,324.9,245.3z"/>
		<path d="M167.9,61.5h154.3c11.5,0,21.9-9.4,21.9-20.9s-9.4-20.9-20.9-20.9H167.9c-11.5,0-20.9,9.4-20.9,20.9
			S156.4,61.5,167.9,61.5z"/>
		<path d="M207.5,101.1c-11.5,0-20.9,9.4-20.9,20.9s9.4,20.9,20.9,20.9h75.1c11.5,0,20.9-9.4,20.9-20.9s-9.4-20.9-20.9-20.9
			C282.6,101.1,207.5,101.1,207.5,101.1z"/>
		<path d="M323.2,427.4H167.9c-11.5,0-20.9,9.4-20.9,20.9s9.4,20.9,20.9,20.9h154.3c11.5,0,20.9-9.4,21.9-20.9
			C344,436.8,334.7,427.4,323.2,427.4z"/>
		<path d="M282.5,387.8c11.5,0,20.9-8.3,20.9-20.9c0-11.5-9.4-20.9-20.9-20.9h-75.1c-11.5,0-20.9,9.4-20.9,20.9s9.4,20.9,20.9,20.9
			H282.5z"/>
	</g>
</g>
<g>
</g>
<g>
</g>
<g>
</g>
<g>
</g>
<g>
</g>
<g>
</g>
<g>
</g>
<g>
</g>
<g>
</g>
<g>
</g>
<g>
</g>
<g>
</g>
<g>
</g>
<g>
</g>
<g>
</g>
</svg>
