<?xml version="1.0" encoding="iso-8859-1"?>
<!-- Generator: Adobe Illustrator 19.0.0, SVG Export Plug-In . SVG Version: 6.00 Build 0)  -->
<svg version="1.1" id="Layer_1" xmlns="http://www.w3.org/2000/svg" xmlns:xlink="http://www.w3.org/1999/xlink" x="0px" y="0px"
	 viewBox="0 0 485.532 485.532" style="enable-background:new 0 0 485.532 485.532;" xml:space="preserve">
<g>
	<g>
		<path d="M337.98,196.4h-40.8v-40.8c0-6-4.9-10.9-10.9-10.9l0,0c-6,0-10.9,4.9-10.9,10.9v40.8h-40.8c-6,0-10.9,4.9-10.9,10.9
			s4.9,10.9,10.9,10.9h40.8v40.7c0,6,4.9,10.9,10.9,10.9l0,0c6,0,10.9-4.9,10.9-10.9v-40.8h40.8c6,0,10.9-4.9,10.9-10.9
			C348.78,201.2,343.98,196.4,337.98,196.4z"/>
		<path d="M433.18,388.6c29.6-117.7,16.4-221.2-37.9-292.5C346.68,33,271.18,0,177.18,0c-40.3,0-83.7,6.2-128.2,18.6
			c-22,6.1-16.2,29.5-8.3,34.1c60,54.8,78.6,113.7,97.2,169.5c30.7,91,59.4,178,264.2,191.9c6.5,8,14.8,23.6,6.6,42.8
			c-5.2,10.3,0,22.7,10.3,26.9c14.3,5.2,23.8-2.1,25.8-11.4C460.48,437.2,447.48,406.5,433.18,388.6z M394.28,373.2
			c-168.5-13.4-189.2-76.5-218.1-163.3c-16.5-49.6-34.1-105.4-82.7-160.2c28.9-6.2,56.9-9.3,83.7-8.3c80.6,0,144.7,26.9,185,79.6
			C407.68,180.9,419.08,269.8,394.28,373.2z"/>
	</g>
</g>
<g>
</g>
<g>
</g>
<g>
</g>
<g>
</g>
<g>
</g>
<g>
</g>
<g>
</g>
<g>
</g>
<g>
</g>
<g>
</g>
<g>
</g>
<g>
</g>
<g>
</g>
<g>
</g>
<g>
</g>
</svg>
