<?xml version="1.0" encoding="iso-8859-1"?>
<!-- Generator: Adobe Illustrator 19.0.0, SVG Export Plug-In . SVG Version: 6.00 Build 0)  -->
<svg version="1.1" id="Layer_1" xmlns="http://www.w3.org/2000/svg" xmlns:xlink="http://www.w3.org/1999/xlink" x="0px" y="0px"
	 viewBox="0 0 489.886 489.886" style="enable-background:new 0 0 489.886 489.886;" xml:space="preserve">
<g>
	<g>
		<circle cx="180.559" cy="180.148" r="21.7"/>
		<circle cx="303.359" cy="159.748" r="21.7"/>
		<circle cx="351.059" cy="251.448" r="21.7"/>
		<circle cx="262.259" cy="355.348" r="21.7"/>
		<circle cx="136.359" cy="281.048" r="21.7"/>
		<circle cx="257.359" cy="251.848" r="21.7"/>
		<path d="M468.959,21.448c-35.6-35.6-82.2-19.9-102.2,0c-114.4-46.4-224.1,13.5-278.3,66.7c-78.2,79.2-104.2,190.8-67.8,278.4
			c-22.7,22.7-32,70.1,0,102.2c25.4,25.4,70.5,30.6,102.2-1c112.8,45.9,224.1-13.6,278.4-66.7c78.2-78.2,105.3-189.7,67.8-277.3
			C494.759,97.848,498.859,51.348,468.959,21.448z M425.259,126.748c39.6,74,17.7,174.1-53.2,245c-45.9,45.9-149.7,103.3-245,52.1
			c-9.5-5.1-21.9-1-27.1,8.3c-2.1,3.1-3.1,5.2-5.2,7.3c-12.5,11.5-33.4,11.5-44.8,0c-6.3-5.2-17.1-26.4,0-43.8
			c2.1-2.1,4.2-3.1,7.3-5.2c9.4-6.3,12.5-17.7,7.3-28.1c-38.6-73-17.7-174.1,53.2-245c45.9-45.9,146.2-101.8,246-52.1
			c9.6,4.8,21.9,1,27.1-8.3c1-3.1,3.1-5.2,5.2-7.3c12.5-11.5,33.4-11.5,44.8,0c17.2,16.6,7.7,38.8,0,44.8c-2.3,1.8-4.2,3.1-7.3,5.2
			C423.159,104.848,419.959,117.348,425.259,126.748z"/>
	</g>
</g>
<g>
</g>
<g>
</g>
<g>
</g>
<g>
</g>
<g>
</g>
<g>
</g>
<g>
</g>
<g>
</g>
<g>
</g>
<g>
</g>
<g>
</g>
<g>
</g>
<g>
</g>
<g>
</g>
<g>
</g>
</svg>
