<?xml version="1.0" encoding="iso-8859-1"?>
<!-- Generator: Adobe Illustrator 19.0.0, SVG Export Plug-In . SVG Version: 6.00 Build 0)  -->
<svg version="1.1" id="Layer_1" xmlns="http://www.w3.org/2000/svg" xmlns:xlink="http://www.w3.org/1999/xlink" x="0px" y="0px"
	 viewBox="0 0 489.029 489.029" style="enable-background:new 0 0 489.029 489.029;" xml:space="preserve">
<g>
	<path d="M315.165,126.9c-11.4,0-20.8,9.4-20.8,20.8v55.1l0,0h-29.1v-182c0-11.4-9.4-20.8-20.8-20.8s-20.8,9.4-20.8,20.8v182.1
		h-29.1v-55.1c0-11.4-9.4-20.8-20.8-20.8c-102,0-173.7,96.8-173.7,235.1v106.1c2.8,22.5,22.9,20.8,23.9,20.8l154-28.1
		c9.4-1,16.6-10.4,16.6-19.8V244.5h99.9l0,0v197.7c0,9.4,7.3,17.7,16.6,19.8l154,27c19.1,0.5,23.9-14.6,23.9-20.8V362.1
		C488.965,223.7,418.165,126.9,315.165,126.9z M153.965,424.5l-113.4,19.7V362c0-86.3,35.4-178.9,113.4-192.5V424.5z M448.365,444.2
		l-113.4-19.7V169.6c78,13.5,113.4,106.1,113.4,192.5V444.2z"/>
</g>
<g>
</g>
<g>
</g>
<g>
</g>
<g>
</g>
<g>
</g>
<g>
</g>
<g>
</g>
<g>
</g>
<g>
</g>
<g>
</g>
<g>
</g>
<g>
</g>
<g>
</g>
<g>
</g>
<g>
</g>
</svg>
