<?xml version="1.0" encoding="iso-8859-1"?>
<!-- Generator: Adobe Illustrator 19.0.0, SVG Export Plug-In . SVG Version: 6.00 Build 0)  -->
<svg version="1.1" id="Layer_1" xmlns="http://www.w3.org/2000/svg" xmlns:xlink="http://www.w3.org/1999/xlink" x="0px" y="0px"
	 viewBox="0 0 490.3 490.3" style="enable-background:new 0 0 490.3 490.3;" xml:space="preserve">
<g>
	<g>
		<path d="M283.8,197.3h-56.4v-56.4c0-8.3-6.7-15-15-15l0,0c-8.3,0-15,6.7-15,15v56.4H141c-8.3,0-15,6.7-15,15l0,0
			c0,8.3,6.7,15,15,15h56.4v56.4c0,8.3,6.7,15,15,15l0,0c8.3,0,15-6.7,15-15v-56.4h56.4c8.3,0,15-6.7,15-15l0,0
			C298.8,204,292.1,197.3,283.8,197.3z"/>
		<path d="M469.4,358.8c-11.4,0-20.7,9.3-20.7,20.7v40.1l-72.4-72.4c30.2-36.7,48.4-83.7,48.4-134.9C424.7,95.1,329.7,0,212.4,0
			C95.2,0,0.1,95,0.1,212.3s95,212.3,212.3,212.3c51.2,0,98.2-18.2,134.9-48.4l72.7,72.7h-40.6c-11.4,0-20.7,9.3-20.7,20.7
			s9.3,20.7,20.7,20.7h90.1c11.4,0,20.7-9.3,20.7-20.7v-90.1C490.1,368.1,480.8,358.8,469.4,358.8z M212.4,384.5
			c-95.1,0-172.2-77.1-172.2-172.2S117.3,40.2,212.4,40.2s172.2,77.1,172.2,172.2S307.5,384.5,212.4,384.5z"/>
	</g>
</g>
<g>
</g>
<g>
</g>
<g>
</g>
<g>
</g>
<g>
</g>
<g>
</g>
<g>
</g>
<g>
</g>
<g>
</g>
<g>
</g>
<g>
</g>
<g>
</g>
<g>
</g>
<g>
</g>
<g>
</g>
</svg>
