<?xml version="1.0" encoding="iso-8859-1"?>
<!-- Generator: Adobe Illustrator 19.0.0, SVG Export Plug-In . SVG Version: 6.00 Build 0)  -->
<svg version="1.1" id="Layer_1" xmlns="http://www.w3.org/2000/svg" xmlns:xlink="http://www.w3.org/1999/xlink" x="0px" y="0px"
	 viewBox="0 0 489 489" style="enable-background:new 0 0 489 489;" xml:space="preserve">
<g>
	<g>
		<g>
			<g>
				<path d="M414.55,489H73.35c-11.4,0-20.8-9.4-20.8-20.8V20.8c0-11.4,9.4-20.8,20.8-20.8h342.3c11.4,0,20.8,9.4,20.8,20.8v448.4
					C435.35,479.6,425.95,489,414.55,489z M93.05,448.4h300.7V40.6H93.05V448.4z"/>
			</g>
			<g>
				<g>
					<g>
						<path d="M330.25,149.8h-40.6c-11.4,0-20.8-9.4-20.8-20.8s9.4-20.8,20.8-20.8h40.6c11.4,0,20.8,9.4,20.8,20.8
							S341.75,149.8,330.25,149.8z"/>
					</g>
					<g>
						<path d="M198.15,149.8h-40.6c-11.4,0-20.8-9.4-20.8-20.8s9.4-20.8,20.8-20.8h40.6c11.4,0,20.8,9.4,20.8,20.8
							S209.55,149.8,198.15,149.8z"/>
					</g>
				</g>
				<g>
					<g>
						<path d="M330.25,265.3h-40.6c-11.4,0-20.8-9.4-20.8-20.8c0-11.4,9.4-20.8,20.8-20.8h40.6c11.4,0,20.8,9.4,20.8,20.8
							S341.75,265.3,330.25,265.3z"/>
					</g>
					<g>
						<path d="M198.15,265.3h-40.6c-11.4,0-20.8-9.4-20.8-20.8c0-11.4,9.4-20.8,20.8-20.8h40.6c11.4,0,20.8,9.4,20.8,20.8
							S209.55,265.3,198.15,265.3z"/>
					</g>
				</g>
				<g>
					<g>
						<path d="M330.25,379.7h-40.6c-11.4,0-20.8-9.4-20.8-20.8s9.4-20.8,20.8-20.8h40.6c11.4,0,20.8,9.4,20.8,20.8
							C351.05,371.4,341.75,379.7,330.25,379.7z"/>
					</g>
					<g>
						<path d="M198.15,379.7h-40.6c-11.4,0-20.8-9.4-20.8-20.8s9.4-20.8,20.8-20.8h40.6c11.4,0,20.8,9.4,20.8,20.8
							C217.95,371.4,209.55,379.7,198.15,379.7z"/>
					</g>
				</g>
			</g>
		</g>
	</g>
</g>
<g>
</g>
<g>
</g>
<g>
</g>
<g>
</g>
<g>
</g>
<g>
</g>
<g>
</g>
<g>
</g>
<g>
</g>
<g>
</g>
<g>
</g>
<g>
</g>
<g>
</g>
<g>
</g>
<g>
</g>
</svg>
