<?xml version="1.0" encoding="iso-8859-1"?>
<!-- Generator: Adobe Illustrator 19.0.0, SVG Export Plug-In . SVG Version: 6.00 Build 0)  -->
<svg version="1.1" id="Layer_1" xmlns="http://www.w3.org/2000/svg" xmlns:xlink="http://www.w3.org/1999/xlink" x="0px" y="0px"
	 viewBox="0 0 490 490" style="enable-background:new 0 0 490 490;" xml:space="preserve">
<g>
	<path d="M455.631,266.7c-1-1.8-38.4-44.8-99.1-42.3l20.8-157.2c0.6-7.1-1.9-13.8-6.7-18C346.431,11,249.531,0,189.231,0
		c-62,0-162.8,11.6-183.4,52.5c-6.3,9.2-3.2,22.5-2.3,25.6l47.2,360.7c0,0.2,0,16.8,9.8,22.2c27.1,26.3,102.6,29,128.7,29
		c41.7,0,93.9-5.7,119-22.7c16.3,7.4,34.1,11.3,52.6,11.3c34.1,0,64.3-15.4,89.9-37.2C475.431,420.4,518.031,340.6,455.631,266.7z
		 M406.131,278.2L287.531,396c-7.9-13.4-28.4-62.2,12.4-105.5C346.431,249.5,392.931,270.2,406.131,278.2z M190.331,40.3
		c84.1,0,132.4,17.9,145,27.3c0,0-45,28.5-145,28.5c-85.8,0-134.4-18.6-145.8-27.9C54.831,57.9,104.531,40.3,190.331,40.3z
		 M91.031,433.1c0-0.1-0.1-0.2-0.1-0.3L49.531,116c40.5,15.3,98.7,20.4,139.7,20.4c41.4,0,99.2-5,139.6-20.1l-15.5,117.1
		c-15.8,6.3-30.2,15.9-42.5,28.1c-59.2,59-39.1,145.1-1.5,178.3c-18.4,5-46.7,8.8-80.2,8.8
		C134.431,448.6,100.331,439.3,91.031,433.1z M421.831,412.5c-46.4,40.2-91.8,20.9-105.1,13.1l117.9-117.9
		C461.031,356.8,438.431,395.9,421.831,412.5z"/>
</g>
<g>
</g>
<g>
</g>
<g>
</g>
<g>
</g>
<g>
</g>
<g>
</g>
<g>
</g>
<g>
</g>
<g>
</g>
<g>
</g>
<g>
</g>
<g>
</g>
<g>
</g>
<g>
</g>
<g>
</g>
</svg>
