<?xml version="1.0" encoding="iso-8859-1"?>
<!-- Generator: Adobe Illustrator 19.0.0, SVG Export Plug-In . SVG Version: 6.00 Build 0)  -->
<svg version="1.1" id="Layer_1" xmlns="http://www.w3.org/2000/svg" xmlns:xlink="http://www.w3.org/1999/xlink" x="0px" y="0px"
	 viewBox="0 0 490.2 490.2" style="enable-background:new 0 0 490.2 490.2;" xml:space="preserve">
<g>
	<path d="M386.45,101.1h-44.8V20.9c0-11.5-9.4-20.9-20.9-20.9h-152.2c-11.5,0-20.9,9.4-20.9,20.9v80.3h-43.8
		c-11.5,0-20.9,9.4-20.9,20.9v347.2c0,11.5,9.4,20.9,20.9,20.9h281.5c11.5,0,20.9-9.4,21.9-20.9V122
		C407.25,110.5,397.85,101.1,386.45,101.1z M188.35,40.7h111.6v60.5h-111.6V40.7z M123.65,245h100.1v102.2h-100.1V245z
		 M365.55,449.3h-241.9v-61.5h120.9c11.5,0,20.9-9.4,20.9-20.9V224.1c0-11.5-9.4-20.9-20.9-20.9h-120.9v-60.5h241.9V449.3z"/>
</g>
<g>
</g>
<g>
</g>
<g>
</g>
<g>
</g>
<g>
</g>
<g>
</g>
<g>
</g>
<g>
</g>
<g>
</g>
<g>
</g>
<g>
</g>
<g>
</g>
<g>
</g>
<g>
</g>
<g>
</g>
</svg>
