<?xml version="1.0" encoding="iso-8859-1"?>
<!-- Generator: Adobe Illustrator 19.0.0, SVG Export Plug-In . SVG Version: 6.00 Build 0)  -->
<svg version="1.1" id="Layer_1" xmlns="http://www.w3.org/2000/svg" xmlns:xlink="http://www.w3.org/1999/xlink" x="0px" y="0px"
	 viewBox="0 0 488.9 488.9" style="enable-background:new 0 0 488.9 488.9;" xml:space="preserve">
<g>
	<path d="M432.25,130.1L325.05,7.3c-4.2-5.2-9.4-7.3-15.6-7.3H72.25c-11.4,0-20.8,9.4-20.8,20.8v447.3c0,11.4,9.4,20.8,20.8,20.8
		h345.4c11.4,0,19.8-9.4,19.8-19.8V143.6C437.45,138.4,435.35,134.2,432.25,130.1z M330.25,75l55.6,63.4h-55.6V75z M288.65,40.6
		v117.6c0,11.4,9.4,20.8,20.8,20.8h87.4v91.5h-64.5c-8.3,0-15.6,5.2-18.7,12.5l-7.3,15.6l-12.5-17.7c-3.1-6.2-9.4-9.4-16.6-9.4h-52
		c-8.3,0-15.6,5.2-18.7,13.5l-2.1,4.2l-14.6-73.9c-1.8-12.7-23.5-28-38.5-5.2l-36.4,76h-22.9V40.6H288.65z M93.05,448.4h-1V327.7
		h35.4c8.3,0,15.6-4.2,18.7-11.4l15.6-32.3l16.6,85.3c9.6,25.9,35.4,18.2,39.5,2.1l21.8-59.3h27l26,39.5c15,18.7,33.6,6.2,35.4-2.1
		l16.6-37.5h52v136.3H93.05V448.4z"/>
</g>
<g>
</g>
<g>
</g>
<g>
</g>
<g>
</g>
<g>
</g>
<g>
</g>
<g>
</g>
<g>
</g>
<g>
</g>
<g>
</g>
<g>
</g>
<g>
</g>
<g>
</g>
<g>
</g>
<g>
</g>
</svg>
