<?xml version="1.0" encoding="iso-8859-1"?>
<!-- Generator: Adobe Illustrator 19.0.0, SVG Export Plug-In . SVG Version: 6.00 Build 0)  -->
<svg version="1.1" id="Layer_1" xmlns="http://www.w3.org/2000/svg" xmlns:xlink="http://www.w3.org/1999/xlink" x="0px" y="0px"
	 viewBox="0 0 489 489" style="enable-background:new 0 0 489 489;" xml:space="preserve">
<g>
	<g>
		<path d="M413.6,213.3c0-33.3-27-61.4-61.4-61.4H135.8c-33.3,0-61.4,27-61.4,61.4v254.9c0,11.4,9.4,20.8,20.8,20.8h299.6
			c11.4,0,19.8-9.4,18.7-20.8V213.3H413.6z M374,448.4H116V213.3c0-11.4,9.4-20.8,20.8-20.8h216.4c11.4,0,20.8,9.4,20.8,20.8V448.4z
			"/>
		<path d="M356.3,0H132.7c-32.3,0-58.3,26-58.3,58.3v51c0,11.4,9.4,20.8,20.8,20.8h299.6c11.4,0,19.8-9.4,19.8-20.8v-51
			C414.6,26,388.6,0,356.3,0z M374,88.4H116h-1V57.2c0-10.4,8.3-17.7,17.7-17.7h223.7c10.4,0,17.7,8.3,17.7,17.7v31.2H374z"/>
	</g>
</g>
<g>
</g>
<g>
</g>
<g>
</g>
<g>
</g>
<g>
</g>
<g>
</g>
<g>
</g>
<g>
</g>
<g>
</g>
<g>
</g>
<g>
</g>
<g>
</g>
<g>
</g>
<g>
</g>
<g>
</g>
</svg>
