<?xml version="1.0" encoding="iso-8859-1"?>
<!-- Generator: Adobe Illustrator 19.0.0, SVG Export Plug-In . SVG Version: 6.00 Build 0)  -->
<svg version="1.1" id="Layer_1" xmlns="http://www.w3.org/2000/svg" xmlns:xlink="http://www.w3.org/1999/xlink" x="0px" y="0px"
	 viewBox="0 0 490 490" style="enable-background:new 0 0 490 490;" xml:space="preserve">
<g>
	<path d="M465.688,216.1c-12.4-12.8-61.3-42.1-107.5,0l-3.1,3.2c0,0,28.6-152.7,15.9-166.7c-20.6-41-121.4-52.6-183.4-52.6
		c-63,0-166.1,12-184.3,54.6c-10.7,9.2,45.8,383.2,45.8,384.7c0,46.5,106.5,50.7,138.5,50.7c28.6,0,111.1-2.3,133.1-33.6
		c11.6-3.7,22.4-10.3,31.3-19.1l113.7-113.7C482.888,307,505.988,256.3,465.688,216.1z M188.588,40.3c84.1,0,132.5,17.9,145,27.4
		c0,0-43.5,28.5-145,28.5c-85.8,0-134.4-18.6-145.8-27.9C53.188,57.9,102.788,40.3,188.588,40.3z M89.388,433.1
		c0-0.1-0.1-0.2-0.1-0.3L47.888,116c40.5,15.3,98.7,20.4,139.7,20.4c41.4,0,99.4-5,139.8-20.2l-19.5,150.6l-63.5,64
		c-30,30-30,77.5,0,107.5c2.1,1.9,4.3,3.8,6.5,5.5c-16.3,2.8-37.7,4.9-63.4,4.9C132.788,448.6,98.688,439.3,89.388,433.1z
		 M322.988,408.3c-13.4,13.4-36.2,13.4-49.6,0s-13.4-36.2,0-49.6l42.4-42.4l49.6,49.6L322.988,408.3z M437.788,293.6l-43.4,43.4
		l-49.6-49.6l42.4-42.4c21.2-18.8,43.4-7.2,50.7-1C443.988,250.2,457.688,271.1,437.788,293.6z"/>
</g>
<g>
</g>
<g>
</g>
<g>
</g>
<g>
</g>
<g>
</g>
<g>
</g>
<g>
</g>
<g>
</g>
<g>
</g>
<g>
</g>
<g>
</g>
<g>
</g>
<g>
</g>
<g>
</g>
<g>
</g>
</svg>
