<?xml version="1.0" encoding="iso-8859-1"?>
<!-- Generator: Adobe Illustrator 19.0.0, SVG Export Plug-In . SVG Version: 6.00 Build 0)  -->
<svg version="1.1" id="Layer_1" xmlns="http://www.w3.org/2000/svg" xmlns:xlink="http://www.w3.org/1999/xlink" x="0px" y="0px"
	 viewBox="0 0 490 490" style="enable-background:new 0 0 490 490;" xml:space="preserve">
<g>
	<path d="M469.2,211.778H313.7l169-176.9c7.3-8.3,7.3-21.8-1-29.1s-21.8-7.3-29.1,1l-196,205H20.8c-11.4,0-20.8,9.4-20.8,20.8
		c0,112.4,59.3,212.2,150.8,254.9c2.1,1,5.2,2.1,8.3,2.1h170.6c3.1,0,6.2-1,10.4-2.1c90.6-42.7,149.9-143.6,149.9-254.9
		C490,221.078,480.6,211.778,469.2,211.778z M325.6,448.978H163.3c-68.6-35.4-115.4-110.3-121.7-195.6h405.7
		C441.1,339.678,395.3,414.578,325.6,448.978z"/>
</g>
<g>
</g>
<g>
</g>
<g>
</g>
<g>
</g>
<g>
</g>
<g>
</g>
<g>
</g>
<g>
</g>
<g>
</g>
<g>
</g>
<g>
</g>
<g>
</g>
<g>
</g>
<g>
</g>
<g>
</g>
</svg>
