<?xml version="1.0" encoding="iso-8859-1"?>
<!-- Generator: Adobe Illustrator 19.0.0, SVG Export Plug-In . SVG Version: 6.00 Build 0)  -->
<svg version="1.1" id="Layer_1" xmlns="http://www.w3.org/2000/svg" xmlns:xlink="http://www.w3.org/1999/xlink" x="0px" y="0px"
	 viewBox="0 0 489.4 489.4" style="enable-background:new 0 0 489.4 489.4;" xml:space="preserve">
<g>
	<g>
		<path d="M440.15,157.9c-1.7-2.1-151.9-152.3-152.3-152.6c-4-3.5-8.7-5.3-13.5-5.3H66.05c-11.5,0-20.8,9.4-20.8,20.8v447.8
			c0,11.5,9.4,20.8,20.8,20.8h358.3c11.5,0,19.8-9.4,19.8-19.8V169.8C444.05,165.7,442.95,161.4,440.15,157.9z M295.15,69.8
			l79.1,79.2h-79.1V69.8z M404.55,448.9H86.85V40.7h167.7v128.1c0,11.5,9.4,20.8,20.8,20.8h129.1v259.3H404.55z"/>
		<polygon points="161.85,177.1 180.65,177.1 180.65,138.6 219.15,138.6 219.15,119.8 180.65,119.8 180.65,81.3 161.85,81.3 
			161.85,119.8 123.35,119.8 123.35,138.6 161.85,138.6 		"/>
		<path d="M322.25,371.9h-154.1c-11.5,0-20.8,9.4-20.8,20.8c0,11.5,9.4,20.8,20.8,20.8h154.1c11.5,0,20.8-9.4,20.8-20.8
			C343.05,381.2,333.65,371.9,322.25,371.9z"/>
		<path d="M147.25,274c0,11.5,9.4,20.8,20.8,20.8h154.1c11.5,0,20.8-9.4,20.8-20.8s-9.4-20.8-20.8-20.8h-154
			C156.65,253.1,147.25,262.5,147.25,274z"/>
	</g>
</g>
<g>
</g>
<g>
</g>
<g>
</g>
<g>
</g>
<g>
</g>
<g>
</g>
<g>
</g>
<g>
</g>
<g>
</g>
<g>
</g>
<g>
</g>
<g>
</g>
<g>
</g>
<g>
</g>
<g>
</g>
</svg>
