<?xml version="1.0" encoding="iso-8859-1"?>
<!-- Generator: Adobe Illustrator 19.0.0, SVG Export Plug-In . SVG Version: 6.00 Build 0)  -->
<svg version="1.1" id="Layer_1" xmlns="http://www.w3.org/2000/svg" xmlns:xlink="http://www.w3.org/1999/xlink" x="0px" y="0px"
	 viewBox="0 0 490 490" style="enable-background:new 0 0 490 490;" xml:space="preserve">
<g>
	<g>
		<path d="M386,102h-42.7V20.8c0-11.4-9.4-20.8-20.8-20.8H169.6c-11.4,0-20.8,9.4-20.8,20.8V102H104c-11.4,0-20.8,9.4-20.8,20.8
			v346.4c0,11.4,9.4,20.8,20.8,20.8h283c11.4,0,19.8-8.3,19.8-19.8V122.8C406.8,111.3,397.4,102,386,102z M189.3,41.6h111.3V102
			H189.3V41.6z M366.2,449.4H124.8V143.6h241.4V449.4z"/>
		<path d="M306.4,283H259v-47.3c0-7.2-5.8-13-13-13c-7.2,0-13,5.8-13,13V283h-47.3c-7.2,0-13,5.8-13,13l0,0c0,7.2,5.8,13,13,13H233
			v48.4c0,7.2,5.8,13,13,13c7.2,0,13-5.8,13-13V309h47.3c7.2,0,13-5.8,13-13l0,0C319.4,288.8,313.6,283,306.4,283z"/>
	</g>
</g>
<g>
</g>
<g>
</g>
<g>
</g>
<g>
</g>
<g>
</g>
<g>
</g>
<g>
</g>
<g>
</g>
<g>
</g>
<g>
</g>
<g>
</g>
<g>
</g>
<g>
</g>
<g>
</g>
<g>
</g>
</svg>
