<?xml version="1.0" encoding="iso-8859-1"?>
<!-- Generator: Adobe Illustrator 19.0.0, SVG Export Plug-In . SVG Version: 6.00 Build 0)  -->
<svg version="1.1" id="Layer_1" xmlns="http://www.w3.org/2000/svg" xmlns:xlink="http://www.w3.org/1999/xlink" x="0px" y="0px"
	 viewBox="0 0 488.9 488.9" style="enable-background:new 0 0 488.9 488.9;" xml:space="preserve">
<g>
	<g>
		<path d="M468.1,0H70.7C31.2,0,0,32.3,0,70.7v347.5c0,39.5,32.3,70.7,70.7,70.7h397.4c11.4,0,20.8-9.4,20.8-19.8V20.8
			C488.9,9.4,479.5,0,468.1,0z M40.5,418.2V70.8c0-16.6,13.5-30.2,30.2-30.2h41.6v407.8H70.7C54,448.4,40.5,434.9,40.5,418.2z
			 M448.3,448.4H153.9V40.6h294.4V448.4z"/>
		<polygon points="288.1,312.1 314.1,312.1 314.1,258 368.2,258 368.2,231 314.1,231 314.1,176.9 288.1,176.9 288.1,231 234,231 
			234,258 288.1,258 		"/>
	</g>
</g>
<g>
</g>
<g>
</g>
<g>
</g>
<g>
</g>
<g>
</g>
<g>
</g>
<g>
</g>
<g>
</g>
<g>
</g>
<g>
</g>
<g>
</g>
<g>
</g>
<g>
</g>
<g>
</g>
<g>
</g>
</svg>
