<?xml version="1.0" encoding="iso-8859-1"?>
<!-- Generator: Adobe Illustrator 19.0.0, SVG Export Plug-In . SVG Version: 6.00 Build 0)  -->
<svg version="1.1" id="Layer_1" xmlns="http://www.w3.org/2000/svg" xmlns:xlink="http://www.w3.org/1999/xlink" x="0px" y="0px"
	 viewBox="0 0 490.1 490.1" style="enable-background:new 0 0 490.1 490.1;" xml:space="preserve">
<g>
	<g>
		<g>
			<path d="M423.85,74h-70.7l-5.4-28.1c-2.1-9.4-10.4-16.7-19.8-16.7h-58.4v-8.3c0-11.5-9.4-20.9-20.9-20.9
				c-11.5,0-20.9,9.4-20.9,20.9v8.3h-59.4c-9.4,0-17.7,7.3-19.8,16.7l-5.2,28.1h-77.1c-11.5,0-20.9,9.4-20.9,20.9v374.3
				c0,11.5,9.4,20.9,20.9,20.9h356.6c11.5,0,20.9-9.4,21.9-20.9V94.9C444.65,83.4,435.35,74,423.85,74z M311.25,68.8l10.4,54.2h-146
				l10.4-54.2H311.25z M402.95,449.3H86.05V115.7h49.5l-4.7,25c-3.3,18.3,13.6,24,19.8,24h196c11.5,0,20.9-9.4,19.8-19.8
				c0-2.1-5.4-29.2-5.4-29.2h41.9V449.3z"/>
		</g>
		<g>
			<path d="M201.95,243.7c-2.6-6.8-9.1-11.2-16.3-11.2s-13.7,4.5-16.3,11.2l-55.9,145.7c-3.5,9,1,19.1,10.1,22.6
				c2.1,0.8,4.2,1.2,6.3,1.2c7,0,13.7-4.3,16.3-11.2l12.5-32.6h54.1l12.5,32.6c3.5,9,13.6,13.5,22.6,10.1c9-3.5,13.5-13.6,10.1-22.6
				L201.95,243.7z M171.95,334.3l13.6-35.5l13.6,35.5H171.95z"/>
			<path d="M360.45,305.3h-26.5v-26.5c0-9.7-7.8-17.5-17.5-17.5s-17.5,7.8-17.5,17.5v26.5h-26.5c-9.7,0-17.5,7.8-17.5,17.5
				s7.8,17.5,17.5,17.5h26.5v26.5c0,9.7,7.8,17.5,17.5,17.5s17.5-7.8,17.5-17.5v-26.5h26.5c9.7,0,17.5-7.8,17.5-17.5
				S370.15,305.3,360.45,305.3z"/>
		</g>
	</g>
</g>
<g>
</g>
<g>
</g>
<g>
</g>
<g>
</g>
<g>
</g>
<g>
</g>
<g>
</g>
<g>
</g>
<g>
</g>
<g>
</g>
<g>
</g>
<g>
</g>
<g>
</g>
<g>
</g>
<g>
</g>
</svg>
