<?xml version="1.0" encoding="iso-8859-1"?>
<!-- Generator: Adobe Illustrator 19.0.0, SVG Export Plug-In . SVG Version: 6.00 Build 0)  -->
<svg version="1.1" id="Layer_1" xmlns="http://www.w3.org/2000/svg" xmlns:xlink="http://www.w3.org/1999/xlink" x="0px" y="0px"
	 viewBox="0 0 488.989 488.989" style="enable-background:new 0 0 488.989 488.989;" xml:space="preserve">
<g>
	<g>
		<path d="M488.9,325.144l-17.6-296.5c-1-15.6-14.6-28.1-30.2-28.1H48.9c-16.6,0-29.1,12.5-30.2,28.1L0,385.544c0,1.3,0,8.9,0,11.4
			c0,49.9,40.6,91.5,91.5,91.5h368.3c16.6,0,29.1-12.5,29.1-28.1C488.9,460.444,489.1,327.044,488.9,325.144z M58.2,40.144h372.4
			l16.3,265.3H91.5c-17.3,0-33.6,4.9-47.5,13.3L58.2,40.144z M448.4,447.944H91.5c-28.1,0-51-22.9-51-51s22.9-51,51-51h356.8v102
			H448.4z"/>
		<polygon points="232,239.844 260.1,239.844 259,179.544 309,179.544 306.9,152.444 258,152.444 256.9,104.644 235.1,104.644 
			234.1,152.444 185.2,152.444 183.1,179.544 233,179.544 		"/>
	</g>
</g>
<g>
</g>
<g>
</g>
<g>
</g>
<g>
</g>
<g>
</g>
<g>
</g>
<g>
</g>
<g>
</g>
<g>
</g>
<g>
</g>
<g>
</g>
<g>
</g>
<g>
</g>
<g>
</g>
<g>
</g>
</svg>
