<?xml version="1.0" encoding="iso-8859-1"?>
<!-- Generator: Adobe Illustrator 19.0.0, SVG Export Plug-In . SVG Version: 6.00 Build 0)  -->
<svg version="1.1" id="Layer_1" xmlns="http://www.w3.org/2000/svg" xmlns:xlink="http://www.w3.org/1999/xlink" x="0px" y="0px"
	 viewBox="0 0 490.051 490.051" style="enable-background:new 0 0 490.051 490.051;" xml:space="preserve">
<g>
	<g>
		<path d="M472.351,28.125c-1-15.6-14.6-28.1-30.2-28.1h-393.2c-16.6,0-29.1,13.5-30.2,29.1l-18.7,357.9c0,2.5-5.3,95.2,92.6,103
			h368.3c16.6,0,29.1-12.5,29.1-28.1c0,0-0.2-129.4-0.5-131.1C490.051,328.825,472.351,28.125,472.351,28.125z M59.351,41.625h372.4
			l16.4,265.3h-355.5c-17.3,0-33.6,5-47.5,13.6L59.351,41.625z M449.451,449.425h-356.8c-28.1,0-51-22.9-51-51s22.9-51,51-51h356.8
			V449.425z"/>
		<polygon points="219.551,190.425 269.451,190.425 271.551,242.425 301.751,242.425 293.351,121.725 268.451,121.725 
			267.351,167.525 219.551,167.525 220.551,121.725 195.551,121.725 187.251,242.425 217.451,242.425 		"/>
	</g>
</g>
<g>
</g>
<g>
</g>
<g>
</g>
<g>
</g>
<g>
</g>
<g>
</g>
<g>
</g>
<g>
</g>
<g>
</g>
<g>
</g>
<g>
</g>
<g>
</g>
<g>
</g>
<g>
</g>
<g>
</g>
</svg>
