<?xml version="1.0" encoding="iso-8859-1"?>
<!-- Generator: Adobe Illustrator 19.0.0, SVG Export Plug-In . SVG Version: 6.00 Build 0)  -->
<svg version="1.1" id="Layer_1" xmlns="http://www.w3.org/2000/svg" xmlns:xlink="http://www.w3.org/1999/xlink" x="0px" y="0px"
	 viewBox="0 0 490.05 490.05" style="enable-background:new 0 0 490.05 490.05;" xml:space="preserve">
<g>
	<g>
		<circle cx="356.225" cy="198.299" r="33.2"/>
		<circle cx="197.325" cy="357.199" r="33.2"/>
		<circle cx="276.225" cy="278.399" r="33.2"/>
		<path d="M483.825,173.799l-167.5-167.5c-8.3-8.3-20.8-8.3-29.1,0l-281,280.9c-8.3,8.3-8.3,20.8,0,29.1l166.5,167.5
			c12.5,11.5,25,4.2,30.2,0l280.9-280.9C492.125,194.599,492.125,182.199,483.825,173.799z M187.325,441.199l-138.4-138.4
			l252.8-252.8l137.3,139.4L187.325,441.199z"/>
		<circle cx="292.325" cy="134.399" r="33.2"/>
		<circle cx="133.425" cy="293.299" r="33.2"/>
		<circle cx="212.325" cy="214.499" r="33.2"/>
	</g>
</g>
<g>
</g>
<g>
</g>
<g>
</g>
<g>
</g>
<g>
</g>
<g>
</g>
<g>
</g>
<g>
</g>
<g>
</g>
<g>
</g>
<g>
</g>
<g>
</g>
<g>
</g>
<g>
</g>
<g>
</g>
</svg>
