<?xml version="1.0" encoding="iso-8859-1"?>
<!-- Generator: Adobe Illustrator 19.0.0, SVG Export Plug-In . SVG Version: 6.00 Build 0)  -->
<svg version="1.1" id="Layer_1" xmlns="http://www.w3.org/2000/svg" xmlns:xlink="http://www.w3.org/1999/xlink" x="0px" y="0px"
	 viewBox="0 0 488 488" style="enable-background:new 0 0 488 488;" xml:space="preserve">
<g>
	<g>
		<g>
			<path d="M424.257,42.2c-33.7-40.6-163-42.2-180.2-42.2c-16.7,0-152.6,0.8-182.5,44.9c-9.2,8.7-5.3,25.3-4.3,28.4
				c0,0,47.9,370.3,49,373.3c13.4,37.6,110.3,41.4,137.8,41.4c32.3,0,139.4-3.1,139.4-51c0-0.4,47.3-363.6,47.3-363.6
				C431.857,70.2,436.157,50.7,424.257,42.2z M342.757,430.8c-8.5,6.2-43.8,15.5-98.7,15.5c-55,0-89.2-9.3-98.7-15.5l-42.2-322.5
				c51.4,17.8,128,18.7,140.9,18.7s89.5-0.9,140.9-18.7L342.757,430.8z M244.057,85.3c-78,0-128-13.5-143.6-22.9
				c15.6-9.3,65.6-22.8,143.6-22.8s128,13.5,143.6,22.9C372.057,71.8,322.057,85.3,244.057,85.3z"/>
		</g>
		<path d="M172.957,295.3h56v56.9c0,8.3,6.8,15.1,15.1,15.1l0,0c8.3,0,15.1-6.8,15.1-15.1v-56.9h56c8.3,0,15.1-6.8,15.1-15.1l0,0
			c0-8.3-6.8-15.1-15.1-15.1h-56v-56c0-8.3-6.8-15.1-15.1-15.1l0,0c-8.3,0-15.1,6.8-15.1,15.1v56h-56c-8.3,0-15.1,6.8-15.1,15.1l0,0
			C157.857,288.5,164.657,295.3,172.957,295.3z"/>
	</g>
</g>
<g>
</g>
<g>
</g>
<g>
</g>
<g>
</g>
<g>
</g>
<g>
</g>
<g>
</g>
<g>
</g>
<g>
</g>
<g>
</g>
<g>
</g>
<g>
</g>
<g>
</g>
<g>
</g>
<g>
</g>
</svg>
