<?xml version="1.0" encoding="iso-8859-1"?>
<!-- Generator: Adobe Illustrator 19.0.0, SVG Export Plug-In . SVG Version: 6.00 Build 0)  -->
<svg version="1.1" id="Layer_1" xmlns="http://www.w3.org/2000/svg" xmlns:xlink="http://www.w3.org/1999/xlink" x="0px" y="0px"
	 viewBox="0 0 478.891 478.891" style="enable-background:new 0 0 478.891 478.891;" xml:space="preserve">
<g>
	<path d="M432.091,242.85c55.9-64.2,61.7-155,10.4-206.3c-6.6-6.6-96.3-89.5-217.4,19.8l-168.6,169.5
		c-94.5,104.7-47.9,189.4-20.8,216.4c0,0,83.7,87.4,208.2-9.4c24.6,28,60.7,45.8,100.8,45.8c73.9,0,134.2-60.3,134.2-134.2
		C478.791,303.95,460.691,267.55,432.091,242.85z M344.591,250.85c44.7,0,81.8,31.6,91.3,72.8h-182.6
		C262.891,281.85,300.691,250.85,344.591,250.85z M253.091,83.35c96.9-85.2,160.2-18.7,160.2-18.7c37.7,37.7,30.5,106.4-16.8,156.1
		c-16-6.7-33.5-10.5-51.9-10.5c-29.5,0-56.9,9.7-79.1,26l-82.2-82.2L253.091,83.35z M64.791,413.15c-17.7-17.7-51.1-82.6,19.7-159.2
		l69.8-70.7l82,82c-16.3,22.2-26,49.6-26,79.1c0,18.9,4,36.9,11.1,53.2C124.091,478.65,64.791,413.15,64.791,413.15z
		 M344.591,438.15c-44.7,0-81.8-31.6-91.3-72.8h182.6C426.391,407.15,388.591,438.15,344.591,438.15z"/>
</g>
<g>
</g>
<g>
</g>
<g>
</g>
<g>
</g>
<g>
</g>
<g>
</g>
<g>
</g>
<g>
</g>
<g>
</g>
<g>
</g>
<g>
</g>
<g>
</g>
<g>
</g>
<g>
</g>
<g>
</g>
</svg>
