<?xml version="1.0" encoding="iso-8859-1"?>
<!-- Generator: Adobe Illustrator 19.0.0, SVG Export Plug-In . SVG Version: 6.00 Build 0)  -->
<svg version="1.1" id="Layer_1" xmlns="http://www.w3.org/2000/svg" xmlns:xlink="http://www.w3.org/1999/xlink" x="0px" y="0px"
	 viewBox="0 0 489.925 489.925" style="enable-background:new 0 0 489.925 489.925;" xml:space="preserve">
<g>
	<g>
		<path d="M410.362,69.625c5.4,6.2,19.2,9.9,29.1,0c8.3-8.3,8.3-20.8,0-29.1l-34.3-34.3c-8.3-8.3-20.8-8.3-29.1,0
			c-8.3,8.3-8.3,20.8,0,29.1L410.362,69.625z"/>
		<path d="M424.962,448.325h-63.7c12.5-11,23.5-24,32.5-38.5c44-75,21.6-171.3-49.6-219.2l57.9-57.5c8.3-8.3,8.3-20.8,0-29.1
			l-59.3-59.3c-8.3-8.3-20.8-8.3-29.1,0l-157.1,156c-8.3,8.3-8.3,20.8,0,29.1l15.1,15.1l-14,14c-8.3,8.3-8.3,20.8,0,29.1
			c8.3,8.3,20.8,8.3,29.1,0l14-14l15.1,15.1c12.2,11.5,25.1,4.7,29.1,0l69.3-68.9c0.1,0.1,0.2,0.2,0.4,0.2
			c58.3,34.3,78,110.3,43.7,168.5c-19.7,32.2-52.3,54.3-89.5,59.3h-115.4v-42.7h21.8c11.4,0,20.8-9.4,20.8-20.8s-9.4-20.8-20.8-20.8
			h-85.3c-11.4,0-20.8,9.4-20.8,20.8s9.4,20.8,20.8,20.8h21.8v42.7h-46.8c-11.4,0-20.8,9.4-20.8,20.8s9.4,20.9,20.8,20.9h360
			c11.4,0,20.8-9.4,20.8-20.8S436.362,448.325,424.962,448.325z M230.363,246.525l-30.2-30.2l128-128l30.2,30.2L230.363,246.525z"/>
	</g>
</g>
<g>
</g>
<g>
</g>
<g>
</g>
<g>
</g>
<g>
</g>
<g>
</g>
<g>
</g>
<g>
</g>
<g>
</g>
<g>
</g>
<g>
</g>
<g>
</g>
<g>
</g>
<g>
</g>
<g>
</g>
</svg>
