<?xml version="1.0" encoding="iso-8859-1"?>
<!-- Generator: Adobe Illustrator 19.0.0, SVG Export Plug-In . SVG Version: 6.00 Build 0)  -->
<svg version="1.1" id="Layer_1" xmlns="http://www.w3.org/2000/svg" xmlns:xlink="http://www.w3.org/1999/xlink" x="0px" y="0px"
	 viewBox="0 0 489.619 489.619" style="enable-background:new 0 0 489.619 489.619;" xml:space="preserve">
<g>
	<path d="M441.422,253.619c0-66.6-48.5-126.6-121.9-152.7c11.2-32.2-3.6-68.6-35.2-82.4l-27-12.5c-8.4-6.2-62.5-19-87.4,33.3
		l-44.7,99.9c-13.9,31.7-1.3,69,28.6,85.1l-11,24.1c-4.2,10.4,0,22.9,10.4,27c13.9,5.7,23.9-2.1,27-10.4l10.6-23.7
		c6.9,2.6,14.2,3.9,21.6,3.9c26,0,49.9-15.6,60.3-39.5l30.5-68c58.4,18.9,97.5,65.4,97.5,114.8c0,68.7-71.8,124.8-160.2,124.8h-91.5
		l-65.5-65.5c-8.3-8.3-20.8-8.3-29.1,0s-8.3,20.8,0,29.1l71.8,71.8c4.2,4.2,9.4,6.2,14.6,6.2h79v29.1h-58.3
		c-11.4,0-20.8,9.4-20.8,20.8s9.4,20.8,20.8,20.8h157.1c11.4,0,20.8-9.4,20.8-20.8s-9.4-20.8-20.8-20.8h-57.2v-30
		C362.022,409.419,440.522,338.419,441.422,253.619z M280.222,89.319l-44.7,99.9c-4.2,8.3-12.5,14.6-22.9,14.6
		c-4.2,0-37.5-14.6-37.5-14.6c-12.5-5.2-17.7-20.8-12.5-33.3l44.7-99.9c4.2-8.3,12.5-14.6,22.9-14.6c4.2,0,37.5,14.6,37.5,14.6
		C280.222,61.219,285.422,76.819,280.222,89.319z"/>
</g>
<g>
</g>
<g>
</g>
<g>
</g>
<g>
</g>
<g>
</g>
<g>
</g>
<g>
</g>
<g>
</g>
<g>
</g>
<g>
</g>
<g>
</g>
<g>
</g>
<g>
</g>
<g>
</g>
<g>
</g>
</svg>
