<?xml version="1.0" encoding="iso-8859-1"?>
<!-- Generator: Adobe Illustrator 19.0.0, SVG Export Plug-In . SVG Version: 6.00 Build 0)  -->
<svg version="1.1" id="Layer_1" xmlns="http://www.w3.org/2000/svg" xmlns:xlink="http://www.w3.org/1999/xlink" x="0px" y="0px"
	 viewBox="0 0 489.9 489.9" style="enable-background:new 0 0 489.9 489.9;" xml:space="preserve">
<g>
	<path d="M446.2,115.7h-50c0,0,0-43.3,0-43.8C396.2,15.6,271.1,0,198.1,0C124.1,0,0,14.6,0,71.9c0,0.6,0,368,0,368
		c0,28.1,22.9,50,50,50h296.1c27.1,0,49-21.9,50-50v-38.6h50c24,0,43.8-18.8,43.8-43.8v-198C490,135.5,470.2,115.7,446.2,115.7z
		 M198.1,40.7c94.9,0,147,20.9,156.4,31.3c-9.4,10.4-61.5,31.3-156.4,31.3S51.1,82.4,41.7,71.9C51.1,61.5,103.2,40.7,198.1,40.7z
		 M354.5,440c0,4.2-3.1,8.3-8.3,8.3H50c-4.2,0-8.3-3.1-8.3-8.3V118.7c43,18.9,110.2,25.2,156.4,25.2c46.4,0,113.4-5.9,156.4-24.9
		V440z M449.3,357.6c0,2.1-1,3.1-3.1,3.1h-50V156.4h50c2.1,0,3.1,1,3.1,3.1V357.6z"/>
</g>
<g>
</g>
<g>
</g>
<g>
</g>
<g>
</g>
<g>
</g>
<g>
</g>
<g>
</g>
<g>
</g>
<g>
</g>
<g>
</g>
<g>
</g>
<g>
</g>
<g>
</g>
<g>
</g>
<g>
</g>
</svg>
