<?xml version="1.0" encoding="iso-8859-1"?>
<!-- Generator: Adobe Illustrator 19.0.0, SVG Export Plug-In . SVG Version: 6.00 Build 0)  -->
<svg version="1.1" id="Layer_1" xmlns="http://www.w3.org/2000/svg" xmlns:xlink="http://www.w3.org/1999/xlink" x="0px" y="0px"
	 viewBox="0 0 490 490" style="enable-background:new 0 0 490 490;" xml:space="preserve">
<g>
	<g>
		<path d="M13.5,231.917c4.2,5.2,16.1,14.2,28.1,3.1c9.4-6.2,10.4-18.7,4.2-28.1c-6.2-9.4-6.2-25,0-34.3c17.7-23.9,17.7-60.3,0-83.2
			c-6.2-9.4-6.2-25,0-34.3c6.2-8.3,5.2-21.8-4.2-28.1c-8.3-6.2-21.8-5.2-28.1,4.2c-17.7,23.9-17.7,60.3,0,83.2
			c6.2,9.4,6.2,25,0,34.3C-4.2,172.617-4.2,209.017,13.5,231.917z"/>
		<path d="M116.5,231.917c4.2,5.2,16.1,13.7,28.1,3.1c9.4-6.2,10.4-18.7,4.2-28.1c-6.2-9.4-6.2-25,0-34.3
			c17.7-23.9,17.7-60.3,0-83.2c-6.2-9.4-6.2-25,0-34.3c6.2-8.3,5.2-21.8-4.2-28.1c-8.3-6.2-21.8-5.2-28.1,4.2
			c-17.7,23.9-17.7,60.3,0,83.2c6.2,9.4,6.2,25,0,34.3C98.8,172.617,98.8,209.017,116.5,231.917z"/>
		<path d="M469.2,255.817H297.4l139.5-134.2c7.3-8.3,8.3-20.8,0-29.1c-8.3-7.3-20.8-7.3-29.1,0L238,255.817H20.8
			c-11.4,0-20.8,9.4-20.8,20.8s9.4,20.8,20.8,20.8h173.9l-139.6,134.2c-7.3,8.3-8.3,20.8,0,29.1c11,11,23.8,4.7,28.1,1l170.9-164.4
			h216.1c10.4,0,19.8-9.4,19.8-20.8C490,265.217,480.6,255.817,469.2,255.817z"/>
	</g>
</g>
<g>
</g>
<g>
</g>
<g>
</g>
<g>
</g>
<g>
</g>
<g>
</g>
<g>
</g>
<g>
</g>
<g>
</g>
<g>
</g>
<g>
</g>
<g>
</g>
<g>
</g>
<g>
</g>
<g>
</g>
</svg>
