<?xml version="1.0" encoding="iso-8859-1"?>
<!-- Generator: Adobe Illustrator 19.0.0, SVG Export Plug-In . SVG Version: 6.00 Build 0)  -->
<svg version="1.1" id="Layer_1" xmlns="http://www.w3.org/2000/svg" xmlns:xlink="http://www.w3.org/1999/xlink" x="0px" y="0px"
	 viewBox="0 0 490.1 490.1" style="enable-background:new 0 0 490.1 490.1;" xml:space="preserve">
<g>
	<g>
		<path d="M423.85,74h-70.7l-5.4-28.1c-2.1-9.4-10.4-16.7-19.8-16.7h-58.4v-8.3c0-11.5-9.4-20.9-20.9-20.9
			c-11.5,0-19.8,8.3-20.9,19.8v9.4h-59.4c-9.4,0-17.7,7.3-19.8,16.7l-5.2,28.1h-77.1c-11.5,0-20.9,9.4-20.9,20.9v374.3
			c0,11.5,9.4,20.9,20.9,20.9h356.6c11.5,0,20.9-9.4,21.9-20.9V94.9C444.65,83.4,435.35,74,423.85,74z M311.25,68.8l10.4,54.2h-146
			l10.4-54.2H311.25z M402.95,449.3H86.05V115.7h49.5l-4.7,25c-3.2,17.4,13.6,24,19.8,24h196c11.5,0,20.9-9.4,19.8-19.8
			c0-2.1-5.4-29.2-5.4-29.2h41.9V449.3z"/>
		<path d="M322.75,234.6h-157.5c-11.5,0-20.9,9.4-20.9,20.9s9.4,20.9,20.9,20.9h158.5c11.5,0,19.8-9.4,19.8-20.9
			S334.15,234.6,322.75,234.6z"/>
		<path d="M322.75,348.2h-157.5c-11.5,0-20.9,9.4-20.9,20.9s9.4,20.9,20.9,20.9h158.5c11.5,0,19.8-9.4,19.8-20.9
			S334.15,348.2,322.75,348.2z"/>
	</g>
	<g>
		<path d="M423.85,74h-70.7l-5.4-28.1c-2.1-9.4-10.4-16.7-19.8-16.7h-58.4v-8.3c0-11.5-9.4-20.9-20.9-20.9
			c-11.5,0-19.8,8.3-20.9,19.8v9.4h-59.4c-9.4,0-17.7,7.3-19.8,16.7l-5.2,28.1h-77.1c-11.5,0-20.9,9.4-20.9,20.9v374.3
			c0,11.5,9.4,20.9,20.9,20.9h356.6c11.5,0,20.9-9.4,21.9-20.9V94.9C444.65,83.4,435.35,74,423.85,74z M311.25,68.8l10.4,54.2h-146
			l10.4-54.2H311.25z M402.95,449.3H86.05V115.7h49.5l-4.7,25c-1,6.3,0,12.5,4.2,16.7s9.4,7.3,15.6,7.3h196
			c11.5,0,20.9-9.4,19.8-19.8c0-2.1-5.4-29.2-5.4-29.2h41.9V449.3z"/>
		<path d="M322.75,234.6h-157.5c-11.5,0-20.9,9.4-20.9,20.9s9.4,20.9,20.9,20.9h158.5c11.5,0,19.8-9.4,19.8-20.9
			S334.15,234.6,322.75,234.6z"/>
		<path d="M322.75,348.2h-157.5c-11.5,0-20.9,9.4-20.9,20.9s9.4,20.9,20.9,20.9h158.5c11.5,0,19.8-9.4,19.8-20.9
			S334.15,348.2,322.75,348.2z"/>
	</g>
</g>
<g>
</g>
<g>
</g>
<g>
</g>
<g>
</g>
<g>
</g>
<g>
</g>
<g>
</g>
<g>
</g>
<g>
</g>
<g>
</g>
<g>
</g>
<g>
</g>
<g>
</g>
<g>
</g>
<g>
</g>
</svg>
