<?xml version="1.0" encoding="iso-8859-1"?>
<!-- Generator: Adobe Illustrator 19.0.0, SVG Export Plug-In . SVG Version: 6.00 Build 0)  -->
<svg version="1.1" id="Layer_1" xmlns="http://www.w3.org/2000/svg" xmlns:xlink="http://www.w3.org/1999/xlink" x="0px" y="0px"
	 viewBox="0 0 490.2 490.2" style="enable-background:new 0 0 490.2 490.2;" xml:space="preserve">
<g>
	<g>
		<path d="M429.6,37.5h-84.4V20.9c0-5.2-4.5-20.1-20.9-20.9H166.9C155.4,0,146,9.4,146,20.9v16.7H60.6c-5.6-0.7-20.9,5.9-20.9,20.9
			v410.8c0,11.5,9.4,20.9,20.9,20.9h370.1c14.4,0,19.8-15.6,19.8-20.9V58.4C450.5,46.9,441.1,37.5,429.6,37.5z M187.8,40.7h116.8
			v35.4H187.8V40.7z M409.8,449.3H80.4V79.2h65.7v16.7c0,11.5,9.4,20.9,20.9,20.9h158.5c10.4,0,19.8-9.4,19.8-19.8V79.2h64.6v370.1
			H409.8z"/>
		<path d="M170,245h150.1c11.5,0,19.8-9.4,20.9-20.9c0-11.5-9.4-20.9-20.9-20.9H170c-11.5,0-20.9,9.4-20.9,20.9S158.6,245,170,245z"
			/>
		<path d="M323.3,343H173.2c-11.5,0-20.9,9.4-20.9,20.9s9.4,20.9,20.9,20.9h150.1c10.4,0,20.9-9.4,20.9-20.9S334.8,343,323.3,343z"
			/>
	</g>
</g>
<g>
</g>
<g>
</g>
<g>
</g>
<g>
</g>
<g>
</g>
<g>
</g>
<g>
</g>
<g>
</g>
<g>
</g>
<g>
</g>
<g>
</g>
<g>
</g>
<g>
</g>
<g>
</g>
<g>
</g>
</svg>
