<?xml version="1.0" encoding="iso-8859-1"?>
<!-- Generator: Adobe Illustrator 19.0.0, SVG Export Plug-In . SVG Version: 6.00 Build 0)  -->
<svg version="1.1" id="Layer_1" xmlns="http://www.w3.org/2000/svg" xmlns:xlink="http://www.w3.org/1999/xlink" x="0px" y="0px"
	 viewBox="0 0 489 489" style="enable-background:new 0 0 489 489;" xml:space="preserve">
<g>
	<path d="M468.25,198.6c-21.6,0-45.9,9.4-69.7,23V87.3c0-11.4-9.4-20.8-20.8-20.8h-84.5l-4.9-21.8c-2.1-9.4-10.4-15.6-19.8-15.6h-49
		v-8.3c0-11.4-9.4-20.8-20.8-20.8c-11.4,0-20.8,9.4-20.8,20.8v8.3h-47.9c-9.4,0-17.7,6.2-19.8,15.6l-5,21.9c-0.1,0-0.1,0-0.2,0
		h-84.2c-11.4,0-20.8,9.4-20.8,20.8v380.8c0,11.4,9.4,20.8,20.8,20.8h356.8c11.4,0,20.8-9.4,20.8-20.8V270.7
		c26-17.7,51.2-30.4,69.7-30.4c11.4,0,20.8-9.4,20.8-20.8C489.05,208,479.65,198.6,468.25,198.6z M146.75,69.6h105.1l8.3,36.4
		h-121.7L146.75,69.6z M357.95,448.3H40.65V108.1h55.1l-3.1,13.5c-2.5,20.2,13.5,25,19.8,25h173.7c10.4,0,19.8-9.4,19.8-20.8
		c0-4.6-3.4-17.7-3.4-17.7h55.4v140.6c-25.8,19.4-48.5,40.4-63.5,54.9l-21.8-30.2c-6.2-8.3-18.7-10.4-28.1-4.2
		c-8.3,6.2-10.4,18.7-4.2,28.1l36.4,49.9c12.2,14.2,27,7,30.2,2.1c13.4-14.1,31.4-31.3,51-47.7V448.3z"/>
</g>
<g>
</g>
<g>
</g>
<g>
</g>
<g>
</g>
<g>
</g>
<g>
</g>
<g>
</g>
<g>
</g>
<g>
</g>
<g>
</g>
<g>
</g>
<g>
</g>
<g>
</g>
<g>
</g>
<g>
</g>
</svg>
