<?xml version="1.0" encoding="iso-8859-1"?>
<!-- Generator: Adobe Illustrator 19.0.0, SVG Export Plug-In . SVG Version: 6.00 Build 0)  -->
<svg version="1.1" id="Layer_1" xmlns="http://www.w3.org/2000/svg" xmlns:xlink="http://www.w3.org/1999/xlink" x="0px" y="0px"
	 viewBox="0 0 490.1 490.1" style="enable-background:new 0 0 490.1 490.1;" xml:space="preserve">
<g>
	<g>
		<path d="M444.656,469.2V64.7c0-11.5-9.4-20.9-20.9-20.9h-115.6l-21.9-34.4c-4.2-6.3-10.4-9.4-17.7-9.4h-43.8
			c-7.3,0-13.6,3.1-17.7,9.4l-22.6,35.4h-118.2c-11.5,0-20.9,9.4-20.9,20.9v403.5c0,11.5,9.4,20.9,20.9,20.9h358.6
			C436.356,490.1,445.756,480.7,444.656,469.2z M235.156,40.8h20.9l41.7,65.7h-104.3L235.156,40.8z M403.956,449.4h-317.9V86.6h71.8
			l-18.6,29.2c-10.3,23.8,9.4,31.3,16.7,31.3h179.3c27.8-2.1,22.9-25,18.8-31.3l-19.3-30.2h69.3v363.8H403.956z"/>
		<path d="M320.556,230.5h-150.1c-11.5,0-20.9,9.4-20.9,20.9s9.4,20.9,20.9,20.9h150.1c11.5,0,20.9-9.4,20.9-20.9
			S332.056,230.5,320.556,230.5z"/>
		<path d="M320.556,349.4h-150.1c-11.5,0-20.9,9.4-20.9,20.9s9.4,20.9,20.9,20.9h150.1c11.5,0,20.9-9.4,20.9-20.9
			C341.456,358.7,332.056,349.4,320.556,349.4z"/>
	</g>
</g>
<g>
</g>
<g>
</g>
<g>
</g>
<g>
</g>
<g>
</g>
<g>
</g>
<g>
</g>
<g>
</g>
<g>
</g>
<g>
</g>
<g>
</g>
<g>
</g>
<g>
</g>
<g>
</g>
<g>
</g>
</svg>
