<?xml version="1.0" encoding="iso-8859-1"?>
<!-- Generator: Adobe Illustrator 19.0.0, SVG Export Plug-In . SVG Version: 6.00 Build 0)  -->
<svg version="1.1" id="Layer_1" xmlns="http://www.w3.org/2000/svg" xmlns:xlink="http://www.w3.org/1999/xlink" x="0px" y="0px"
	 viewBox="0 0 489.9 489.9" style="enable-background:new 0 0 489.9 489.9;" xml:space="preserve">
<g>
	<path d="M423.9,73.8h-70.6L348,45.7c-1-9.4-10.4-16.6-19.8-16.6H270v-8.3C270,9.4,260.6,0,249.2,0c-11.4,0-20.8,9.4-20.8,20.8v8.3
		h-59.3c-9.4,0-17.7,7.3-19.8,16.6L144,73.8H66c-11.4,0-20.8,9.4-20.8,20.8v374.5c0,11.4,9.4,20.8,20.8,20.8h357.9
		c11.4,0,19.8-8.3,20.8-20.8V94.6C444.7,83.1,435.4,73.8,423.9,73.8z M312.6,69.6l10.4,54.1H176.3l10.4-54.1H312.6z M403.1,449.3
		H86.9V337h64.5c5.2,0,10.4-2.1,14.6-6.2l27-27l17.7,59.3c9.2,21.2,30.6,14.6,34.3,8.3l53.1-53.1H347c11.4,0,20.8-9.4,20.8-20.8
		s-9.4-20.8-20.8-20.8h-57.2c-5.2,0-10.4,2.1-14.6,6.2l-35.4,35.4l-18.7-59.4c-4.6-14-21.6-21.1-34.3-8.3L142,295.4H86.9v-180h49.4
		l-4.7,25c-3,17.9,13.5,23.9,19.8,23.9H347c11.4,0,20.8-8.3,19.8-19.8c0-2.1-5.4-29.1-5.4-29.1h41.8v333.9H403.1z"/>
</g>
<g>
</g>
<g>
</g>
<g>
</g>
<g>
</g>
<g>
</g>
<g>
</g>
<g>
</g>
<g>
</g>
<g>
</g>
<g>
</g>
<g>
</g>
<g>
</g>
<g>
</g>
<g>
</g>
<g>
</g>
</svg>
