<?xml version="1.0" encoding="iso-8859-1"?>
<!-- Generator: Adobe Illustrator 19.0.0, SVG Export Plug-In . SVG Version: 6.00 Build 0)  -->
<svg version="1.1" id="Layer_1" xmlns="http://www.w3.org/2000/svg" xmlns:xlink="http://www.w3.org/1999/xlink" x="0px" y="0px"
	 viewBox="0 0 489.994 489.994" style="enable-background:new 0 0 489.994 489.994;" xml:space="preserve">
<g>
	<g>
		<path d="M477.597,130.011c-75.1-32.3-153.3-49-232.6-49s-157.5,15.6-232.6,48c-9.4,4.2-14.6,15.6-11.5,25l70.9,239.9
			c7.8,18.2,25,14.6,27.1,13.6c93.9-40.7,197.1-40.7,291,0c5.2,2.1,22.2,4.5,28.2-12.5l71-240
			C492.197,144.611,486.997,134.211,477.597,130.011z M384.797,361.611c-44.9-17.7-151-48.1-280.6,0l-59.5-201.4
			c64.7-25,132.5-38.6,200.3-38.6s135.6,12.5,199.2,38.6L384.797,361.611z"/>
		<path d="M224.097,186.311v21.9h-21.9c-11.5,0-20.9,9.4-20.9,20.9s9.4,20.9,20.9,20.9h21.9v21.9c0,11.5,9.4,20.9,20.9,20.9
			c11.5,0,20.9-9.4,20.9-20.9v-21.9h21.9c11.5,0,20.9-9.4,20.9-20.9s-9.4-20.9-20.9-20.9h-21.9v-21.9c0-11.5-9.4-20.9-20.9-20.9
			C233.497,165.411,224.097,174.911,224.097,186.311z"/>
	</g>
</g>
<g>
</g>
<g>
</g>
<g>
</g>
<g>
</g>
<g>
</g>
<g>
</g>
<g>
</g>
<g>
</g>
<g>
</g>
<g>
</g>
<g>
</g>
<g>
</g>
<g>
</g>
<g>
</g>
<g>
</g>
</svg>
