<?xml version="1.0" encoding="iso-8859-1"?>
<!-- Generator: Adobe Illustrator 19.0.0, SVG Export Plug-In . SVG Version: 6.00 Build 0)  -->
<svg version="1.1" id="Layer_1" xmlns="http://www.w3.org/2000/svg" xmlns:xlink="http://www.w3.org/1999/xlink" x="0px" y="0px"
	 viewBox="0 0 487.988 487.988" style="enable-background:new 0 0 487.988 487.988;" xml:space="preserve">
<g>
	<g>
		<path d="M487.9,400.119v-168.6c0-7.3-3.1-13.5-9.4-17.7l-223.6-142.5c-6.2-4.2-14.6-4.2-20.8,0L9.4,212.819
			c-6.2,4.2-9.4,10.4-9.4,17.7v168.5c0,11.4,9.4,20.8,20.8,20.8h447.3C479.6,419.819,489,410.519,487.9,400.119z M448.4,379.219
			H40.6v-137.3l203.9-129l203.9,129V379.219z"/>
		<path d="M300.7,247.119H257v-43.7c0-6.3-5.1-11.4-11.4-11.4h-1c-6.3,0-11.4,5.1-11.4,11.4v43.7h-43.7c-6.3,0-11.4,5.1-11.4,11.4
			s5.1,11.4,11.4,11.4H233v44.7c0,6.3,5.1,11.4,11.4,11.4h1c6.3,0,11.4-5.1,11.4-11.4v-44.6h43.7c6.3,0,11.4-5.1,11.4-11.4
			C312.1,252.219,307,247.119,300.7,247.119z"/>
	</g>
</g>
<g>
</g>
<g>
</g>
<g>
</g>
<g>
</g>
<g>
</g>
<g>
</g>
<g>
</g>
<g>
</g>
<g>
</g>
<g>
</g>
<g>
</g>
<g>
</g>
<g>
</g>
<g>
</g>
<g>
</g>
</svg>
