<?xml version="1.0" encoding="iso-8859-1"?>
<!-- Generator: Adobe Illustrator 19.0.0, SVG Export Plug-In . SVG Version: 6.00 Build 0)  -->
<svg version="1.1" id="Layer_1" xmlns="http://www.w3.org/2000/svg" xmlns:xlink="http://www.w3.org/1999/xlink" x="0px" y="0px"
	 viewBox="0 0 490 490" style="enable-background:new 0 0 490 490;" xml:space="preserve">
<g>
	<g>
		<g>
			<g>
				<path d="M400.5,222.6H88.4c-7.1,0.5-27.9-9.4-15.6-30.2c0,0,31.2-41.6,47.9-120.7c8.3-38.5,41.6-65.5,80.1-65.5h87.4
					c38.5,0,72.8,28.1,80.1,65.5c16.6,79.1,46.8,120.7,47.9,120.7C420.3,198.7,426.7,218.9,400.5,222.6z M121.7,184.1h244.5
					c-11.4-22.9-26-58.3-36.4-105.1c-4.2-20.8-21.8-35.4-42.7-35.4h-87.4c-20.8,0-38.5,14.6-42.7,35.4
					C147.7,125.9,133.2,161.3,121.7,184.1z"/>
			</g>
			<g>
				<path d="M470.2,483.8H18.7C8.3,483.8,0,475.5,0,465.1c0-90.5,49.9-173.7,130-215.4c3.1-1,6.2-2.1,9.4-2.1h211.2
					c3.1,0,6.2,1,9.4,2.1c80.1,42.7,130,124.8,130,215.4C489,475.4,480.6,483.8,470.2,483.8z M39.5,445.3h410.9
					c-6.2-67.6-44.7-126.9-104-160.2H143.6C84.3,318.3,45.8,377.6,39.5,445.3z"/>
			</g>
		</g>
	</g>
</g>
<g>
</g>
<g>
</g>
<g>
</g>
<g>
</g>
<g>
</g>
<g>
</g>
<g>
</g>
<g>
</g>
<g>
</g>
<g>
</g>
<g>
</g>
<g>
</g>
<g>
</g>
<g>
</g>
<g>
</g>
</svg>
