<?xml version="1.0" encoding="iso-8859-1"?>
<!-- Generator: Adobe Illustrator 19.0.0, SVG Export Plug-In . SVG Version: 6.00 Build 0)  -->
<svg version="1.1" id="Layer_1" xmlns="http://www.w3.org/2000/svg" xmlns:xlink="http://www.w3.org/1999/xlink" x="0px" y="0px"
	 viewBox="0 0 491 491" style="enable-background:new 0 0 491 491;" xml:space="preserve">
<g>
	<path d="M355.8,100.5V42.1H387c11.4,0,20.8-9.4,20.8-20.8S398.4,0.5,387,0.5H279.8c-11.4,0-20.8,9.4-20.8,20.8s9.4,20.8,20.8,20.8
		h34.3v9.4H104c-36.4,0-65.5,24.9-65.5,57.2V359C15.8,367.5,0,389.4,0,414.6c0,33.3,27,59.3,59.3,59.3s59.3-26,59.3-59.3
		c0-26.3-16.3-48.1-39.5-56V109.7c0-8.3,11.4-16.6,25-16.6h210.1v7.4C240.1,103.8,180,164.9,180,240.8v228.9
		c0,11.4,9.4,20.8,20.8,20.8h269.4c11.4,0,20.8-9.4,20.8-19.8V240.8C491,165.6,430.4,103.3,355.8,100.5z M77,414.6
		c0,9.4-7.3,17.7-17.7,17.7c-9.4,0-17.7-7.3-17.7-17.7c0-9.4,7.3-17.7,17.7-17.7S78,405.2,77,414.6z M449.4,449.9H219.5V240.8
		c0-55.1,44.7-99.9,99.9-99.9h30.1c55.1,0,99.9,44.7,99.9,99.9V449.9z"/>
</g>
<g>
</g>
<g>
</g>
<g>
</g>
<g>
</g>
<g>
</g>
<g>
</g>
<g>
</g>
<g>
</g>
<g>
</g>
<g>
</g>
<g>
</g>
<g>
</g>
<g>
</g>
<g>
</g>
<g>
</g>
</svg>
