<?xml version="1.0" encoding="iso-8859-1"?>
<!-- Generator: Adobe Illustrator 19.0.0, SVG Export Plug-In . SVG Version: 6.00 Build 0)  -->
<svg version="1.1" id="Layer_1" xmlns="http://www.w3.org/2000/svg" xmlns:xlink="http://www.w3.org/1999/xlink" x="0px" y="0px"
	 viewBox="0 0 490 490" style="enable-background:new 0 0 490 490;" xml:space="preserve">
<g>
	<g>
		<g>
			<g>
				<path d="M244.5,434.862c-135.3,0-244.5-109.3-244.5-244.5c0-11.4,9.4-20.8,20.8-20.8h448.4c11.4,0,20.8,9.4,20.8,20.8
					C489,325.563,379.7,434.862,244.5,434.862z M41.6,211.162c10.4,103,96.8,183.1,202.9,183.1c105.1,0,192.5-80.1,202.9-183.1
					L41.6,211.162z"/>
			</g>
			<g>
				<path d="M265.3,211.162c-5.2,0-10.4-2.1-14.6-6.2c-8.3-8.3-8.3-20.8,0-29.1l114.5-114.5c8.3-8.3,20.8-8.3,29.1,0
					c8.3,8.3,8.3,20.8,0,29.1l-114.4,114.4C275.7,209.063,270.5,211.162,265.3,211.162z"/>
			</g>
		</g>
	</g>
	<path d="M469.2,169.563h-154l79.1-79.1c8.3-8.3,8.3-20.8,0-29.1s-20.8-8.3-29.1,0L257,169.563H20.8c-11.4,0-20.8,9.4-20.8,20.8
		c0,135.2,109.2,244.5,244.5,244.5s244.5-109.3,245.5-244.5C490,178.862,480.6,169.563,469.2,169.563z M244.5,394.262
		c-106.1,0-192.5-80.1-202.9-183.1h405.7C436.9,314.163,349.6,394.262,244.5,394.262z"/>
</g>
<g>
</g>
<g>
</g>
<g>
</g>
<g>
</g>
<g>
</g>
<g>
</g>
<g>
</g>
<g>
</g>
<g>
</g>
<g>
</g>
<g>
</g>
<g>
</g>
<g>
</g>
<g>
</g>
<g>
</g>
</svg>
