<?xml version="1.0" encoding="iso-8859-1"?>
<!-- Generator: Adobe Illustrator 19.0.0, SVG Export Plug-In . SVG Version: 6.00 Build 0)  -->
<svg version="1.1" id="Layer_1" xmlns="http://www.w3.org/2000/svg" xmlns:xlink="http://www.w3.org/1999/xlink" x="0px" y="0px"
	 viewBox="0 0 490.107 490.107" style="enable-background:new 0 0 490.107 490.107;" xml:space="preserve">
<g>
	<path d="M449.178,40.616c-30.3-30.3-113.7-73.8-193.9,0l-214.7,213.7c-53.2,54.2-53.2,141.8,0,195c73.1,73.1,166,31.9,193.9,0
		l214.8-213.7C502.378,181.316,503.278,94.616,449.178,40.616z M206.278,420.016c-59,52.8-118.9,18.8-137.6,0
		c-37.5-37.5-37.5-99,0-136.6l93.3-93.3l137.1,137.1L206.278,420.016z M421.078,205.316l-92.8,92.8l-137.1-137.1l92.3-92.3
		c60.6-53.3,118.9-17.7,137.6,0C458.578,106.216,458.578,167.816,421.078,205.316z"/>
</g>
<g>
</g>
<g>
</g>
<g>
</g>
<g>
</g>
<g>
</g>
<g>
</g>
<g>
</g>
<g>
</g>
<g>
</g>
<g>
</g>
<g>
</g>
<g>
</g>
<g>
</g>
<g>
</g>
<g>
</g>
</svg>
