<?xml version="1.0" encoding="iso-8859-1"?>
<!-- Generator: Adobe Illustrator 19.0.0, SVG Export Plug-In . SVG Version: 6.00 Build 0)  -->
<svg version="1.1" id="Layer_1" xmlns="http://www.w3.org/2000/svg" xmlns:xlink="http://www.w3.org/1999/xlink" x="0px" y="0px"
	 viewBox="0 0 490.21 490.21" style="enable-background:new 0 0 490.21 490.21;" xml:space="preserve">
<g>
	<g>
		<path d="M490,271.805c-7.9-126-103.3-225.9-223.7-236.3v-14.4c0-11.4-9.4-20.8-20.8-20.8s-20.8,9.4-20.8,20.8v14.4
			C103.3,46.005,6.9,146.905,0,273.905c0,8.3,5.2,16.6,12.5,19.8c11.1,4.8,19.8,0,23.9-3.1c16.6-17.7,38.5-27,62.4-27
			c21.8,0,42.7,8.3,59.3,23.9c8.3,7.3,19.8,7.3,28.1,0c10.9-10.2,25.2-18,38.9-21.7v143.7c0,22.4-18.2,40.5-40.5,40.5
			s-40.6-18.3-40.6-40.6c0-11-9-20-20-20s-20,9-20,20c0,44.4,36.1,80.5,80.5,80.5s80.5-36.1,80.5-80.5v-143.9
			c13.8,3.7,28.8,11.7,39.7,22c8.3,7.3,19.8,7.3,28.1,0c16.6-15.6,37.5-23.9,59.3-23.9c23.9,0,45.8,9.4,62.4,27
			c4.2,4.2,9.4,6.2,14.6,6.2C480.6,296.805,491.9,286.405,490,271.805z M393.2,221.905c-27,0-52,8.3-73.9,23.9
			c-21.8-15.6-47.9-23.9-73.9-23.9c-27,0-52,8.3-73.9,23.9c-21.8-15.6-47.9-23.9-73.9-23.9c-16.6,0-34.3,3.1-49.9,10.4
			c24.1-91.5,103.1-157.1,197.8-157.1s173.8,65.6,197.7,157.1C427.6,225.005,410.9,221.905,393.2,221.905z"/>
		<path d="M286.6,140.805h-31.7v-33.8c0-4.9-4-8.8-8.8-8.8s-8.8,4-8.8,8.8v33.8h-31.7c-4.9,0-8.8,4-8.8,8.8s4,8.8,8.8,8.8h31.7v33.8
			c0,4.9,4,8.8,8.8,8.8s8.8-4,8.8-8.8v-33.8h31.7c4.9,0,8.8-4,8.8-8.8S291.5,140.805,286.6,140.805z"/>
	</g>
</g>
<g>
</g>
<g>
</g>
<g>
</g>
<g>
</g>
<g>
</g>
<g>
</g>
<g>
</g>
<g>
</g>
<g>
</g>
<g>
</g>
<g>
</g>
<g>
</g>
<g>
</g>
<g>
</g>
<g>
</g>
</svg>
