<?xml version="1.0" encoding="iso-8859-1"?>
<!-- Generator: Adobe Illustrator 19.0.0, SVG Export Plug-In . SVG Version: 6.00 Build 0)  -->
<svg version="1.1" id="Layer_1" xmlns="http://www.w3.org/2000/svg" xmlns:xlink="http://www.w3.org/1999/xlink" x="0px" y="0px"
	 viewBox="0 0 490.225 490.225" style="enable-background:new 0 0 490.225 490.225;" xml:space="preserve">
<g>
	<path d="M410.775,173.525c-35.3,0-65.3,23.3-75.2,55.3l-104-104c-4.2-4.2-8.3-6.2-13.5-6.2l-73.5-3.8l-108.6-108.6
		c-8.3-8.3-20.8-8.3-29.1,0s-8.3,20.8,0,29.1l108.6,108.7l3.8,73.5c1,5.2,3.1,10.4,6.2,13.5l104.8,104.8
		c-32.8,9.5-56.7,39.8-56.7,75.6c0,43.5,35.3,78.8,78.8,78.8s78.8-35.3,78.8-78.8c0-24.6-11.3-46.6-29-61.1l-141.4-143.3l-3.1-49.9
		l49.9,3.1l139.5,138.5c14.3,19.7,37.5,32.4,63.7,32.4c43.5,0,78.8-35.3,78.8-78.8C489.575,208.825,454.275,173.525,410.775,173.525
		z M290.575,411.525c0,21.1-17.1,38.2-38.2,38.2s-38.2-17.1-38.2-38.2s17.1-38.2,38.2-38.2
		C273.475,373.225,290.575,390.325,290.575,411.525z M410.775,290.525c-21.1,0-38.2-17.1-38.2-38.2s17.1-38.2,38.2-38.2
		s38.2,17.1,38.2,38.2S431.875,290.525,410.775,290.525z"/>
</g>
<g>
</g>
<g>
</g>
<g>
</g>
<g>
</g>
<g>
</g>
<g>
</g>
<g>
</g>
<g>
</g>
<g>
</g>
<g>
</g>
<g>
</g>
<g>
</g>
<g>
</g>
<g>
</g>
<g>
</g>
</svg>
