<?xml version="1.0" encoding="iso-8859-1"?>
<!-- Generator: Adobe Illustrator 19.0.0, SVG Export Plug-In . SVG Version: 6.00 Build 0)  -->
<svg version="1.1" id="Layer_1" xmlns="http://www.w3.org/2000/svg" xmlns:xlink="http://www.w3.org/1999/xlink" x="0px" y="0px"
	 viewBox="0 0 489.935 489.935" style="enable-background:new 0 0 489.935 489.935;" xml:space="preserve">
<g>
	<path d="M403.961,317.705c-37,0-68.6,23.4-80.7,56.3l-52.1-66.5l214-273.2c7.3-9.4,6.2-21.8-3.1-29.1c-9.4-7.3-21.8-6.2-29.1,3.1
		l-207.7,266l-208.5-266c-7.3-8.3-19.8-10.4-29.2-3.1c-8.3,7.3-10.4,19.8-3.1,29.1l214.6,273.2l-51.8,66.4
		c-12.1-32.8-43.6-56.2-80.6-56.2c-47.5,0-85.9,38.5-85.9,85.9s38.5,85.9,85.9,85.9c28.8,0,54.3-14.2,69.9-36
		c0.7-0.6,88.6-112.8,88.6-112.8s88.8,113.3,89.9,114.3c15.7,21,40.7,34.5,68.9,34.5c47.4,0,85.9-38.5,85.9-85.9
		S451.461,317.705,403.961,317.705z M86.661,450.705c-26,0-47-21.1-47-47s21.1-47,47-47s47,21.1,47,47
		S112.661,450.705,86.661,450.705z M403.961,450.705c-26,0-47-21.1-47-47s21.1-47,47-47s47,21.1,47,47
		S429.961,450.705,403.961,450.705z"/>
</g>
<g>
</g>
<g>
</g>
<g>
</g>
<g>
</g>
<g>
</g>
<g>
</g>
<g>
</g>
<g>
</g>
<g>
</g>
<g>
</g>
<g>
</g>
<g>
</g>
<g>
</g>
<g>
</g>
<g>
</g>
</svg>
