<?xml version="1.0" encoding="iso-8859-1"?>
<!-- Generator: Adobe Illustrator 19.0.0, SVG Export Plug-In . SVG Version: 6.00 Build 0)  -->
<svg version="1.1" id="Layer_1" xmlns="http://www.w3.org/2000/svg" xmlns:xlink="http://www.w3.org/1999/xlink" x="0px" y="0px"
	 viewBox="0 0 489 489" style="enable-background:new 0 0 489 489;" xml:space="preserve">
<g>
	<g>
		<path d="M262.15,383.9h-35.4c-11.4,0-20.8,9.4-20.8,20.8s9.4,20.8,20.8,20.8h35.4c11.4,0,20.8-9.4,20.8-20.8
			S273.55,383.9,262.15,383.9z"/>
		<polygon points="228.85,264.3 261.05,264.3 261.05,196.6 328.75,196.6 328.75,163.4 261.05,163.4 261.05,96.8 228.85,96.8 
			228.85,163.4 161.25,163.4 161.25,196.6 228.85,196.6 		"/>
		<path d="M397.35,0H91.55c-22.9,0-40.6,18.7-40.6,40.6v407.8c0,22.9,18.7,40.6,40.6,40.6h305.9c21.8,0,40.6-17.7,40.6-40.6V40.6
			C437.95,17.7,419.25,0,397.35,0z M396.35,40.6v278.8H91.55V40.6H396.35z M92.55,447v-86h304.8v86.3L92.55,447z"/>
	</g>
</g>
<g>
</g>
<g>
</g>
<g>
</g>
<g>
</g>
<g>
</g>
<g>
</g>
<g>
</g>
<g>
</g>
<g>
</g>
<g>
</g>
<g>
</g>
<g>
</g>
<g>
</g>
<g>
</g>
<g>
</g>
</svg>
