<?xml version="1.0" encoding="iso-8859-1"?>
<!-- Generator: Adobe Illustrator 19.0.0, SVG Export Plug-In . SVG Version: 6.00 Build 0)  -->
<svg version="1.1" id="Layer_1" xmlns="http://www.w3.org/2000/svg" xmlns:xlink="http://www.w3.org/1999/xlink" x="0px" y="0px"
	 viewBox="0 0 488.661 488.661" style="enable-background:new 0 0 488.661 488.661;" xml:space="preserve">
<g>
	<path d="M397.181,137.061h-132.1v-47.9l62.4-54.1c8.3-7.3,9.4-19.8,2.1-28.1s-20.8-9.4-29.1-2.1l-69.7,59.3
		c-5.2,4.2-7.3,9.4-7.3,15.6v57.2h-132.1c-11.4,0-20.8,9.4-20.8,20.8s9.4,20.8,20.8,20.8h7.7l41.2,292.4c1,10.4,9.4,17.7,19.8,17.7
		h168.5c10.4,0,18.7-7.3,19.8-17.7l43.2-292.3h5.7c11.4,0,20.8-9.4,20.8-20.8S408.681,137.061,397.181,137.061z M310.881,448.061
		h-133.2l-37.4-269.4h208L310.881,448.061z"/>
</g>
<g>
</g>
<g>
</g>
<g>
</g>
<g>
</g>
<g>
</g>
<g>
</g>
<g>
</g>
<g>
</g>
<g>
</g>
<g>
</g>
<g>
</g>
<g>
</g>
<g>
</g>
<g>
</g>
<g>
</g>
</svg>
