<?xml version="1.0" encoding="iso-8859-1"?>
<!-- Generator: Adobe Illustrator 19.0.0, SVG Export Plug-In . SVG Version: 6.00 Build 0)  -->
<svg version="1.1" id="Layer_1" xmlns="http://www.w3.org/2000/svg" xmlns:xlink="http://www.w3.org/1999/xlink" x="0px" y="0px"
	 viewBox="0 0 489.36 489.36" style="enable-background:new 0 0 489.36 489.36;" xml:space="preserve">
<g>
	<path d="M487.977,16.96c-2.1-11.4-12.5-18.7-23.9-16.6l-244.5,41.6c-9.4,1-16.6,9.4-16.6,19.8v42.7h-181
		c-18.3,1.8-21.8,17.7-20.8,23.9l45.7,343.3c1,10.4,9.4,17.7,19.8,17.7h242.4c10.4,0,19.8-7.3,22.9-17.7l45.8-343.3
		c0-6.2-0.7-22.5-20.8-23.9h-112.4v-25l226.8-38.5C482.777,38.86,490.077,28.46,487.977,16.96z M291.377,448.76h-207l-21-156.1
		h248.9L291.377,448.76z M317.877,251.06h-260l-14.1-105.1h288.2L317.877,251.06z"/>
</g>
<g>
</g>
<g>
</g>
<g>
</g>
<g>
</g>
<g>
</g>
<g>
</g>
<g>
</g>
<g>
</g>
<g>
</g>
<g>
</g>
<g>
</g>
<g>
</g>
<g>
</g>
<g>
</g>
<g>
</g>
</svg>
