<?xml version="1.0" encoding="iso-8859-1"?>
<!-- Generator: Adobe Illustrator 19.0.0, SVG Export Plug-In . SVG Version: 6.00 Build 0)  -->
<svg version="1.1" id="Layer_1" xmlns="http://www.w3.org/2000/svg" xmlns:xlink="http://www.w3.org/1999/xlink" x="0px" y="0px"
	 viewBox="0 0 490.048 490.048" style="enable-background:new 0 0 490.048 490.048;" xml:space="preserve">
<g>
	<path d="M356.115,272.7l126.9-127c6.2-6.2,8.3-15.6,4.2-23.9l-55-107c-2.6-8.5-10.6-14.8-19.9-14.8h-336c-10.6,0-19.3,8-20.6,18.2
		l-53.3,103.6c-3.1,8.3-2.1,17.7,4.2,23.9l126.9,126.9l-127,127c-12.2,16.3-1.2,29.6,5.2,32.3l109.3,56.1c11.8,4.9,19.8,0,23.9-4.2
		l99.9-99.9l99.9,99.9c10.5,9.9,20.8,5.2,23.9,4.2l109.2-56.2c6.4-2.2,17.9-17.1,5.2-32.3L356.115,272.7z M327.014,243.5l-54.1-54.1
		l135.2-135.2l36.4,71.8L327.014,243.5z M125.113,41.7h238.9l-120.2,118.7L125.113,41.7z M126.213,444.3l-71.8-36.4l108.2-106.2
		l53.1,53.1L126.213,444.3z M364.414,445.4L46.113,127l36.4-71.8l353.7,353.7L364.414,445.4z"/>
</g>
<g>
</g>
<g>
</g>
<g>
</g>
<g>
</g>
<g>
</g>
<g>
</g>
<g>
</g>
<g>
</g>
<g>
</g>
<g>
</g>
<g>
</g>
<g>
</g>
<g>
</g>
<g>
</g>
<g>
</g>
</svg>
