<?xml version="1.0" encoding="iso-8859-1"?>
<!-- Generator: Adobe Illustrator 19.0.0, SVG Export Plug-In . SVG Version: 6.00 Build 0)  -->
<svg version="1.1" id="Layer_1" xmlns="http://www.w3.org/2000/svg" xmlns:xlink="http://www.w3.org/1999/xlink" x="0px" y="0px"
	 viewBox="0 0 490 490" style="enable-background:new 0 0 490 490;" xml:space="preserve">
<g>
	<path d="M347.034,289.3l93.1-129c4.2-6.2,5.2-14.6,2.1-20.8L385.934,19c-0.9-10.6-9.9-19-20.7-19h-238.2c-9.5,0-17.6,6.5-20,15.3
		l-58.1,124.1c-3.1,7.3-2.1,14.6,2.1,20.8l91.7,127.6l-92.7,126.3c-10.8,15.3,2.5,29.1,9.4,31.2l124.8,43.7c3.1,1,17.5,3.1,23.9-7.3
		l37.4-51.8l37.5,51.8c4.2,5.2,10.4,8.3,16.6,8.3c2.1,0,129-44.7,129-44.7c6.9-1.7,20.7-16.1,9.4-31.2L347.034,289.3z
		 M245.834,147.7l-78.4-106.1h156.4L245.834,147.7z M92.634,145.6l39.5-85.3l88.8,121.3l-51.7,70.3L92.634,145.6z M184.234,446.3
		l-84.3-30.2l261.1-353.7l39.5,85.3L184.234,446.3z M305.934,445.3l-35.6-49.7l52.1-72.1l67.8,91.7L305.934,445.3z"/>
</g>
<g>
</g>
<g>
</g>
<g>
</g>
<g>
</g>
<g>
</g>
<g>
</g>
<g>
</g>
<g>
</g>
<g>
</g>
<g>
</g>
<g>
</g>
<g>
</g>
<g>
</g>
<g>
</g>
<g>
</g>
</svg>
