<?xml version="1.0" encoding="iso-8859-1"?>
<!-- Generator: Adobe Illustrator 19.0.0, SVG Export Plug-In . SVG Version: 6.00 Build 0)  -->
<svg version="1.1" id="Layer_1" xmlns="http://www.w3.org/2000/svg" xmlns:xlink="http://www.w3.org/1999/xlink" x="0px" y="0px"
	 viewBox="0 0 490 490" style="enable-background:new 0 0 490 490;" xml:space="preserve">
<g>
	<path d="M481.933,138.4l-66.6-114.5c-4.2-6.2-10.4-10.4-17.7-10.4h-9.7c-3-7.9-10.6-13.5-19.5-13.5c-11.4,0-20.8,9.4-20.8,20.8v27
		c0,11.4,9.4,20.8,20.8,20.8c8.6,0,15.4-4.7,18.7-11.8l59.3,102.3c4.2,7.3,3.1,15.6-2.1,21.8l-86.2,103.1c-3.1,5.2-8.3,7.3-14.6,7.3
		h-52c-5.2,0-10.4-3.1-14.6-7.3l-86.3-103c-5.2-6.2-6.2-14.6-2.1-21.8l58.8-101.3c3.6,6.4,10.4,10.8,18.2,10.8
		c11.4,0,20.8-8.3,20.8-19.8V20.8c0-11.4-9.4-20.8-20.8-20.8c-8.9,0-16.5,5.6-19.5,13.5h-8.6c-7.3,0-13.5,4.2-17.7,10.4l-66.6,114.4
		c-12.5,21.8-10.4,48.9,6.2,68.7l86.3,103c11.4,13.5,28.1,21.8,45.8,21.8h6.2v17.7c0,55.1-45.8,99.9-100.9,99.9
		c-54.2,0-103.9-41.4-110.6-89.1c24.9-9,42.9-32.9,42.9-60.7c0-35.4-29.1-64.5-64.5-64.5c-36.4,0-64.5,29.1-64.5,64.5
		c0,28.3,18.7,52.6,44.2,61.2c6.9,70.1,74.6,129.2,151.6,129.2c78,0,141.5-62.4,143.6-140.4v-17.7h4.2c17.7,0,34.3-7.3,45.8-21.8
		l86.3-103C492.333,187.3,494.433,160.2,481.933,138.4z M64.733,275.7c12.5,0,23.9,10.4,23.9,23.9s-10.4,23.9-23.9,23.9
		s-23.9-10.4-23.9-23.9S51.233,275.7,64.733,275.7z"/>
</g>
<g>
</g>
<g>
</g>
<g>
</g>
<g>
</g>
<g>
</g>
<g>
</g>
<g>
</g>
<g>
</g>
<g>
</g>
<g>
</g>
<g>
</g>
<g>
</g>
<g>
</g>
<g>
</g>
<g>
</g>
</svg>
