<?xml version="1.0" encoding="iso-8859-1"?>
<!-- Generator: Adobe Illustrator 19.0.0, SVG Export Plug-In . SVG Version: 6.00 Build 0)  -->
<svg version="1.1" id="Layer_1" xmlns="http://www.w3.org/2000/svg" xmlns:xlink="http://www.w3.org/1999/xlink" x="0px" y="0px"
	 viewBox="0 0 489.267 489.267" style="enable-background:new 0 0 489.267 489.267;" xml:space="preserve">
<g>
	<path d="M489.267,143.733c0-37.5-30.2-67.6-67.6-67.6s-67.6,30.2-67.6,67.6c0,30.2,19.6,55.6,46.8,64.4v99
		c0,25-19.8,44.7-44.7,44.7h-193.6v-56.5c49.7-5.9,124.9-54.9,121.7-148.5c-1-2.1-9.4-73.9-9.4-73.9c-3.4-26.4-22.9-47.9-48.1-54.9
		c-1.4-10.1-10.1-18-20.6-18c-11.4,0-20.8,9.4-20.8,20.8v33.3c0,11.4,9.4,20.8,20.8,20.8c8.6,0,15.5-5.3,18.8-12.4
		c5.2,3.9,8.8,9.8,9.3,16.5c0,0,11.4,68.7,11.4,69.7c2.5,78.9-67.7,107.2-102,106.1c-24.3-0.8-101.3-14.7-102-106.1l8.3-69.7
		c1.1-6.9,4.8-12.8,10-16.8c3.2,7.4,10.6,12.6,19.1,12.6c10.4,0,19.8-9.4,20.8-19.8v-34.1c0-11.4-9.4-20.8-20.8-20.8
		c-10.4,0-19.3,8.3-20.4,18.7c-25.7,6.4-45.6,27.6-49,55.2c0,0-9.4,71.8-9.4,73.9c-5.4,85.7,72.5,146,120.7,147.1v56.8h-28.1
		c-37.5,0-68.7,31.2-68.7,68.7s31.2,68.7,69.7,68.7s68.7-31.2,68.7-67.6v-28.1h193.5c47.9,0,86.3-38.5,86.3-86.3v-99
		C469.667,199.333,489.267,173.933,489.267,143.733z M121.967,421.533c0,15.6-12.5,28.1-28.1,28.1s-28.1-12.5-28.1-28.1
		s12.5-28.1,28.1-28.1h28.1V421.533z M421.667,170.733c-14.6,0-27-12.5-27-27s12.5-27,27-27s27,12.5,27,27
		S436.167,170.733,421.667,170.733z"/>
</g>
<g>
</g>
<g>
</g>
<g>
</g>
<g>
</g>
<g>
</g>
<g>
</g>
<g>
</g>
<g>
</g>
<g>
</g>
<g>
</g>
<g>
</g>
<g>
</g>
<g>
</g>
<g>
</g>
<g>
</g>
</svg>
