<?xml version="1.0" encoding="iso-8859-1"?>
<!-- Generator: Adobe Illustrator 19.0.0, SVG Export Plug-In . SVG Version: 6.00 Build 0)  -->
<svg version="1.1" id="Layer_1" xmlns="http://www.w3.org/2000/svg" xmlns:xlink="http://www.w3.org/1999/xlink" x="0px" y="0px"
	 viewBox="0 0 490 490" style="enable-background:new 0 0 490 490;" xml:space="preserve">
<g>
	<g>
		<path d="M245,199.7c-38.8-33.4-77-8.3-89.5,6.2c-25,29.1-25,73.9,0,102l72.8,84.3c11.9,15.3,28.1,6.2,32.3,1l73.9-85.3
			c25-29.1,25-73.9,0-102C322,191.4,287.6,165.7,245,199.7z M304.3,281.9L245,349.6l-59.3-68.7c-11.4-12.5-11.4-34.3,0-47.9
			c16-16.1,30.2-5.2,34.3,0c0,0,13.5,15.6,17.7,16.6C256.2,257,270,234,270,234c9.4-11.4,25-11.4,34.3,0
			C315.7,246.6,315.7,269.4,304.3,281.9z"/>
		<path d="M399.5,140l31.8-31.8c8.3-8.3,8.3-20.8,0-29.1s-20.8-8.3-29.1,0l-33.3,33.3c-29.4-21.6-64.7-35.8-103-39.6V41.6h19.8
			c11.4,0,20.8-9.4,20.8-20.8S297,0,285.6,0h-82.2c-11.4,0-20.8,9.4-20.8,20.8s9.4,20.8,20.8,20.8h20.8v31.2
			C118.5,83.3,35.9,172.4,35.9,280.9C35.9,396.4,129.5,490,245,490s209.1-93.6,209.1-209.1C454.1,226.6,433.4,177.1,399.5,140z
			 M245,449.4c-92.6,0-168.5-75.9-168.5-168.5S152.4,112.4,245,112.4s168.5,75.9,168.5,168.5S337.6,449.4,245,449.4z"/>
	</g>
</g>
<g>
</g>
<g>
</g>
<g>
</g>
<g>
</g>
<g>
</g>
<g>
</g>
<g>
</g>
<g>
</g>
<g>
</g>
<g>
</g>
<g>
</g>
<g>
</g>
<g>
</g>
<g>
</g>
<g>
</g>
</svg>
