<?xml version="1.0" encoding="iso-8859-1"?>
<!-- Generator: Adobe Illustrator 19.0.0, SVG Export Plug-In . SVG Version: 6.00 Build 0)  -->
<svg version="1.1" id="Layer_1" xmlns="http://www.w3.org/2000/svg" xmlns:xlink="http://www.w3.org/1999/xlink" x="0px" y="0px"
	 viewBox="0 0 490.025 490.025" style="enable-background:new 0 0 490.025 490.025;" xml:space="preserve">
<g>
	<g>
		<path d="M483.506,59.325l-53.1-53.1c-8.3-8.3-20.8-8.3-29.1,0c-8.3,8.3-8.3,20.8,0,29.1l12.4,12.7l-22.5,22.5
			c-41.4-34.9-94.8-55.9-153.2-55.9c-131.3,0-237.7,106.4-237.7,237.7s106.4,237.7,237.7,237.7s237.7-106.4,237.7-237.7
			c0-58.1-20.9-111.3-55.5-152.6l22.3-22.3l11.8,12.1c13.3,13.3,25,4.2,29.1-1C491.806,80.125,491.806,67.625,483.506,59.325z
			 M238.006,448.425c-108.3,0-196.1-87.8-196.1-196.1s87.8-196.1,196.1-196.1s196.1,87.8,196.1,196.1
			S346.306,448.425,238.006,448.425z"/>
		<path d="M268.606,243.025c-5.2-11-16.5-18.7-29.5-18.7c-18.1,0-32.7,14.6-32.7,32.7s14.6,32.7,32.7,32.7c7.7,0,14.8-2.7,20.4-7.1
			l99.2,23.4c15.8,2.4,21.8-6.2,23.9-16.6s-4.2-21.8-15.6-23.9L268.606,243.025z"/>
	</g>
</g>
<g>
</g>
<g>
</g>
<g>
</g>
<g>
</g>
<g>
</g>
<g>
</g>
<g>
</g>
<g>
</g>
<g>
</g>
<g>
</g>
<g>
</g>
<g>
</g>
<g>
</g>
<g>
</g>
<g>
</g>
</svg>
