<?xml version="1.0" encoding="iso-8859-1"?>
<!-- Generator: Adobe Illustrator 19.0.0, SVG Export Plug-In . SVG Version: 6.00 Build 0)  -->
<svg version="1.1" id="Layer_1" xmlns="http://www.w3.org/2000/svg" xmlns:xlink="http://www.w3.org/1999/xlink" x="0px" y="0px"
	 viewBox="0 0 488.925 488.925" style="enable-background:new 0 0 488.925 488.925;" xml:space="preserve">
<g>
	<path d="M482.625,453.55l-53.7-53.7l11-81.6c0-6.2-2.1-12.5-6.2-16.6l-254.8-254.9c-8.3-8.3-20.8-8.3-29.1,0l-36.4,36.4l-28.7-28.6
		l19.2-19.2c8.3-8.3,8.3-20.8,0-29.1s-20.8-8.3-29.1,0l-68.6,68.6c-8.3,8.3-8.3,20.8,0,29.1c11.5,11.5,25.3,4.4,29.1,0l20.4-20.4
		l28.9,28.3l-36.8,36.8c-11.4,12.5-4.6,25.2,0,29.1l254.9,254.9c7.1,7.2,15.6,6.2,16.6,6.2l81.2-9.3l53,53
		c12.4,11.7,24.6,4.5,29.1,0C491.025,474.35,491.025,461.85,482.625,453.55z M293.825,366.65l14-14c8.3-8.3,8.3-20.8,0-29.1
		s-20.8-8.3-29.1,0l-14,14l-39.5-39.5l14-14c8.3-8.3,8.3-20.8,0-29.1s-20.8-8.3-29.1,0l-14,14l-39.3-39.3l13.8-14.3
		c8.3-8.3,8.3-20.8,0-29.1s-20.8-8.3-29.1,0l-14,14l-37.1-36.9l73.9-72.8l233,233l-8.3,66.6l-64.5,7.3L293.825,366.65z"/>
</g>
<g>
</g>
<g>
</g>
<g>
</g>
<g>
</g>
<g>
</g>
<g>
</g>
<g>
</g>
<g>
</g>
<g>
</g>
<g>
</g>
<g>
</g>
<g>
</g>
<g>
</g>
<g>
</g>
<g>
</g>
</svg>
