<?xml version="1.0" encoding="iso-8859-1"?>
<!-- Generator: Adobe Illustrator 19.0.0, SVG Export Plug-In . SVG Version: 6.00 Build 0)  -->
<svg version="1.1" id="Layer_1" xmlns="http://www.w3.org/2000/svg" xmlns:xlink="http://www.w3.org/1999/xlink" x="0px" y="0px"
	 viewBox="0 0 488.938 488.938" style="enable-background:new 0 0 488.938 488.938;" xml:space="preserve">
<g>
	<path d="M482.625,453.599l-52.7-52.7l11.1-82.5c0-6.2-2.1-12.5-6.2-16.6l-255.9-255c-8.3-8.3-20.8-8.3-29.1,0l-37.1,36.7l-28.1-28
		l20.4-20.1c8.3-8.3,8.3-20.8,0-29.1s-20.8-8.3-29.1,0l-69.7,68.6c-8.3,8.3-8.3,20.8,0,29.1c11.9,11.9,25,4.2,29.1,0l20.1-19.7
		l28.4,27.9l-37,36.6c-11.4,12.4-4.2,25,0,29.1l63.2,63.2c-23.6,40.6-48.6,91.8-48.6,125.1c0,65.5,46.8,118.6,105.1,118.6
		c48.4,0,89-37.4,101.2-87.1l35,35c4.2,4.2,9.4,6.2,14.6,6.2c6.4,0,83.4-9.2,83.4-9.2l52.9,52.9c4.2,4.2,17.5,11.7,29.1,0
		C491.025,474.399,491.025,461.899,482.625,453.599z M166.425,443.199c-35.4,0-64.5-35.4-64.5-78c0-28.1,35.4-91.5,64.5-138.4
		c30.2,45.8,64.5,109.2,64.5,138.4C230.925,407.799,201.725,443.199,166.425,443.199z M267.425,339.299
		c-16.2-61.9-76.3-149.6-84.4-160.4c-4.2-5.2-18.9-15.5-33.3,0c-2.3,3.1-9,12.6-17.7,26l-41.6-41.5l73.9-73.9l234.1,234.1l-8.3,66.6
		l-64.5,7.3L267.425,339.299z"/>
</g>
<g>
</g>
<g>
</g>
<g>
</g>
<g>
</g>
<g>
</g>
<g>
</g>
<g>
</g>
<g>
</g>
<g>
</g>
<g>
</g>
<g>
</g>
<g>
</g>
<g>
</g>
<g>
</g>
<g>
</g>
</svg>
