<?xml version="1.0" encoding="iso-8859-1"?>
<!-- Generator: Adobe Illustrator 19.0.0, SVG Export Plug-In . SVG Version: 6.00 Build 0)  -->
<svg version="1.1" id="Layer_1" xmlns="http://www.w3.org/2000/svg" xmlns:xlink="http://www.w3.org/1999/xlink" x="0px" y="0px"
	 viewBox="0 0 491.038 491.038" style="enable-background:new 0 0 491.038 491.038;" xml:space="preserve">
<g>
	<path d="M484.825,6.799c-8.3-8.3-20.9-8.3-29.2,0l-91.2,90.3l-13.1-13.1c-31.4-31.4-78.2-23.9-102.2,0l-225.1,224.1
		c-11.4,11.4-4.2,25,0,29.2l50.2,50.2l-25.1,23.9l-13.7-13.7c-8.3-8.3-20.9-8.3-29.2,0s-8.3,20.9,0,29.2l57.3,57.3
		c12.8,11.7,25,4.2,29.2,0c8.3-8.3,8.3-20.9,0-29.2l-13.5-13.5l24.5-24.5l49.5,49.5c12.8,11.8,25,4.2,28.1,0l226.2-224.1
		c28.1-28.1,28.1-74,0-102.2l-14-14l91.2-90.3C493.125,27.599,493.125,15.099,484.825,6.799z M377.425,212.099l-210.6,210.6
		l-100.1-100.1l209.6-211.6c12.5-11.5,33.4-11.5,44.8,0l56.3,56.3C389.925,179.799,389.925,199.599,377.425,212.099z"/>
</g>
<g>
</g>
<g>
</g>
<g>
</g>
<g>
</g>
<g>
</g>
<g>
</g>
<g>
</g>
<g>
</g>
<g>
</g>
<g>
</g>
<g>
</g>
<g>
</g>
<g>
</g>
<g>
</g>
<g>
</g>
</svg>
