<?xml version="1.0" encoding="iso-8859-1"?>
<!-- Generator: Adobe Illustrator 19.0.0, SVG Export Plug-In . SVG Version: 6.00 Build 0)  -->
<svg version="1.1" id="Layer_1" xmlns="http://www.w3.org/2000/svg" xmlns:xlink="http://www.w3.org/1999/xlink" x="0px" y="0px"
	 viewBox="0 0 489 489" style="enable-background:new 0 0 489 489;" xml:space="preserve">
<g>
	<path d="M388.6,207.8l-1-148.5c0-32.3-27-59.3-59.3-59.3H59.8C27.5,0,0.5,27,0.5,59.3l1,380.8c0,27,21.8,48.9,48.9,48.9h287.1
		c25.1,0,45.7-18.8,49.4-43.1c85.9-16.7,101.6-87,101.6-119.2C488.5,294.4,472.8,227,388.6,207.8z M297.8,367.6
		c-7.3-12.3-26.3-59.1,12.8-98.1c39.5-39.5,85.9-20.1,98.1-12.8L297.8,367.6z M58.8,40.6h268.4c10.4,0,18.7,8.3,18.7,18.7v66.6H41.1
		l-1-66.6C40.1,48.9,48.4,40.6,58.8,40.6z M337.6,448.4H50.5c-4.2,0-8.3-3.1-8.3-8.3V166.5H347v41.3
		c-80.2,17.6-101.3,86.7-99.9,118.9c3.8,87.3,73.9,113.9,97.2,118.4C342.9,447,340.6,448.4,337.6,448.4z M425,383.9
		c-38.6,38.6-85.9,20.1-98.1,12.8l110.9-110.9C445.1,298.1,463.9,345,425,383.9z"/>
</g>
<g>
</g>
<g>
</g>
<g>
</g>
<g>
</g>
<g>
</g>
<g>
</g>
<g>
</g>
<g>
</g>
<g>
</g>
<g>
</g>
<g>
</g>
<g>
</g>
<g>
</g>
<g>
</g>
<g>
</g>
</svg>
