<?xml version="1.0" encoding="iso-8859-1"?>
<!-- Generator: Adobe Illustrator 19.0.0, SVG Export Plug-In . SVG Version: 6.00 Build 0)  -->
<svg version="1.1" id="Layer_1" xmlns="http://www.w3.org/2000/svg" xmlns:xlink="http://www.w3.org/1999/xlink" x="0px" y="0px"
	 viewBox="0 0 489.289 489.289" style="enable-background:new 0 0 489.289 489.289;" xml:space="preserve">
<g>
	<g>
		<g>
			<path d="M103.571,214.589c44.7,0,82.2-27,96.8-65.5c14.9-0.5,73.5-0.5,88.4,0c14.6,38.5,52,65.5,96.8,65.5
				c57.2,0,103-44.7,103-98.8c0-39.5-23.9-74.9-60.3-90.5c-58.9-18.5-219.4-46.2-367.3,0c-36.4,15.6-60.4,51-60.4,90.5
				C0.571,169.889,46.371,214.589,103.571,214.589z M77.571,61.689c125-32.5,220.8-24,333.9,0l0,0c21.8,9.4,36.4,30.2,36.4,53.1
				c0,32.3-28.1,58.3-62.4,58.3c-30.2,0-55.1-19.8-60.3-47.9c-1-9.4-9.4-16.6-18.7-16.6c-20.9-1-102.9-1-123.8,0
				c-9.4,0-17.7,7.3-18.7,16.6c-5.2,28.1-30.2,47.9-60.3,47.9c-34.3,0-62.4-26-62.4-58.3C41.171,91.889,55.771,71.089,77.571,61.689
				z"/>
			<path d="M489.071,464.289c0-119.6-97.8-217.4-217.4-217.4h-54.1c-119.6,0-217.4,97.8-217.4,217.4c0,0-2.7,22.9,20.8,25h447.3
				C492.271,486.989,489.071,464.289,489.071,464.289z M41.671,448.689c8.3-90.5,84.3-161.3,175.8-161.3h54.1
				c91.5,0,167.5,70.7,175.8,161.3L41.671,448.689L41.671,448.689z"/>
		</g>
		<path d="M197.971,380.389h36.8v37.4c0,5.5,4.4,9.9,9.9,9.9l0,0c5.5,0,9.9-4.4,9.9-9.9v-37.4h36.8c5.5,0,9.9-4.4,9.9-9.9l0,0
			c0-5.5-4.4-9.9-9.9-9.9h-36.8v-36.8c0-5.5-4.4-9.9-9.9-9.9l0,0c-5.5,0-9.9,4.4-9.9,9.9v36.8h-36.8c-5.5,0-9.9,4.4-9.9,9.9l0,0
			C188.071,375.889,192.471,380.389,197.971,380.389z"/>
	</g>
</g>
<g>
</g>
<g>
</g>
<g>
</g>
<g>
</g>
<g>
</g>
<g>
</g>
<g>
</g>
<g>
</g>
<g>
</g>
<g>
</g>
<g>
</g>
<g>
</g>
<g>
</g>
<g>
</g>
<g>
</g>
</svg>
