<?xml version="1.0" encoding="iso-8859-1"?>
<!-- Generator: Adobe Illustrator 19.0.0, SVG Export Plug-In . SVG Version: 6.00 Build 0)  -->
<svg version="1.1" id="Layer_1" xmlns="http://www.w3.org/2000/svg" xmlns:xlink="http://www.w3.org/1999/xlink" x="0px" y="0px"
	 viewBox="0 0 488.782 488.782" style="enable-background:new 0 0 488.782 488.782;" xml:space="preserve">
<g>
	<g>
		<path d="M182.6,83.6h-65v-65c0-9.5-7.7-17.2-17.2-17.2h-1c-9.5,0-17.2,7.7-17.2,17.2v65h-65C7.7,83.6,0,91.3,0,100.8v1
			c0,9.5,7.7,17.2,17.2,17.2h65v65c0,9.5,7.7,17.2,17.2,17.2h1c9.5,0,17.2-7.7,17.2-17.2v-66.1h65c9.5,0,17.2-7.7,17.2-17.2l0,0
			C199.7,91.3,192.1,83.6,182.6,83.6z"/>
		<path d="M454.2,55.4C430,28,351.9-6.1,289.8,55.4c-35.4,36.4-43.7,90.5-20.8,135.2c-12.1,13.1-63.8,64.8-76.9,76.9
			c-44.7-22.9-98.8-14.6-135.2,20.8c-61.5,62.1-27.4,140.2,0,164.4c65.4,65.4,133.3,22.3,168.5,0c50.7-31.6,164.3-125.8,228.8-228.8
			C476.3,188.5,519.5,120.7,454.2,55.4z M418.8,204.1c-70.1,107.9-167.9,184-213.2,213.2c-15.6,10.4-66.4,49.8-117.6,5.2
			c-13.5-11.8-41.5-62.5,0-104c26-26,65.5-29.1,95.7-7.3c8.3,6.2,18.7,5.2,27-1c17.2-15.7,85.2-83.6,100.8-100.8
			c6.2-8.3,7.3-18.7,1-27c-21.8-30.2-18.7-69.7,7.3-95.7c41.5-41.5,92.3-13.5,104,0C468.6,137.8,429,188.4,418.8,204.1z"/>
	</g>
</g>
<g>
</g>
<g>
</g>
<g>
</g>
<g>
</g>
<g>
</g>
<g>
</g>
<g>
</g>
<g>
</g>
<g>
</g>
<g>
</g>
<g>
</g>
<g>
</g>
<g>
</g>
<g>
</g>
<g>
</g>
</svg>
