<?xml version="1.0" encoding="iso-8859-1"?>
<!-- Generator: Adobe Illustrator 19.0.0, SVG Export Plug-In . SVG Version: 6.00 Build 0)  -->
<svg version="1.1" id="Layer_1" xmlns="http://www.w3.org/2000/svg" xmlns:xlink="http://www.w3.org/1999/xlink" x="0px" y="0px"
	 viewBox="0 0 490.038 490.038" style="enable-background:new 0 0 490.038 490.038;" xml:space="preserve">
<g>
	<g>
		<path d="M455.725,290.04l-194.1-194.2c-11.4-11.4-28-18.7-44.6-19.7l-117.9-5.8l-63.8-63.8c-8.3-8.3-20.8-8.3-29.1,0
			s-8.3,20.8,0,29.1l62.7,62.7l6.9,118c1,17.6,8.3,33.2,19.7,44.6l194.1,194.1c69.7,63,140.2,25.9,166.1,0
			C501.525,409.44,501.425,335.64,455.725,290.04z M427.725,426.04c-48.3,41.6-93.4,14.5-108,0l-194.1-194.2
			c-5.2-4.2-8.3-11.4-8.3-17.6l-6.2-102.8l103.8,5.2c6.2,1,12.5,3.1,17.6,8.3l195.2,193.1
			C457.825,348.14,457.825,395.84,427.725,426.04z"/>
		<path d="M200.425,170.64c-8.3-8.3-20.8-8.3-29.1,0s-8.3,20.8,0,29.1l158.8,158.8c12.2,11.2,24.9,4.2,29.1,1
			c8.3-8.3,8.3-20.8,0-29.1L200.425,170.64z"/>
	</g>
</g>
<g>
</g>
<g>
</g>
<g>
</g>
<g>
</g>
<g>
</g>
<g>
</g>
<g>
</g>
<g>
</g>
<g>
</g>
<g>
</g>
<g>
</g>
<g>
</g>
<g>
</g>
<g>
</g>
<g>
</g>
</svg>
