<?xml version="1.0" encoding="iso-8859-1"?>
<!-- Generator: Adobe Illustrator 19.0.0, SVG Export Plug-In . SVG Version: 6.00 Build 0)  -->
<svg version="1.1" id="Layer_1" xmlns="http://www.w3.org/2000/svg" xmlns:xlink="http://www.w3.org/1999/xlink" x="0px" y="0px"
	 viewBox="0 0 490 490" style="enable-background:new 0 0 490 490;" xml:space="preserve">
<g>
	<g>
		<path d="M253.85,246c-4.2-3.1-7.3-8.3-7.3-13.6V66.7c0-36.5-29.2-66.7-66.7-66.7c-36.5,0-66.7,30.2-66.7,66.7v166.8
			c0,5.2-3.1,10.4-7.3,13.6c-36.5,25-58.4,66.7-58.4,110.5c0,73,59.4,132.4,132.4,132.4s132.4-59.4,132.4-133.4
			C312.15,311.7,290.35,271.1,253.85,246z M128.75,280.4c15.6-10.4,25-29.2,25-48V66.7c0-14.6,11.5-26.1,26.1-26.1
			c13.6,0,26.1,11.5,26.1,26.1v165.8c0,19.8,9.4,37.5,25,48c13.5,9,24.2,21.6,31.3,36H97.45C104.45,302,115.25,289.4,128.75,280.4z
			 M179.75,448.3c-49.5,0-90.8-39.8-91.7-90.1h183.4C270.65,407.5,229.25,448.3,179.75,448.3z"/>
		<path d="M421.65,131.4h-35.4V96c0-11.5-9.4-20.9-20.9-20.9s-20.9,9.4-20.9,20.9v35.4h-35.4c-11.5,0-20.9,9.4-20.9,20.9
			s9.4,20.9,20.9,20.9h35.4v35.4c0,11.5,9.4,20.9,20.9,20.9s20.9-9.4,20.9-20.9v-35.4h35.4c11.5,0,20.9-9.4,20.9-20.9
			C442.55,140.7,433.15,131.4,421.65,131.4z"/>
	</g>
</g>
<g>
</g>
<g>
</g>
<g>
</g>
<g>
</g>
<g>
</g>
<g>
</g>
<g>
</g>
<g>
</g>
<g>
</g>
<g>
</g>
<g>
</g>
<g>
</g>
<g>
</g>
<g>
</g>
<g>
</g>
</svg>
