<?xml version="1.0" encoding="iso-8859-1"?>
<!-- Generator: Adobe Illustrator 19.0.0, SVG Export Plug-In . SVG Version: 6.00 Build 0)  -->
<svg version="1.1" id="Layer_1" xmlns="http://www.w3.org/2000/svg" xmlns:xlink="http://www.w3.org/1999/xlink" x="0px" y="0px"
	 viewBox="0 0 490.357 490.357" style="enable-background:new 0 0 490.357 490.357;" xml:space="preserve">
<g>
	<path d="M483.422,257.2l-58.2-58.2c14.7-20.6,23.3-45.8,23.3-73c0-69.6-56.4-126-126-126c-67.3,0-122.3,52.8-125.8,119.2
		c-6.1,3.4-12.6,6.9-18.4,11c-33.3-22.9-67.7-30.2-98.9-18.7c-70.8,25-98.9,131.2-63.5,242.7c16.6,54,50.2,96,83.2,129
		c16.9,16.9,44.6,1.4,42.7-20.8c-0.2-2.1,0-4.2,0-6.2c0-50,20.8-81.2,35.4-81.2s35.4,31.2,35.4,81.2c0,2.1,0,4.2,0,6.2
		c-3.1,25.8,27.4,33.5,42.7,21.9c36.5-29.2,73.2-81.8,88.5-146.9c7.6-30.3,11.1-60.6,9.9-89.3c15.5-3.9,29.8-10.8,42.4-19.8
		l58.1,58.1c14.5,11.6,26,4.2,29.2,0C491.822,278,491.822,265.5,483.422,257.2z M322.522,41.1c46.9,0,84.9,38,84.9,84.9
		s-38,84.9-84.9,84.9s-84.9-38-84.9-84.9S275.622,41.1,322.522,41.1z M304.322,327c-1,5.2-17.9,67.8-52.1,104.2
		c-6.2-57.3-36.5-97.9-75-97.9s-68.7,40.6-75,97.9c-19.8-22.9-36.5-54.2-47.9-88.5c-28.1-86.4-10.4-175,38.5-191.6
		c28.1-10.4,57.3,8.3,71.9,20.8c7.3,6.2,18.7,6.2,26,0c3.9-3.4,7.6-6.3,11.2-8.9c14.9,48.6,58.4,84.7,110.8,88.7
		C313.622,275.7,310.922,301.3,304.322,327z"/>
</g>
<g>
</g>
<g>
</g>
<g>
</g>
<g>
</g>
<g>
</g>
<g>
</g>
<g>
</g>
<g>
</g>
<g>
</g>
<g>
</g>
<g>
</g>
<g>
</g>
<g>
</g>
<g>
</g>
<g>
</g>
</svg>
