<?xml version="1.0" encoding="iso-8859-1"?>
<!-- Generator: Adobe Illustrator 19.0.0, SVG Export Plug-In . SVG Version: 6.00 Build 0)  -->
<svg version="1.1" id="Layer_1" xmlns="http://www.w3.org/2000/svg" xmlns:xlink="http://www.w3.org/1999/xlink" x="0px" y="0px"
	 viewBox="0 0 490 490" style="enable-background:new 0 0 490 490;" xml:space="preserve">
<g>
	<g>
		<path d="M260.15,126.9h-30.2V21.8c0-11.4-9.4-20.8-20.8-20.8H72.85c-11.4,0-20.8,9.4-20.8,20.8v105.1h-31.2
			c-11.4,0-20.8,9.4-20.8,20.8v321.5c0,11.4,9.4,20.8,20.8,20.8h239.3c11.4,0,20.8-9.4,20.8-20.8V147.7
			C280.95,136.3,271.55,126.9,260.15,126.9z M92.65,41.6h95.7v85.3h-95.7C92.65,126.9,92.65,41.6,92.65,41.6z M240.35,449.4H41.65
			v-38.5h31.2c11.4,0,20.8-9.4,20.8-20.8s-9.4-20.8-20.8-20.8h-31.2v-40.6h31.2c11.4,0,19.8-8.3,20.8-20.8
			c0-11.4-9.4-20.8-20.8-20.8h-31.2v-40.6h31.2c11.4,0,20.8-9.4,20.8-20.8c0-11.4-9.4-20.8-20.8-20.8h-31.2v-36.4h198.7V449.4
			L240.35,449.4z"/>
		<path d="M469.25,0c-7.7,0-14.4,4.2-18,10.4h-49.6c-11.4,0-20.8,9.4-20.8,20.8s9.4,20.8,20.8,20.8h46.8v23.9h-45.8
			c-11.4,0-20.8,9.4-20.8,20.8s9.4,20.8,20.8,20.8h45.8v19.8h-45.8c-11.4,0-20.8,9.4-20.8,20.8c0,11.4,9.4,20.8,20.8,20.8h45.8v4.2
			l-30.2,30.2c-19.8,18.7-30.2,43.7-30.2,68.6v187.3c0,11.4,9.4,20.8,20.8,20.8s20.8-9.4,20.8-19.8V281.9c0-14.6,6.2-28.1,17.7-39.5
			l36.4-36.4c4.2-4.2,6.2-9.4,6.2-14.6V20.8C490.05,9.4,480.65,0,469.25,0z"/>
	</g>
</g>
<g>
</g>
<g>
</g>
<g>
</g>
<g>
</g>
<g>
</g>
<g>
</g>
<g>
</g>
<g>
</g>
<g>
</g>
<g>
</g>
<g>
</g>
<g>
</g>
<g>
</g>
<g>
</g>
<g>
</g>
</svg>
