<?xml version="1.0" encoding="iso-8859-1"?>
<!-- Generator: Adobe Illustrator 19.0.0, SVG Export Plug-In . SVG Version: 6.00 Build 0)  -->
<svg version="1.1" id="Layer_1" xmlns="http://www.w3.org/2000/svg" xmlns:xlink="http://www.w3.org/1999/xlink" x="0px" y="0px"
	 viewBox="0 0 490.013 490.013" style="enable-background:new 0 0 490.013 490.013;" xml:space="preserve">
<g>
	<g>
		<path d="M310.607,480.625c-7.1-7.1-8.3-14.2-8.3-29.2c0-66.7-30.2-113.5-57.3-113.5s-57.3,46.9-57.3,113.5
			c0,12.6,0.5,20.3-8.3,29.2c-10.4,10.4-27.1,11.5-38.5,3.1c-49-37.5-89.6-95.8-112.5-166.6c-21.9-65.6-27.1-134.4-12.5-191.6
			c14.5-60.5,48.9-103.2,95.8-118.8c41.7-13.5,89.6-4.2,133.3,26c43.7-31.2,91.7-40.6,133.3-26c46.9,15.6,80.2,57.3,95.8,118.7
			c14.6,57.3,9.4,126-12.5,192.7c-24,69.8-63.5,129.2-112.5,166.6C343.907,487.925,325.207,496.725,310.607,480.625z
			 M245.007,297.325c51,0,92.7,59.4,97.9,138.5c34.4-32.3,62.5-79.2,80.2-131.2c19.8-59.4,24-119.8,11.5-169.8
			c-11.5-46.9-36.5-79.2-68.7-89.6c-32.3-11.5-70.8,0-108.3,29.2c-7.3,6.2-17.7,6.2-25,0c-36.5-29.2-75-40.6-108.3-29.2
			s-57.3,42.7-68.7,89.6c-12.5,51-8.3,110.4,11.5,169.8c17.7,52.1,45.8,98.9,80.2,131.2
			C152.307,357.725,194.007,297.325,245.007,297.325z"/>
	</g>
</g>
<g>
</g>
<g>
</g>
<g>
</g>
<g>
</g>
<g>
</g>
<g>
</g>
<g>
</g>
<g>
</g>
<g>
</g>
<g>
</g>
<g>
</g>
<g>
</g>
<g>
</g>
<g>
</g>
<g>
</g>
</svg>
