<?xml version="1.0" encoding="iso-8859-1"?>
<!-- Generator: Adobe Illustrator 19.0.0, SVG Export Plug-In . SVG Version: 6.00 Build 0)  -->
<svg version="1.1" id="Layer_1" xmlns="http://www.w3.org/2000/svg" xmlns:xlink="http://www.w3.org/1999/xlink" x="0px" y="0px"
	 viewBox="0 0 488.9 488.9" style="enable-background:new 0 0 488.9 488.9;" xml:space="preserve">
<g>
	<path d="M361.45,81.2h-25V20.8c0-11.4-9.4-20.8-20.8-20.8H71.25c-11.5,0-20.8,9.4-20.8,20.8v447.3c0,11.4,9.4,20.8,20.8,20.8
		s20.8-9.4,20.8-20.8V40.6h202.9v40.6h-23.9c-42.7,0-77,34.3-77,77v145.6c0,42.7,34.3,77,77,77h30c6.6,16.4,3.3,23.9,3.3,23.9
		c-4.2,4.2-9.4,10.4-10.4,19.8c-1,11.4,5.2,22.9,15.6,30.2c7.3,5.2,42.7,12.5,49.9,12.5c9.4,0,17.7-6.2,20.8-14.6
		c2.1-10.4-4.2-21.8-15.6-23.9l-21.8-4.2c1.2-3.7,4.2-12.5,4.2-18.7c0-7.5-0.8-15.8-2.5-25h16.9c42.7,0,77-35.4,77-78V158.2
		C438.45,115.5,404.15,81.2,361.45,81.2z M270.95,121.7h90.5c19.8,0,36.4,16.6,36.4,36.4v65.5h-163.3v-65.5
		C234.55,138.4,251.25,121.7,270.95,121.7z M361.45,339.2h-90.5c-19.8,0-36.4-16.6-36.4-36.4v-37.5h163.3v37.5
		C397.95,322.5,381.25,339.2,361.45,339.2z"/>
</g>
<g>
</g>
<g>
</g>
<g>
</g>
<g>
</g>
<g>
</g>
<g>
</g>
<g>
</g>
<g>
</g>
<g>
</g>
<g>
</g>
<g>
</g>
<g>
</g>
<g>
</g>
<g>
</g>
<g>
</g>
</svg>
