<?xml version="1.0" encoding="iso-8859-1"?>
<!-- Generator: Adobe Illustrator 19.0.0, SVG Export Plug-In . SVG Version: 6.00 Build 0)  -->
<svg version="1.1" id="Layer_1" xmlns="http://www.w3.org/2000/svg" xmlns:xlink="http://www.w3.org/1999/xlink" x="0px" y="0px"
	 viewBox="0 0 489.1 489.1" style="enable-background:new 0 0 489.1 489.1;" xml:space="preserve">
<g>
	<path d="M360.65,79.4c3.6-7.3,5.5-15.6,5.5-24.3c0-30.2-25-55.1-55.1-55.1c-22.8,0-42.7,14.3-51,34.3H66.55
		c-11.4,0-20.8,9.4-20.8,20.8v413c0,11.4,9.4,20.8,20.8,20.8c11.4,0,19.8-9.4,19.8-19.8V76h173.7c0.5,1.2,1.1,2.4,1.7,3.6
		c-46.9,10.5-81.8,52.3-81.8,102.5v85.3c0,58.3,46.8,105.1,105.1,105.1h2.8c-0.7,1.3-1.6,2.9-2.8,4.2c-3.1,4.2-6.2,7.3-8.3,12.5
		c-8.3,14.6-7.3,30.2-7.3,41.6c0,16.6,9.4,30.2,12.5,33.3c7.3,8.3,35.4,25,40.6,25s10.4-2.1,14.6-7.3c8.3-8.3,8.3-20.8,0-29.1
		c-6.2-6.2-26.1-12.3-27-22.9c-1.8-19.5,12.5-35.4,14.6-40.6c3-5.3,5-11,5.9-16.6h7.6c57.2,0,105.1-46.8,105.1-105.1v-85.3
		C443.15,131.6,407.95,89.7,360.65,79.4z M311.05,40.6c8.3,0,14.6,6.2,14.6,14.6s-6.2,14.6-14.6,14.6c-8.3,0-14.6-6.2-14.6-14.6
		S303.75,40.6,311.05,40.6z M285.05,117.6h53.1c35.4,0,64.5,29.1,64.5,64.5v21.8h-182.1v-20.8
		C220.55,147.7,249.65,117.6,285.05,117.6z M338.05,332.9h-53.1c-35.4,0-64.5-29.1-64.5-64.5v-22.9h182.1v22.9
		C402.55,303.8,373.45,332.9,338.05,332.9z"/>
</g>
<g>
</g>
<g>
</g>
<g>
</g>
<g>
</g>
<g>
</g>
<g>
</g>
<g>
</g>
<g>
</g>
<g>
</g>
<g>
</g>
<g>
</g>
<g>
</g>
<g>
</g>
<g>
</g>
<g>
</g>
</svg>
