<?xml version="1.0" encoding="iso-8859-1"?>
<!-- Generator: Adobe Illustrator 19.0.0, SVG Export Plug-In . SVG Version: 6.00 Build 0)  -->
<svg version="1.1" id="Layer_1" xmlns="http://www.w3.org/2000/svg" xmlns:xlink="http://www.w3.org/1999/xlink" x="0px" y="0px"
	 viewBox="0 0 489 489" style="enable-background:new 0 0 489 489;" xml:space="preserve">
<g>
	<g>
		<path d="M316.3,6.762c-8.3-8.3-22.9-8.3-30.2,0c-1.9,1.9-39.9,41.7-79.6,95.1c-22.6-28.2-40.2-47.4-41.1-48.2
			c-3.1-4.2-15.3-11.9-29.1,0C122.8,68.162,0,201.262,0,282.462c0,86.3,67.6,157.1,150.8,157.1c9,0,17,0,25-1.9
			c33.3,31.5,77.5,50.8,125.9,50.8c103,0,187.3-87.4,187.3-194.5C489,191.963,334,24.462,316.3,6.762z M40.6,282.462
			c0-48.9,69.7-138.4,110.3-184.1c8.2,9.1,19.7,22.3,31.5,37.3c-45,65.8-67.9,118.8-67.9,158.2c0,38.6,10.9,74.6,29.7,104.8
			C86.9,395.063,40.6,344.563,40.6,282.462z M301.7,447.862c-81.1,0-146.7-68.7-146.7-154c0-33.3,27-89.5,75.9-156.1
			c27-36.4,54.1-68.7,70.7-87.4c52,57.2,146.7,177.9,146.7,243.4C448.4,379.163,382.9,447.862,301.7,447.862z"/>
		<path d="M403.7,270.962c-11.4-1-21.8,6.2-22.9,17.7c-4.2,30.2-20.8,56.2-45.8,70.7c-9.4,6.2-12.8,18.9-7.3,28.1
			c9.7,16.1,25,9.4,28.1,6.2c35.4-20.8,60.3-58.3,65.5-99.9C422.4,282.462,415.1,272.063,403.7,270.962z"/>
	</g>
</g>
<g>
</g>
<g>
</g>
<g>
</g>
<g>
</g>
<g>
</g>
<g>
</g>
<g>
</g>
<g>
</g>
<g>
</g>
<g>
</g>
<g>
</g>
<g>
</g>
<g>
</g>
<g>
</g>
<g>
</g>
</svg>
