<?xml version="1.0" encoding="iso-8859-1"?>
<!-- Generator: Adobe Illustrator 19.0.0, SVG Export Plug-In . SVG Version: 6.00 Build 0)  -->
<svg version="1.1" id="Layer_1" xmlns="http://www.w3.org/2000/svg" xmlns:xlink="http://www.w3.org/1999/xlink" x="0px" y="0px"
	 viewBox="0 0 488.9 488.9" style="enable-background:new 0 0 488.9 488.9;" xml:space="preserve">
<g>
	<path d="M422.209,401.5V255.8c0-37.5-30.2-67.6-67.6-67.6c-37.5,0-67.6,30.2-67.6,67.6v139.4c0,29.1-23.9,53.1-53.1,53.1
		c-24.8,0-45.8-17.3-51.5-40.5c39.7-10.4,69.2-46.5,69.2-88.5V178.9c0-32.9-17.3-61.9-43.3-78.3c8.2-10.6,13.2-23.8,13.2-38.2
		c0-34.3-28.1-62.4-62.4-62.4s-62.4,28.1-62.4,62.4c0,14.4,4.9,27.6,13.2,38.2c-26,16.4-43.3,45.4-43.3,78.3v139.4
		c0,44.6,31.8,82,73.8,90.7c6.7,44.7,45.3,79.9,92.6,79.9c46,0,87.9-34.1,95.8-87.4V255.8c0-14.6,12.5-27,27-27s27,12.5,27,27v145.6
		c0,11.4,9.4,20.8,20.8,20.8S423.209,412.9,422.209,401.5z M158.909,40.5c11.4,0,21.8,10.4,21.8,21.8c0,12.5-10.4,21.8-21.8,21.8
		c-12.5,0-21.8-9.4-21.8-21.8S146.409,40.5,158.909,40.5z M106.909,319.3V178.9c0-29.1,22.9-52,52-52c28.1,0,52,22.9,52,52v140.4
		c0,29.1-22.9,52-52,52S106.909,348.4,106.909,319.3z"/>
</g>
<g>
</g>
<g>
</g>
<g>
</g>
<g>
</g>
<g>
</g>
<g>
</g>
<g>
</g>
<g>
</g>
<g>
</g>
<g>
</g>
<g>
</g>
<g>
</g>
<g>
</g>
<g>
</g>
<g>
</g>
</svg>
