<?xml version="1.0" encoding="iso-8859-1"?>
<!-- Generator: Adobe Illustrator 19.0.0, SVG Export Plug-In . SVG Version: 6.00 Build 0)  -->
<svg version="1.1" id="Layer_1" xmlns="http://www.w3.org/2000/svg" xmlns:xlink="http://www.w3.org/1999/xlink" x="0px" y="0px"
	 viewBox="0 0 486.96 486.96" style="enable-background:new 0 0 486.96 486.96;" xml:space="preserve">
<g>
	<g>
		<path d="M440.93,93.8c5.9-9.4,9.3-20.6,9.3-32.8c0-34.1-27.9-61-61-61c-34.1,0-61,27.9-61,61c0,12.1,3.5,23.3,9.5,32.7
			c-26.3,8-45.7,32.6-45.7,61.4v164.4c0,35.1,28.9,64.1,64.1,64.1l0,0c-2.9,15.7,1.4,32.9,12,45.5c15.4,8.5,13.4,20.7,9.3,25.8
			c-6.2,8.3-5.2,21.7,4.1,27.9c13.1,9.2,24.8,1,28.9-4.1c15.5-19.6,15.3-56.9-10.3-76.5c-3.5-2.7-6-11-0.5-18.6h22.6
			c35.1,0,64.1-27.9,64.1-64.1V155.1C486.43,126.4,467.13,101.9,440.93,93.8z M389.33,41.4c11.4,0,20.7,9.3,20.7,20.7
			c0,10.3-9.3,19.6-20.7,19.6c-11.4,0-20.7-8.3-20.7-19.6S377.93,41.4,389.33,41.4z M446.13,320.5c0,13.4-10.3,23.8-23.8,23.8h-66.2
			c-13.4,0-23.8-10.3-23.8-23.8V156.1c0-13.4,10.3-23.8,23.8-23.8l66.2-1c13.4,0,23.8,10.3,23.8,23.8V320.5L446.13,320.5z"/>
		<path d="M135.03,129.3c-2.7-7.2-20.9-16.9-33.1,0C91.53,145.8,0.63,287.4,0.63,351.5c0,70.3,52.7,128.2,117.8,128.2
			s118.9-57.9,117.9-128.2C236.33,287.4,145.33,144.8,135.03,129.3z M195.93,351.5c0,48.6-35.1,87.9-77.5,87.9s-77.5-39.3-77.5-87.9
			c0-33.1,42.4-114.7,77.5-172.6C153.63,236.8,197.03,317.4,195.93,351.5z"/>
	</g>
</g>
<g>
</g>
<g>
</g>
<g>
</g>
<g>
</g>
<g>
</g>
<g>
</g>
<g>
</g>
<g>
</g>
<g>
</g>
<g>
</g>
<g>
</g>
<g>
</g>
<g>
</g>
<g>
</g>
<g>
</g>
</svg>
