<?xml version="1.0" encoding="iso-8859-1"?>
<!-- Generator: Adobe Illustrator 19.0.0, SVG Export Plug-In . SVG Version: 6.00 Build 0)  -->
<svg version="1.1" id="Layer_1" xmlns="http://www.w3.org/2000/svg" xmlns:xlink="http://www.w3.org/1999/xlink" x="0px" y="0px"
	 viewBox="0 0 490.049 490.049" style="enable-background:new 0 0 490.049 490.049;" xml:space="preserve">
<g>
	<path d="M469.224,0h-448.4c-11.4,0-20.8,9.4-20.8,20.8s9.4,20.8,20.8,20.8h104.1c-4.7,8.7-7.3,18.9-7.3,30.2
		c0,17.8,6.4,33.2,17,44.8c-29.9,17.9-50.3,50.7-50.3,88.4v111.3c0,49.9,36.1,92.3,84.9,101.3c-2.9,19.7-2.5,42.1,0.4,55.8
		c2.1,10.4,10.4,17.3,19.8,16.6c12.6-0.8,20.8-13.5,18.7-25c-2.6-11.9-1.6-33.6,1.7-48c47-9.7,82.5-50.9,81.6-100.8V204.9
		c0-36.9-19.8-69.8-49.9-88c11-11.6,17.7-27.1,17.7-45.1c0-11.3-2.6-21.5-7.1-30.2h195.4V465c0,11.4,9.4,20.8,20.8,20.8
		s20.7-9.3,21.7-20.8V20.8C490.024,9.4,480.624,0,469.224,0z M188.324,41.6c16.6,0,30.2,13.5,30.2,30.2s-13.6,30.2-30.2,30.2
		s-30.2-13.5-30.2-30.2S171.724,41.6,188.324,41.6z M250.724,204.9v111.3c0,34.3-28.1,62.4-62.4,62.4c0,0-59.2,1.3-63.5-62.4V204.9
		c0-34.3,28.1-62.4,63.5-62.4C222.624,142.5,250.724,170.6,250.724,204.9z"/>
</g>
<g>
</g>
<g>
</g>
<g>
</g>
<g>
</g>
<g>
</g>
<g>
</g>
<g>
</g>
<g>
</g>
<g>
</g>
<g>
</g>
<g>
</g>
<g>
</g>
<g>
</g>
<g>
</g>
<g>
</g>
</svg>
