<?xml version="1.0" encoding="iso-8859-1"?>
<!-- Generator: Adobe Illustrator 19.0.0, SVG Export Plug-In . SVG Version: 6.00 Build 0)  -->
<svg version="1.1" id="Layer_1" xmlns="http://www.w3.org/2000/svg" xmlns:xlink="http://www.w3.org/1999/xlink" x="0px" y="0px"
	 viewBox="0 0 492.2 492.2" style="enable-background:new 0 0 492.2 492.2;" xml:space="preserve">
<g>
	<g>
		<g>
			<g>
				<path d="M372.2,358.75H20.9c-11.5,0-20.9-9.4-20.9-20.9s9.4-20.9,20.9-20.9h331.5v-295c0-11.5,9.4-20.9,20.9-20.9h98
					c11.5,0,20.9,9.4,20.9,20.9s-9.4,20.9-20.9,20.9h-77.2v297.1C392.1,350.45,383.7,358.75,372.2,358.75z"/>
			</g>
			<g>
				<path d="M84.5,491.15c-32.3,0-58.4-26.1-58.4-58.4s26.1-58.4,58.4-58.4s58.4,26.1,58.4,58.4
					C143.9,465.05,116.8,491.15,84.5,491.15z M84.5,415.05c-10.4,0-17.7,8.3-17.7,17.7s8.3,17.7,17.7,17.7s17.7-8.3,17.7-17.7
					S94.9,415.05,84.5,415.05z"/>
			</g>
			<g>
				<path d="M298.2,491.15c-32.3,0-58.4-26.1-58.4-58.4s26.1-58.4,58.4-58.4s59.4,26.1,59.4,58.4S331.6,491.15,298.2,491.15z
					 M298.2,415.05c-10.4,0-17.7,8.3-17.7,17.7s8.3,17.7,17.7,17.7c10.4,0,17.7-8.3,17.7-17.7S308.7,415.05,298.2,415.05z"/>
			</g>
			<g>
				<path d="M297.2,286.85H64.7c-11.5,0-20.9-9.4-20.9-20.9V47.05c0-11.5,9.4-20.9,20.9-20.9h232.5c11.5,0,20.9,9.4,20.9,20.9v220
					C318,278.45,308.7,286.85,297.2,286.85z M85.5,246.15h190.8V67.85H85.5V246.15z"/>
			</g>
			<g>
				<g>
					<path d="M169,218.05v-49h-49v-24h50v-49h22.9v49h50v24h-50v49H169z"/>
				</g>
			</g>
		</g>
	</g>
</g>
<g>
</g>
<g>
</g>
<g>
</g>
<g>
</g>
<g>
</g>
<g>
</g>
<g>
</g>
<g>
</g>
<g>
</g>
<g>
</g>
<g>
</g>
<g>
</g>
<g>
</g>
<g>
</g>
<g>
</g>
</svg>
