<?xml version="1.0" encoding="iso-8859-1"?>
<!-- Generator: Adobe Illustrator 19.0.0, SVG Export Plug-In . SVG Version: 6.00 Build 0)  -->
<svg version="1.1" id="Layer_1" xmlns="http://www.w3.org/2000/svg" xmlns:xlink="http://www.w3.org/1999/xlink" x="0px" y="0px"
	 viewBox="0 0 488.9 488.9" style="enable-background:new 0 0 488.9 488.9;" xml:space="preserve">
<g>
	<g>
		<path d="M244.55,0C109.35,0,0.05,110.3,0.05,244.5c0,11.4,9.4,20.8,20.8,20.8h203.9v163.3c0,33.3,27,60.3,60.3,60.3
			s60.3-27,62.4-61.4c0-11.4-9.4-20.8-20.8-20.8s-20.8,9.4-20.8,20.8c0,10.4-9.4,19.8-19.8,19.8s-19.8-9.4-19.8-19.8V265.3h201.8
			c11.4,0,20.8-9.4,20.8-20.8C489.05,110.3,379.75,0,244.55,0z M41.65,224.7c10.4-103,97.8-183.1,202.9-183.1
			c106.1,0,192.5,80.1,202.9,183.1H41.65L41.65,224.7z"/>
		<polygon points="254.95,85.3 233.15,85.3 233.15,131.1 186.25,131.1 186.25,154 233.15,154 233.15,200.8 254.95,200.8 254.95,154 
			301.75,154 301.75,131.1 254.95,131.1 		"/>
	</g>
</g>
<g>
</g>
<g>
</g>
<g>
</g>
<g>
</g>
<g>
</g>
<g>
</g>
<g>
</g>
<g>
</g>
<g>
</g>
<g>
</g>
<g>
</g>
<g>
</g>
<g>
</g>
<g>
</g>
<g>
</g>
</svg>
