<?xml version="1.0" encoding="iso-8859-1"?>
<!-- Generator: Adobe Illustrator 19.0.0, SVG Export Plug-In . SVG Version: 6.00 Build 0)  -->
<svg version="1.1" id="Layer_1" xmlns="http://www.w3.org/2000/svg" xmlns:xlink="http://www.w3.org/1999/xlink" x="0px" y="0px"
	 viewBox="0 0 489.133 489.133" style="enable-background:new 0 0 489.133 489.133;" xml:space="preserve">
<g>
	<g>
		<polygon points="300.666,185.316 359.966,126.016 418.266,185.316 447.366,156.216 388.066,96.916 446.366,38.616 418.266,11.616 
			361.066,69.816 301.766,10.516 273.666,39.716 331.866,97.916 273.666,157.216 		"/>
		<path d="M482.866,329.916c0,0-92.6-119.6-238.2-119.6c0,0,0,0-0.1,0s0,0-0.1,0c-145.6,0-238.2,119.6-238.2,119.6
			c-10.8,9.1-5.5,25.2,0,29.1c0,0,90.2,119.6,238.2,119.6c0,0,0,0,0.1,0s0,0,0.1,0c148,0,238.2-119.6,238.2-119.6
			C488.366,355.116,493.666,339.016,482.866,329.916z M50.966,344.516c0,0,53.3-66.1,119.3-83.1c-22.1,20.4-36,49.6-36,82.1
			c0,33.3,14.7,63.3,37.8,83.7C102.466,405.816,50.966,344.516,50.966,344.516z M244.666,413.116
			C244.566,413.116,244.566,413.116,244.666,413.116c-0.1,0-0.1,0-0.1,0c-38.5,0-69.7-31.2-69.7-69.7s31.2-69.7,69.7-69.7
			c0,0,0,0,0.1,0s0,0,0.1,0c38.5,0,69.7,31.2,69.7,69.7C314.366,381.916,283.166,413.116,244.666,413.116z M317.066,427.116
			c23.1-20.4,37.8-50.4,37.8-83.7c0-32.5-14-61.7-36-82.1c66,17,119.3,83.1,119.3,83.1S386.666,405.816,317.066,427.116z"/>
	</g>
</g>
<g>
</g>
<g>
</g>
<g>
</g>
<g>
</g>
<g>
</g>
<g>
</g>
<g>
</g>
<g>
</g>
<g>
</g>
<g>
</g>
<g>
</g>
<g>
</g>
<g>
</g>
<g>
</g>
<g>
</g>
</svg>
