<?xml version="1.0" encoding="iso-8859-1"?>
<!-- Generator: Adobe Illustrator 19.0.0, SVG Export Plug-In . SVG Version: 6.00 Build 0)  -->
<svg version="1.1" id="Layer_1" xmlns="http://www.w3.org/2000/svg" xmlns:xlink="http://www.w3.org/1999/xlink" x="0px" y="0px"
	 viewBox="0 0 490.02 490.02" style="enable-background:new 0 0 490.02 490.02;" xml:space="preserve">
<g>
	<g>
		<path d="M486.569,458.7l-194-300c23.3-15.5,38.7-42,38.7-72.2c0-48-38.6-86.5-86.5-86.5s-86.5,38.6-86.5,86.5
			c0,30.5,15.6,57.1,39.2,72.5L3.769,458.7c-10.8,18.8,6,31.9,16.7,31.3h448.3C492.969,488.6,491.969,466.2,486.569,458.7z
			 M244.669,40.7c25,0,45.9,20.9,45.9,45.9s-20.9,45.9-45.9,45.9s-45.9-20.9-45.9-45.9C198.769,61.5,219.669,40.7,244.669,40.7z
			 M58.069,449.3l179-276.6c2.8,0.4,10.6,0.6,16-0.1l179.3,276.7H58.069z"/>
		<path d="M188.369,394.1c4.2-4.2,6.3-9.4,6.3-14.6s-2.1-9.4-7.3-13.6c-5.2-3.1-10.4-5.2-17.7-5.2s-12.5,1-17.7,5.2
			c-4.2,3.1-5.2,7.3-5.2,13.6c0,6.3,2.1,10.4,6.3,14.6c-6.3,4.2-9.4,10.4-9.4,17.7c0,6.3,2.1,11.5,7.3,15.6
			c5.2,4.1,11.5,6.3,19.8,6.3s14.6-2.1,19.8-6.3c5.2-4.2,7.3-9.4,7.3-15.6C197.769,404.5,194.569,398.3,188.369,394.1z
			 M176.869,418.1c-2.1,1-5.2,2.1-7.3,2.1s-5.2,0-7.3-2.1c-2.1-1-3.1-4.2-5.2-7.3c0-3.1,1-5.2,3.1-7.3c3.1-1,5.2-2.1,8.3-2.1
			s6.3,0,8.3,2.1c2.1,2.1,3.1,4.2,3.1,7.3S178.969,416,176.869,418.1z M177.969,386.8c-2.1,1-4.2,2.1-7.3,2.1s-5.2,0-7.3-2.1
			c-2.1-1-3.1-3.1-3.1-6.3c0-2.1,1-4.2,3.1-6.3c2.1-1,4.2-2.1,7.3-2.1s5.2,0,7.3,2.1c2.1,2.1,3.1,4.2,3.1,6.3
			S179.969,384.7,177.969,386.8z"/>
		<path d="M254.069,361.8l-27.1,29.2v-29.2h-15.6v70.9h15.6v-19.8l7.3-8.3l20.9,28.1h18.8c-3.1-4.2-8.3-11.5-14.6-20.9
			c-6.3-9.4-11.5-15.6-13.6-18.8l28.1-31.3h-19.8L254.069,361.8L254.069,361.8z"/>
		<path d="M316.569,433.7c12.5,0,21.9-3.1,29.2-11.5v-26.1h-14.6V417c-3.1,2.1-8.3,3.1-13.6,3.1c-6.3,0-10.4-2.1-14.6-6.3
			s-6.3-10.4-6.3-16.7c0-6.3,2.1-12.5,6.3-16.7c4.2-4.2,9.4-6.3,15.6-6.3c3.1,0,5.2,1,8.3,2.1c2.1,1,5.2,3.1,8.3,6.3l8.3-11.5
			c-8.3-7.3-16.7-10.4-27.1-10.4s-18.8,3.1-26.1,10.4c-7.3,6.3-10.4,15.6-10.4,26.1c0,10.4,3.1,18.8,10.4,26.1
			C297.769,430.6,306.169,433.7,316.569,433.7z"/>
	</g>
</g>
<g>
</g>
<g>
</g>
<g>
</g>
<g>
</g>
<g>
</g>
<g>
</g>
<g>
</g>
<g>
</g>
<g>
</g>
<g>
</g>
<g>
</g>
<g>
</g>
<g>
</g>
<g>
</g>
<g>
</g>
</svg>
