<?xml version="1.0" encoding="iso-8859-1"?>
<!-- Generator: Adobe Illustrator 19.0.0, SVG Export Plug-In . SVG Version: 6.00 Build 0)  -->
<svg version="1.1" id="Layer_1" xmlns="http://www.w3.org/2000/svg" xmlns:xlink="http://www.w3.org/1999/xlink" x="0px" y="0px"
	 viewBox="0 0 490 490" style="enable-background:new 0 0 490 490;" xml:space="preserve">
<g>
	<g>
		<path d="M434.9,0.5H55.1C25,0.5,0,25.5,0,55.7v378.7c0,30.2,25,55.1,55.1,55.1h378.7c30.2,0,55.1-25,56.2-54.1V55.7
			C490,25.5,465,0.5,434.9,0.5z M449.4,435.4c0,8.3-7.3,14.6-14.6,14.6H55.1c-8.3,0-14.6-7.3-14.6-14.6V55.7
			c0-8.3,6.2-14.6,14.6-14.6h379.7c8.3,0,14.6,7.3,14.6,14.6L449.4,435.4L449.4,435.4z"/>
		<path d="M410.9,131.6c-53.1-29.1-184.2-80.8-332.9,0c-8.3,5.2-12.5,14.6-9.4,23.9L113.4,296c6.2,17.4,23.9,14.6,29.1,11.4
			c65.5-36.4,140.4-36.4,206,0c18,7,26-5.2,28.1-11.4l43.7-140.4C423.4,146.2,419.3,135.8,410.9,131.6z M345.4,260.6
			c-21.7-9.3-44-15.5-66.6-18.6l35.4-59.4c5.2-9.4,2.1-21.8-7.3-28.1c-9.4-5.2-21.8-2.1-28.1,7.3l-46.5,78.1
			c-30.2,1.4-60.2,8.3-88.8,20.8l-31.2-100.9c85.3-41.6,178.9-41.6,264.2,0L345.4,260.6z"/>
	</g>
</g>
<g>
</g>
<g>
</g>
<g>
</g>
<g>
</g>
<g>
</g>
<g>
</g>
<g>
</g>
<g>
</g>
<g>
</g>
<g>
</g>
<g>
</g>
<g>
</g>
<g>
</g>
<g>
</g>
<g>
</g>
</svg>
