<?xml version="1.0" encoding="iso-8859-1"?>
<!-- Generator: Adobe Illustrator 19.0.0, SVG Export Plug-In . SVG Version: 6.00 Build 0)  -->
<svg version="1.1" id="Layer_1" xmlns="http://www.w3.org/2000/svg" xmlns:xlink="http://www.w3.org/1999/xlink" x="0px" y="0px"
	 viewBox="0 0 490 490" style="enable-background:new 0 0 490 490;" xml:space="preserve">
<g>
	<path d="M448.799,372.6c0.8-2.3,1.2-47,1.2-47c0-11.4-9.4-20.8-20.8-20.8h-28.1V139.4c0-11.4-9.4-20.8-20.8-20.8h-228.8V20.8
		c0-11.4-9.4-20.8-20.8-20.8h-109.3c-11.4,0-20.8,9.4-20.8,20.8s9.4,20.8,20.8,20.8h87.4v190c-61,10.1-108.2,63.8-108.2,128.4
		c0,71.8,58.3,130,129,130c71.8,0,130-59.3,130-130c0-4.6-0.3-9.1-0.7-13.5h149.5c0,0,0.4,24.2,1,26.2c-23.6,8.2-40.6,30.6-40.6,57
		c0,33.3,27,60.3,60.3,60.3s60.3-27,60.3-60.3C489.599,403.2,472.499,380.7,448.799,372.6z M218.099,360c0,48.9-39.5,88.4-88.4,88.4
		s-88.5-39.5-88.5-88.4s39.5-88.4,88.4-88.4C178.499,271.5,219.099,311.1,218.099,360z M151.499,231.8v-71.6h208.1v144.6h-112.6
		C228.999,267.3,193.399,239.2,151.499,231.8z M447.999,430.7c0,11.4-8.3,19.8-18.7,19.8s-18.7-9.4-18.7-19.8
		c0-11.4,8.3-19.8,18.7-19.8C440.699,410.9,448.999,419.3,447.999,430.7z"/>
</g>
<g>
</g>
<g>
</g>
<g>
</g>
<g>
</g>
<g>
</g>
<g>
</g>
<g>
</g>
<g>
</g>
<g>
</g>
<g>
</g>
<g>
</g>
<g>
</g>
<g>
</g>
<g>
</g>
<g>
</g>
</svg>
