<?xml version="1.0" encoding="iso-8859-1"?>
<!-- Generator: Adobe Illustrator 19.0.0, SVG Export Plug-In . SVG Version: 6.00 Build 0)  -->
<svg version="1.1" id="Layer_1" xmlns="http://www.w3.org/2000/svg" xmlns:xlink="http://www.w3.org/1999/xlink" x="0px" y="0px"
	 viewBox="0 0 490 490" style="enable-background:new 0 0 490 490;" xml:space="preserve">
<g>
	<path d="M415.5,342.3c-0.3,0-0.7,0-1,0V258c0-106.1-86.3-192.5-193.5-193.5h-84.3V20.8c0-11.4-9.4-20.8-20.8-20.8H35.8
		C24.4,0,15,9.4,15,20.8s9.4,20.8,20.8,20.8h59.3l-1,162.4C39.7,224.9,0.5,278,0.5,339.1c0,80.1,65.5,144.6,144.6,144.6
		c64.9,0,120.2-42.3,138.3-100.9h66.3c-5.1,10-8,21.3-8,33.3c0,40.6,33.3,73.9,73.9,73.9s73.9-33.3,73.9-73.9
		S456.1,342.3,415.5,342.3z M135.7,105.1H222c84.3,0,151.9,68.7,151.9,151.9v84.3h-84.3c0-0.7,0-1.4,0-2.1
		c0-80.1-64.5-144.6-144.6-144.6c-3.1,0-6.3,0.1-9.4,0.3v-89.8L135.7,105.1L135.7,105.1z M249.1,339.2c0,56.2-46.8,103-104,103
		s-104-45.8-104-103c0-56.2,46.8-103,104-103C203.3,236.2,250.1,281.9,249.1,339.2z M415.5,449.4c-18.7,0-33.3-14.6-33.3-33.3
		s14.6-33.3,33.3-33.3c17.7,0,33.3,14.6,33.3,33.3S434.2,449.4,415.5,449.4z"/>
</g>
<g>
</g>
<g>
</g>
<g>
</g>
<g>
</g>
<g>
</g>
<g>
</g>
<g>
</g>
<g>
</g>
<g>
</g>
<g>
</g>
<g>
</g>
<g>
</g>
<g>
</g>
<g>
</g>
<g>
</g>
</svg>
