<?xml version="1.0" encoding="iso-8859-1"?>
<!-- Generator: Adobe Illustrator 19.0.0, SVG Export Plug-In . SVG Version: 6.00 Build 0)  -->
<svg version="1.1" id="Layer_1" xmlns="http://www.w3.org/2000/svg" xmlns:xlink="http://www.w3.org/1999/xlink" x="0px" y="0px"
	 viewBox="0 0 490.123 490.123" style="enable-background:new 0 0 490.123 490.123;" xml:space="preserve">
<g>
	<g>
		<path d="M286.055,196.9h-58v-58c0-8.6-7-15.5-15.5-15.5c-8.6,0-15.5,7-15.5,15.5v58h-58c-8.6,0-15.5,7-15.5,15.5l0,0
			c0,8.6,7,15.5,15.5,15.5h58v58c0,8.6,7,15.5,15.5,15.5c8.6,0,15.5-7,15.5-15.5v-58h58c8.6,0,15.5-7,15.5-15.5l0,0
			C301.555,203.8,294.555,196.9,286.055,196.9z"/>
		<path d="M483.855,454.8l-38.3-38.3l23.8-23.8c8.3-8.3,8.3-20.7,0-29s-20.7-8.3-29,0l-23.8,23.8l-40.1-40.1
			c30.2-36.7,48.4-83.7,48.4-135c0-117.3-95.1-212.4-212.4-212.4S0.055,95.1,0.055,212.4s95.1,212.4,212.4,212.4
			c51.3,0,98.3-18.2,135-48.4l40.1,40.1l-23.9,23.8c-8.3,8.3-8.3,20.7,0,29c5.9,5.9,18.6,10.4,29,0l23.8-23.8l38.3,38.3
			c13.1,11.9,24.9,4.1,29,0C492.155,475.5,492.155,463.1,483.855,454.8z M212.455,384.7c-95.1,0-172.3-77.1-172.3-172.3
			c0-95.1,77.1-172.3,172.3-172.3c95.1,0,172.3,77.1,172.3,172.3C384.755,307.5,307.555,384.7,212.455,384.7z"/>
	</g>
</g>
<g>
</g>
<g>
</g>
<g>
</g>
<g>
</g>
<g>
</g>
<g>
</g>
<g>
</g>
<g>
</g>
<g>
</g>
<g>
</g>
<g>
</g>
<g>
</g>
<g>
</g>
<g>
</g>
<g>
</g>
</svg>
