<?xml version="1.0" encoding="iso-8859-1"?>
<!-- Generator: Adobe Illustrator 19.0.0, SVG Export Plug-In . SVG Version: 6.00 Build 0)  -->
<svg version="1.1" id="Layer_1" xmlns="http://www.w3.org/2000/svg" xmlns:xlink="http://www.w3.org/1999/xlink" x="0px" y="0px"
	 viewBox="0 0 488.925 488.925" style="enable-background:new 0 0 488.925 488.925;" xml:space="preserve">
<g>
	<g>
		<polygon points="285.125,133.2 251.825,133.2 251.825,202.9 181.025,202.9 181.025,237.2 251.825,237.2 251.825,308 285.125,308 
			285.125,237.2 355.825,237.2 355.825,202.9 285.125,202.9 		"/>
		<path d="M268.425,0c-121.8,0-220.6,98.7-220.6,220.6c0,53.7,19.2,102.9,51.1,141.2l-92.7,91.8c-8.3,8.3-8.3,20.8,0,29.1
			c8.3,8.3,20.8,8.3,29.1,0l92.3-92.3c38.2,31.7,87.2,50.7,140.7,50.7c121.8,0,220.6-98.7,220.6-220.6S390.225,0,268.425,0z
			 M268.425,400.6c-99.4,0-180-80.6-180-180s80.6-180,180-180s180,80.6,180,180S367.825,400.6,268.425,400.6z"/>
	</g>
</g>
<g>
</g>
<g>
</g>
<g>
</g>
<g>
</g>
<g>
</g>
<g>
</g>
<g>
</g>
<g>
</g>
<g>
</g>
<g>
</g>
<g>
</g>
<g>
</g>
<g>
</g>
<g>
</g>
<g>
</g>
</svg>
